<svg id="Layer_1" data-name="Layer 1" xmlns="http://www.w3.org/2000/svg" viewBox="0 0 491.52 491.52"><defs><style>.cls-1,.cls-2{fill-rule:evenodd;}.cls-2{fill:#1163fb;}</style></defs><path id="_253849104" data-name=" 253849104" d="M16.2,467.41a7.92,7.92,0,1,0,0,15.83H475.32a7.92,7.92,0,1,0,0-15.83Z"/><path id="_370839600" data-name=" 370839600" class="cls-1" d="M158.73,478H332.79V180.07a100.88,100.88,0,0,1-41.07-81.31c0-2,.06-3.92.17-5.85l-133.16-35V478Zm101.81-76.13H301v40.42H260.54Zm-70,0H231v40.42H190.57Zm70-82.17H301v40.42H260.54Zm-70,0H231v40.42H190.57Zm70-82.16H301v40.42H260.54Zm-70,0H231v40.42H190.57Zm70-82.16H301v40.41H260.54Zm-70,0H231v40.41H190.57Z"/><path id="_359391736" data-name=" 359391736" class="cls-1" d="M148.18,151H14.07V114.26H148.18Z"/><path id="_255368712" data-name=" 255368712" class="cls-2" d="M392.76,8.28a90.48,90.48,0,1,1-90.49,90.48A90.48,90.48,0,0,1,392.76,8.28ZM398,36.46a5.28,5.28,0,1,0-10.55,0V47.59A28.47,28.47,0,0,0,392.76,104,17.91,17.91,0,1,1,374.84,122a5.28,5.28,0,0,0-10.55,0,28.49,28.49,0,0,0,23.19,28v11.14a5.28,5.28,0,0,0,10.55,0V149.93a28.47,28.47,0,0,0-5.27-56.44,17.92,17.92,0,1,1,17.91-17.92,5.28,5.28,0,1,0,10.55,0,28.46,28.46,0,0,0-23.19-28Z"/><path id="_253849344" data-name=" 253849344" class="cls-1" d="M148.18,478V161.59H30.64V478ZM70.64,407.7h37.54v37.53H70.64Zm0-72.89h37.54v37.54H70.64Zm0-72.89h37.54v37.54H70.64Zm0-72.88h37.54v37.53H70.64Z"/><path id="_253849584" data-name=" 253849584" class="cls-1" d="M460.88,478V173.37A101,101,0,0,1,343.34,186.9V478ZM383.34,407.7h37.54v37.53H383.34Zm0-72.89h37.54v37.54H383.34Zm0-72.89h37.54v37.54H383.34Z"/></svg>