<svg id="Layer_1" data-name="Layer 1" xmlns="http://www.w3.org/2000/svg" viewBox="0 0 640 411"><defs><style>.cls-1{fill:#131a2a;}.cls-2,.cls-8{fill:#fff;}.cls-3{fill:#4a4a4a;}.cls-4{fill:#1d6bfb;}.cls-5{fill:#4f8cfc;}.cls-6{fill:#0452e2;}.cls-7{fill:#b4cefe;}.cls-8{font-size:17.23px;font-family:MyriadPro-Bold, Myriad Pro;font-weight:700;}.cls-9{letter-spacing:0em;}.cls-10{letter-spacing:0em;}.cls-11{letter-spacing:0em;}.cls-12{letter-spacing:0em;}.cls-13{letter-spacing:-0.01em;}.cls-14{letter-spacing:0em;}.cls-15{letter-spacing:-0.01em;}.cls-16{letter-spacing:-0.04em;}.cls-17{letter-spacing:-0.08em;}.cls-18{letter-spacing:-0.01em;}.cls-19{letter-spacing:-0.04em;}.cls-20{letter-spacing:-0.04em;}.cls-21{letter-spacing:0.01em;}.cls-22{letter-spacing:-0.03em;}.cls-23{letter-spacing:-0.01em;}</style></defs><rect class="cls-1" width="640" height="411"/><path class="cls-2" d="M239.91,152a1.47,1.47,0,0,1-1.29-.77L217.06,111.2a1.49,1.49,0,0,1,2.59-1.39l21.49,40.11a1.48,1.48,0,0,1-.63,2,1.46,1.46,0,0,1-.65.17Z"/><path class="cls-3" d="M244.57,147.71a5.51,5.51,0,1,1-7.47-2.22l.05,0A5.51,5.51,0,0,1,244.57,147.71Z"/><path class="cls-2" d="M223.33,108.23a5.5,5.5,0,1,0-2.26,7.43h0A5.49,5.49,0,0,0,223.33,108.23Z"/><path class="cls-2" d="M124.83,270.27a1.47,1.47,0,0,1-.58-.12l-50-21.76a1.49,1.49,0,0,1,.74-2.88,1.52,1.52,0,0,1,.43.19l50.05,21.76a1.49,1.49,0,0,1-.6,2.81Z"/><path class="cls-3" d="M126.78,263.64a5.51,5.51,0,1,1-7.24,2.88v0a5.48,5.48,0,0,1,7.22-2.86Z"/><path class="cls-2" d="M77.24,242.11a5.5,5.5,0,1,0,2.85,7.23A5.5,5.5,0,0,0,77.24,242.11Z"/><path class="cls-2" d="M411.25,152a1.36,1.36,0,0,1-.68-.18,1.48,1.48,0,0,1-.61-2l21.51-40.1a1.48,1.48,0,0,1,2.09-.22,1.5,1.5,0,0,1,.48,1.6l-21.5,40.1A1.48,1.48,0,0,1,411.25,152Z"/><path class="cls-3" d="M416.23,152.92a5.5,5.5,0,1,1-2.26-7.43h0A5.5,5.5,0,0,1,416.23,152.92Z"/><path class="cls-2" d="M437.47,113.35a5.5,5.5,0,1,0-7.43,2.3,5.49,5.49,0,0,0,7.43-2.3Z"/><path class="cls-2" d="M526.27,270.27a1.49,1.49,0,0,1-.58-2.81l50-21.76a1.48,1.48,0,1,1,1.6,2.5,1.28,1.28,0,0,1-.43.19l-50,21.75A1.74,1.74,0,0,1,526.27,270.27Z"/><path class="cls-3" d="M528.72,273.75a5.51,5.51,0,1,1,2.85-7.26h0A5.52,5.52,0,0,1,528.72,273.75Z"/><path class="cls-2" d="M578.26,252.19a5.49,5.49,0,1,0-7.24-2.84h0a5.48,5.48,0,0,0,7.21,2.85Z"/><path class="cls-4" d="M328.23,154A198.48,198.48,0,0,0,187.4,212.2L328.23,353Z"/><path class="cls-5" d="M469.06,212.2a198.4,198.4,0,0,0-140.83-58.28V353.08Z"/><path class="cls-6" d="M187.4,212.2A198.49,198.49,0,0,0,129.11,353H328.16Z"/><path class="cls-7" d="M527.35,353.08A198.5,198.5,0,0,0,469.06,212.2L328.23,353Z"/><path class="cls-1" d="M388.26,293.06a84.86,84.86,0,0,0-144.89,60H413.11A84.57,84.57,0,0,0,388.26,293.06Z"/><circle class="cls-2" cx="145.61" cy="280.7" r="35.04"/><circle class="cls-6" cx="145.61" cy="280.7" r="29.65"/><path class="cls-2" d="M149.48,293.55h-7.61a.89.89,0,0,1-.89-.9h0a.89.89,0,0,1,.89-.87h7.64a.89.89,0,0,1,.89.87h0a.89.89,0,0,1-.89.9Z"/><path class="cls-2" d="M148.15,296.47h-4.79a.89.89,0,0,1-.9-.89h0a.9.9,0,0,1,.9-.88h4.76a.9.9,0,0,1,.9.88h0A.89.89,0,0,1,148.15,296.47Z"/><path class="cls-2" d="M149.68,290.41h-8.12a.67.67,0,0,1-.67-.65,8.12,8.12,0,0,0-2.61-5.94,10.87,10.87,0,1,1,15.36-.69q-.33.36-.69.69a8.24,8.24,0,0,0-2.6,5.94A.67.67,0,0,1,149.68,290.41Zm-7.42-1.32h6.84a9.51,9.51,0,0,1,3-6.27,9.54,9.54,0,1,0-13.48-.59c.19.2.39.4.6.59a9.45,9.45,0,0,1,3,6.27Z"/><path class="cls-2" d="M142.63,271.09a5.65,5.65,0,0,0-2.24,7.66.78.78,0,0,1-.3,1,.74.74,0,0,1-.36.09.79.79,0,0,1-.67-.39,7.18,7.18,0,0,1,2.78-9.74.77.77,0,1,1,.74,1.34h0Z"/><circle class="cls-2" cx="509.42" cy="280.7" r="35.04"/><circle class="cls-7" cx="509.42" cy="280.7" r="29.65"/><path class="cls-2" d="M523,292.28l-7.8-7.81a11.12,11.12,0,1,0-3.06,2.6l8,8Zm-23.31-14.72a7,7,0,1,1,7,7,7,7,0,0,1-7-7Z"/><circle class="cls-2" cx="251.15" cy="173.88" r="35.04"/><circle class="cls-4" cx="251.17" cy="173.89" r="29.65" transform="translate(39.28 393.95) rotate(-80.78)"/><path class="cls-2" d="M243,182.57l5.22-5.21,2.19,2.2,10.15-10.15,1.69,1.69c0-.13,1.28-7.88,1.21-7.42L256,164.89,258,166.8l-7.56,7.54-2.2-2.2-5.57,5.57V161.06h-3.17v24.72h24.7v-3.21Z"/><circle class="cls-2" cx="399.46" cy="173.88" r="35.04"/><circle class="cls-5" cx="399.45" cy="173.88" r="29.65" transform="translate(-5.96 333.38) rotate(-45)"/><path class="cls-2" d="M410.73,173.75v-1.06L414.1,171a14.75,14.75,0,0,0-1.13-3.46l-3.74.58a10.85,10.85,0,0,0-1.25-1.69l1.71-3.4a15.24,15.24,0,0,0-3-2.14l-2.7,2.67a11,11,0,0,0-2-.65l-.61-3.74a13.86,13.86,0,0,0-3.64,0l-.61,3.74a11.12,11.12,0,0,0-2,.65l-2.7-2.67a15,15,0,0,0-3,2.14l1.71,3.4a12.94,12.94,0,0,0-1.25,1.69l-3.74-.58a14.75,14.75,0,0,0-1.13,3.46l3.39,1.74v2.11l-3.36,1.75a14.38,14.38,0,0,0,1.13,3.45l3.74-.56a12.94,12.94,0,0,0,1.25,1.69l-1.71,3.4a15.24,15.24,0,0,0,3,2.14l2.71-2.67a10.87,10.87,0,0,0,2,.65l.61,3.74a13.86,13.86,0,0,0,3.64,0l.61-3.74a11,11,0,0,0,2-.65l2.7,2.67a15.24,15.24,0,0,0,3-2.14l-1.71-3.4a10.85,10.85,0,0,0,1.25-1.69L413,180a14.53,14.53,0,0,0,1.13-3.45l-3.4-1.75Zm-11.15,7a7,7,0,1,1,7-7v0A7,7,0,0,1,399.58,180.74Z"/><text class="cls-8" transform="translate(28.68 205.25)">38% <tspan class="cls-9" x="37.76" y="0">G</tspan><tspan x="49.56" y="0">lobal</tspan><tspan class="cls-10" x="-6.88" y="20.67">M</tspan><tspan class="cls-11" x="7.74" y="20.67">a</tspan><tspan class="cls-12" x="16.84" y="20.67">r</tspan><tspan class="cls-13" x="23.33" y="20.67">k</tspan><tspan x="32.43" y="20.67">et </tspan><tspan class="cls-14" x="51.32" y="20.67">S</tspan><tspan x="60.56" y="20.67">ha</tspan><tspan class="cls-15" x="79.75" y="20.67">r</tspan><tspan x="86.15" y="20.67">e</tspan></text><text class="cls-8" transform="translate(160.74 72.34)">70%<tspan class="cls-16" x="34.28" y="0"> </tspan><tspan class="cls-17" x="37.09" y="0">T</tspan><tspan x="45.13" y="0">o</tspan><tspan class="cls-13" x="55.07" y="0">k</tspan><tspan class="cls-11" x="64.17" y="0">eni</tspan><tspan class="cls-18" x="88.08" y="0">z</tspan><tspan x="96.03" y="0">ed</tspan><tspan class="cls-12" x="-9.85" y="20.67">A</tspan><tspan x="1.4" y="20.67">ssets</tspan><tspan class="cls-19" x="39.24" y="20.67"> </tspan><tspan class="cls-20" x="42.08" y="20.67">W</tspan><tspan x="56.66" y="20.67">o</tspan><tspan class="cls-12" x="66.6" y="20.67">r</tspan><tspan x="73.09" y="20.67">ldwide</tspan></text><text class="cls-8" transform="translate(386.48 72.34)">21.2% <tspan class="cls-21" x="51.8" y="0">C</tspan><tspan class="cls-22" x="62.22" y="0">A</tspan><tspan x="73.09" y="0">GR </tspan><tspan x="13.03" y="20.67">025-2035</tspan></text><text class="cls-8" transform="translate(538.12 205.25)">USD 21.8B<tspan class="cls-23" x="9.6" y="20.67">b</tspan><tspan x="19.75" y="20.67">y 2035</tspan></text></svg>