<svg id="Layer_1" data-name="Layer 1" xmlns="http://www.w3.org/2000/svg" viewBox="0 0 491.52 491.52"><defs><style>.cls-1,.cls-2{fill-rule:evenodd;}.cls-2{fill:#1163fb;}</style></defs><path class="cls-1" d="M379.6,478.85H299.48V371.41A5.87,5.87,0,0,0,294,366H193.86a5.87,5.87,0,0,0-5.46,5.46V478.85H112.83c-1.83,0-2.74-2.73-2.74-5.46V153.8c0-2.73.91-5.46,2.74-5.46H379.6c1.82,0,3.65,2.73,3.65,5.46V473.39C383.25,476.12,381.42,478.85,379.6,478.85Zm-91.05,0H249.4v-102h39.15Zm-50.07,0H199.32v-102h39.16Zm-53.72-259.5h-34.6a5.87,5.87,0,0,1-5.47-5.46V181.11a5.87,5.87,0,0,1,5.47-5.46h34.6a5.87,5.87,0,0,1,5.46,5.46v32.78A5.87,5.87,0,0,1,184.76,219.35Zm77.39,119.28h-34.6a5.87,5.87,0,0,1-5.46-5.46V300.39a5.87,5.87,0,0,1,5.46-5.46h34.6a5.25,5.25,0,0,1,5.46,5.46v32.78A5.25,5.25,0,0,1,262.15,338.63ZM233,327.71h23.68V305.85H233Zm109.26,10.92h-34.6a5.87,5.87,0,0,1-5.46-5.46V300.39a5.87,5.87,0,0,1,5.46-5.46h34.6a5.25,5.25,0,0,1,5.47,5.46v32.78A5.25,5.25,0,0,1,342.27,338.63Zm-29.13-10.92h23.67V305.85H313.14ZM184.76,338.63h-34.6a5.87,5.87,0,0,1-5.47-5.46V300.39a5.87,5.87,0,0,1,5.47-5.46h34.6a5.87,5.87,0,0,1,5.46,5.46v32.78A5.87,5.87,0,0,1,184.76,338.63Zm-29.14-10.92h23.67V305.85H155.62Zm106.53-49.17h-34.6a5.25,5.25,0,0,1-5.46-5.47V241.21a5.25,5.25,0,0,1,5.46-5.47h34.6q5.46,0,5.46,5.47v31.86Q267.61,278.55,262.15,278.54ZM233,267.61h23.68V246.67H233Zm29.14-48.26h-34.6a5.87,5.87,0,0,1-5.46-5.46V181.11a5.87,5.87,0,0,1,5.46-5.46h34.6a5.25,5.25,0,0,1,5.46,5.46v32.78A5.25,5.25,0,0,1,262.15,219.35ZM233,208.43h23.68V186.58H233Zm109.26,70.11h-34.6a5.25,5.25,0,0,1-5.46-5.47V241.21a5.25,5.25,0,0,1,5.46-5.47h34.6q5.48,0,5.47,5.47v31.86Q347.74,278.55,342.27,278.54Zm-29.13-10.93h23.67V246.67H313.14Zm29.13-48.26h-34.6a5.87,5.87,0,0,1-5.46-5.46V181.11a5.87,5.87,0,0,1,5.46-5.46h34.6a5.25,5.25,0,0,1,5.47,5.46v32.78A5.25,5.25,0,0,1,342.27,219.35Zm-29.13-10.92h23.67V186.58H313.14ZM184.76,278.54h-34.6a5.25,5.25,0,0,1-5.47-5.47V241.21a5.25,5.25,0,0,1,5.47-5.47h34.6a5.25,5.25,0,0,1,5.46,5.47v31.86A5.25,5.25,0,0,1,184.76,278.54Zm-29.14-10.93h23.67V246.67H155.62Zm0-59.18h23.67V186.58H155.62Z"/><path class="cls-1" d="M100.08,478.85H17.22a5.87,5.87,0,0,1-5.46-5.46V153.8a5.87,5.87,0,0,1,5.46-5.46h82V478.85ZM73.67,454.27H38.16a5.25,5.25,0,0,1-5.46-5.47V416.93a5.25,5.25,0,0,1,5.46-5.46H73.67a5.25,5.25,0,0,1,5.47,5.46V448.8A5.26,5.26,0,0,1,73.67,454.27Zm0-59.19H38.16a5.87,5.87,0,0,1-5.46-5.46V356.84a5.87,5.87,0,0,1,5.46-5.46H73.67a5.87,5.87,0,0,1,5.47,5.46v32.78A5.87,5.87,0,0,1,73.67,395.08Zm-30-10.92H68.21V362.3H43.63Zm30-49.17H38.16a5.25,5.25,0,0,1-5.46-5.46V297.66a5.25,5.25,0,0,1,5.46-5.46H73.67a5.25,5.25,0,0,1,5.47,5.46v31.87A5.25,5.25,0,0,1,73.67,335Zm-30-10.93H68.21V303.12H43.63Zm30-48.25H38.16a5.88,5.88,0,0,1-5.46-5.47V237.56a5.87,5.87,0,0,1,5.46-5.46H73.67a5.87,5.87,0,0,1,5.47,5.46v32.78A5.88,5.88,0,0,1,73.67,275.81Zm-30-10.93H68.21V243H43.63Zm30-49.17H38.16a5.87,5.87,0,0,1-5.46-5.46V177.47A5.87,5.87,0,0,1,38.16,172H73.67a5.87,5.87,0,0,1,5.47,5.46v32.78A5.87,5.87,0,0,1,73.67,215.71Zm-30-10.92H68.21V182.93H43.63Zm0,238.55H68.21V422.4H43.63Z"/><path class="cls-2" d="M403.28,117.38H85.51a5.25,5.25,0,0,1-5.46-5.46V18.13a5.25,5.25,0,0,1,5.46-5.46H403.28a5.87,5.87,0,0,1,5.46,5.46v93.79A5.87,5.87,0,0,1,403.28,117.38Zm-290.45-30a5.25,5.25,0,0,1-5.47-5.46V48.18a5.25,5.25,0,0,1,5.47-5.46,5.87,5.87,0,0,1,5.46,5.46V60h15.48V48.18a5.46,5.46,0,0,1,10.92,0V81.87a5.46,5.46,0,0,1-10.92,0V70.94H118.29V81.87A5.87,5.87,0,0,1,112.83,87.33Zm137.48,0a5.25,5.25,0,0,1-5.46-5.46V53.64H229.37a5.46,5.46,0,0,1,0-10.92h41a5.46,5.46,0,1,1,0,10.92H255.78V81.87A5.88,5.88,0,0,1,250.31,87.33Zm125.65,0H350.47A5.88,5.88,0,0,1,345,81.87V49.09a5.25,5.25,0,0,1,5.47-5.46q5.46,0,5.46,5.46V76.41h20a5.46,5.46,0,1,1,0,10.92ZM322.24,70.94H303.12v4.55h19.12A5.89,5.89,0,0,1,327.71,81a5.25,5.25,0,0,1-5.47,5.46H297.66A5.25,5.25,0,0,1,292.2,81V49.09a5.25,5.25,0,0,1,5.46-5.46h25.49c3.64,0,5.47,1.82,5.47,5.46a5.25,5.25,0,0,1-5.47,5.46h-20V60h19.12a5.25,5.25,0,0,1,5.47,5.46A5.88,5.88,0,0,1,322.24,70.94ZM183.85,87.33a22.54,22.54,0,0,1-22.77-22.76c0-11.84,10-21.85,22.77-21.85s23.67,10,23.67,21.85C207.52,77.32,196.59,87.33,183.85,87.33Zm0-33.69c-6.38,0-11.84,5.47-11.84,10.93a12.06,12.06,0,0,0,11.84,11.84c7.28,0,12.74-5.47,12.74-11.84C196.59,59.11,191.13,53.64,183.85,53.64Z"/><rect x="149.25" y="116.45" width="192.12" height="52.81" rx="5.46"/><path class="cls-1" d="M393.26,478.85h81a5.87,5.87,0,0,0,5.46-5.46V153.8a5.87,5.87,0,0,0-5.46-5.46h-81c0,1.82.91,3.64.91,5.46V473.39C394.17,475.21,393.26,477,393.26,478.85Zm24.59-24.58h35.5a5.26,5.26,0,0,0,5.47-5.47V416.93a5.25,5.25,0,0,0-5.47-5.46h-35.5a5.25,5.25,0,0,0-5.47,5.46V448.8A5.26,5.26,0,0,0,417.85,454.27Zm0-59.19h35.5a5.87,5.87,0,0,0,5.47-5.46V356.84a5.87,5.87,0,0,0-5.47-5.46h-35.5a5.87,5.87,0,0,0-5.47,5.46v32.78A5.87,5.87,0,0,0,417.85,395.08Zm30-10.92H423.31V362.3h24.58Zm-30-49.17h35.5a5.25,5.25,0,0,0,5.47-5.46V297.66a5.25,5.25,0,0,0-5.47-5.46h-35.5a5.25,5.25,0,0,0-5.47,5.46v31.87A5.25,5.25,0,0,0,417.85,335Zm30-10.93H423.31V303.12h24.58Zm-30-48.25h35.5a5.88,5.88,0,0,0,5.47-5.47V237.56a5.87,5.87,0,0,0-5.47-5.46h-35.5a5.87,5.87,0,0,0-5.47,5.46v32.78A5.88,5.88,0,0,0,417.85,275.81Zm30-10.93H423.31V243h24.58Zm-30-49.17h35.5a5.87,5.87,0,0,0,5.47-5.46V177.47a5.87,5.87,0,0,0-5.47-5.46h-35.5a5.87,5.87,0,0,0-5.47,5.46v32.78A5.87,5.87,0,0,0,417.85,215.71Zm30-10.92H423.31V182.93h24.58Zm0,238.55H423.31V422.4h24.58Z"/></svg>