<svg id="Layer_1" data-name="Layer 1" xmlns="http://www.w3.org/2000/svg" viewBox="0 0 491.52 491.52"><defs><style>.cls-1{fill:#1163fb;}</style></defs><path d="M480.22,352.31l-26.68-44.15a7.43,7.43,0,0,0-6.29-3.53H310.71a22.07,22.07,0,0,1-17.11,29.14V363.5H473.93a7.47,7.47,0,0,0,6.29-11.19Z"/><path d="M278.88,312.17l6.22,5.37a7.72,7.72,0,0,0,3.35,1.66,7.26,7.26,0,0,0,1.47.15,6.51,6.51,0,0,0,.77,0,9.68,9.68,0,0,0,1.51-.33,6.67,6.67,0,0,0,.74-.29,8.13,8.13,0,0,0,2-1.29c.19-.19.37-.37.56-.59a7.34,7.34,0,0,0-.72-10.36l0,0-19.13-16.52h65.86V142.74a22.1,22.1,0,0,0-22.08-22.08h-11V113.3a22.12,22.12,0,0,0-14.71-20.79V32.36a22.1,22.1,0,0,0-22.08-22.08H102.27A22.09,22.09,0,0,0,80.2,32.36V55.72A22.07,22.07,0,0,0,65.48,76.51v7.36h-11a22.09,22.09,0,0,0-22.08,22.07V270l2.06-1.81c4.13-3.53,13.91-12,26-22.44H47.08V231H77.44L103,209h-56V194.25h73.07c13-11.19,22.23-19.06,22.6-19.28v-69a22.09,22.09,0,0,0-22.08-22.07h-11V76.51A22.08,22.08,0,0,0,94.91,55.72V32.36A7.39,7.39,0,0,1,102.27,25H271.56a7.38,7.38,0,0,1,7.36,7.36V92.51A22.09,22.09,0,0,0,264.2,113.3v7.36H253.13a22.1,22.1,0,0,0-22.08,22.08v58.87h14.72v-7.36h80.94V209H273.25l.56,22.07h52.9v14.72H274.17l.52,22.08h52v14.71H275.06l.18,7L264.09,280c0-10.16.11-56.3.11-56.3a7.39,7.39,0,0,0-7.36-7.36H227.41a7.37,7.37,0,0,0-7.36,7.36h0V242l-61.81-53.28h0a7.36,7.36,0,0,0-4.82-1.8,7.27,7.27,0,0,0-2.28.37,8.34,8.34,0,0,0-1.44.62,11.87,11.87,0,0,0-1.06.81l-.45.37L12.83,306.43a7.35,7.35,0,0,0,9.64,11.11l6.21-5.37v147a22.1,22.1,0,0,0,22.08,22.08H278.88ZM80.2,76.51a7.36,7.36,0,1,1,14.71,0v7.36H80.2ZM128,172.17H47.08V157.45h81Zm0-51.51v14.72H47.08V120.66Zm150.89-7.36a7.36,7.36,0,0,1,14.72,0v7.36H278.92Zm-33.15,58.87V157.45h80.94v14.72ZM135.39,466.52H83.88V392.94a7.37,7.37,0,0,1,7.35-7.36H128a7.39,7.39,0,0,1,7.36,7.36Zm18.17-150.85a22.08,22.08,0,1,1,22.08-22.08,22.08,22.08,0,0,1-22.08,22.08Zm73.81,114.06a7.38,7.38,0,0,1-7.36,7.36H194.26a7.38,7.38,0,0,1-7.36-7.36V407.65a7.39,7.39,0,0,1,7.36-7.36H220a7.39,7.39,0,0,1,7.36,7.36Zm22.11-162.37-14.71-12.7V231h14.71Z"/><path d="M293.6,481.24H437.13a22.1,22.1,0,0,0,22.08-22.08V378.22H293.6Zm47.87-58.87a7.38,7.38,0,0,1,7.36-7.36h25.75a7.38,7.38,0,0,1,7.36,7.36v44.15H341.47Z"/><path class="cls-1" d="M421.65,11.09a7.37,7.37,0,0,0-9.91,3.18C406,25.53,407.35,31.52,410,38.75c.58,1.62,1.29,3.3,2,5,3,7,4.14,10.6,1.88,13.33a7.36,7.36,0,0,0,11.34,9.38c8.22-9.93,3.47-21.09.33-28.47-.62-1.45-1.23-2.88-1.73-4.25-1.7-4.74-2.28-6.33,1-12.76A7.36,7.36,0,0,0,421.65,11.09Z"/><path class="cls-1" d="M392.21,11.09a7.37,7.37,0,0,0-9.91,3.18c-5.79,11.26-4.39,17.25-1.78,24.48.59,1.62,1.29,3.3,2,5,3,7,4.14,10.6,1.88,13.33a7.36,7.36,0,1,0,11.34,9.38c8.22-9.93,3.47-21.09.33-28.47-.62-1.45-1.22-2.88-1.72-4.25-1.71-4.74-2.29-6.33,1-12.76A7.36,7.36,0,0,0,392.21,11.09Z"/><polygon class="cls-1" points="439.87 216.32 372.98 216.32 367.21 289.91 446.35 289.91 439.87 216.32"/><path class="cls-1" d="M372.74,94.91a7.36,7.36,0,0,0,7.36,7.35h1.82l-7.79,99.35h64.44l-8.76-99.35h1.81a7.36,7.36,0,1,0,0-14.71H380.1A7.36,7.36,0,0,0,372.74,94.91Z"/></svg>