<svg id="Layer_1" data-name="Layer 1" xmlns="http://www.w3.org/2000/svg" viewBox="0 0 491.52 491.52"><defs><style>.cls-1{fill:#1163fb;}.cls-2{isolation:isolate;}</style></defs><path class="cls-1" d="M109.16,15.24V254.3H211.61l34.15,51.22,34.15-51.22H382.36V15.24Zm256.13,222H270.78l-25,37.52-25-37.52H126.23V32.32H365.29Z"/><path class="cls-1" d="M245.76,98.48,194.53,136.9v66.17h34.15V168.92h34.16v34.15H297V136.9Z"/><path class="cls-1" d="M245.76,55.79l-73.43,55.07,10.25,13.66,63.18-47.38,63.18,47.38,10.24-13.66Z"/><path class="cls-2" d="M428.26,207.61l-11.75-55.77H399.44v67.61C410,214.84,419.74,210.84,428.26,207.61Z"/><path class="cls-2" d="M276.51,290.19c8.78-6.68,17.68-12.89,26.62-18.82H289.06Z"/><path class="cls-2" d="M92.08,271.37v-38A190.46,190.46,0,0,1,55.81,243l-16,75.85c41.47,6.45,101.68,21.7,153.56,57.4a324.28,324.28,0,0,1,44-52.47l-34.92-52.39Z"/><path class="cls-2" d="M75,151.84,59.59,225.1a167.51,167.51,0,0,0,32.49-10V151.84Z"/><path class="cls-2" d="M36.33,335.51,6.7,476.28H154.47a239,239,0,0,1,30-85.53C134.67,356.12,76.15,341.59,36.33,335.51Z"/><path class="cls-2" d="M431.81,224.48c-9.52,3.67-20.52,8.2-32.37,13.49v33.4h-64.6c-46.65,27.68-95.28,65.44-127.74,114.9,28.43,22.37,53.34,51.64,69.86,90H484.82Z"/><path class="cls-2" d="M198.14,401a223.08,223.08,0,0,0-26.44,75.27h86.42C243.23,444.91,222.13,420.29,198.14,401Z"/></svg>