<svg id="Layer_1" data-name="Layer 1" xmlns="http://www.w3.org/2000/svg" viewBox="0 0 491.52 491.52"><defs><style>.cls-1{fill:#1163fb;}</style></defs><path d="M224.43,21.76a10.67,10.67,0,0,0-10.67-10.67h-192A10.67,10.67,0,0,0,11.09,21.76v32H224.43Z"/><path d="M213.76,480.43h64V458.24a127.51,127.51,0,0,1,0-169V245.76h-64Z"/><path class="cls-1" d="M373.76,267.09A106.67,106.67,0,1,0,480.43,373.76,106.79,106.79,0,0,0,373.76,267.09Zm32,85.34a10.67,10.67,0,0,1-21.33,0s1.16-11.36-12.23-10.67a9.3,9.3,0,0,0-9.11,9.11c0,9.2,11.21,10.35,25.84,18.55,11.33,6.34,16.83,15.64,16.83,27.23a30.4,30.4,0,0,1-21.33,28.9s1.16,12.21-10.67,12.21-10.67-12.21-10.67-12.21c-23.83-9-21.33-30.46-21.33-30.46a10.67,10.67,0,0,1,21.33,0s-1.77,11.13,12.23,10.67a9.11,9.11,0,0,0,4.06-17.27c-18.1-9.59-37.69-14.17-37.62-37.62A30.45,30.45,0,0,1,363.11,322s-1.25-12.21,10.67-12.21c11.74,0,10.67,12.21,10.67,12.21C407.5,330.29,405.78,352.43,405.78,352.43Z"/><path d="M469.76,11.09h-192a10.66,10.66,0,0,0-10.67,10.67v32H480.43v-32A10.66,10.66,0,0,0,469.76,11.09Z"/><path d="M107.09,427.09v53.34h21.34V427.09a10.67,10.67,0,0,0-21.34,0Z"/><path d="M299.09,75.09V269.87a127.58,127.58,0,0,1,170.67,19.48V75.09Zm53.43,170.67H331.19c-14.08,0-14.59-21.33,0-21.33h21.33C366.58,224.43,366.62,245.76,352.52,245.76Zm0-42.67H331.19c-14.08,0-14.59-21.33,0-21.33h21.33C366.58,181.76,366.62,203.09,352.52,203.09Zm0-42.66H331.19c-14.08,0-14.59-21.34,0-21.34h21.33C366.58,139.09,366.62,160.43,352.52,160.43Zm0-42.67H331.19c-14.08,0-14.59-21.33,0-21.33h21.33C366.58,96.43,366.62,117.76,352.52,117.76Zm64,128H395.19c-14.08,0-14.59-21.33,0-21.33h21.33C430.58,224.43,430.62,245.76,416.52,245.76Zm0-42.67H395.19c-14.08,0-14.59-21.33,0-21.33h21.33C430.58,181.76,430.62,203.09,416.52,203.09Zm0-42.66H395.19c-14.08,0-14.59-21.34,0-21.34h21.33C430.58,139.09,430.62,160.43,416.52,160.43Zm0-42.67H395.19c-14.08,0-14.59-21.33,0-21.33h21.33C430.58,96.43,430.62,117.76,416.52,117.76Z"/><path d="M21.76,75.09V469.76a10.67,10.67,0,0,0,10.67,10.67H85.76V427.09a32,32,0,1,1,64,0v53.34h42.67V75.09ZM96.52,373.76H75.19c-14.08,0-14.59-21.33,0-21.33H96.52C110.58,352.43,110.62,373.76,96.52,373.76Zm0-42.67H75.19c-14.08,0-14.59-21.33,0-21.33H96.52C110.58,309.76,110.62,331.09,96.52,331.09Zm0-42.66H75.19c-14.08,0-14.59-21.34,0-21.34H96.52C110.58,267.09,110.62,288.43,96.52,288.43Zm0-42.67H75.19c-14.08,0-14.59-21.33,0-21.33H96.52C110.58,224.43,110.62,245.76,96.52,245.76Zm0-42.67H75.19c-14.08,0-14.59-21.33,0-21.33H96.52C110.58,181.76,110.62,203.09,96.52,203.09Zm0-42.66H75.19c-14.08,0-14.59-21.34,0-21.34H96.52C110.58,139.09,110.62,160.43,96.52,160.43Zm0-42.67H75.19c-14.08,0-14.59-21.33,0-21.33H96.52C110.58,96.43,110.62,117.76,96.52,117.76Zm64,256H139.19c-14.08,0-14.59-21.33,0-21.33h21.33C174.58,352.43,174.62,373.76,160.52,373.76Zm0-42.67H139.19c-14.08,0-14.59-21.33,0-21.33h21.33C174.58,309.76,174.62,331.09,160.52,331.09Zm0-42.66H139.19c-14.08,0-14.59-21.34,0-21.34h21.33C174.58,267.09,174.62,288.43,160.52,288.43Zm0-42.67H139.19c-14.08,0-14.59-21.33,0-21.33h21.33C174.58,224.43,174.62,245.76,160.52,245.76Zm0-42.67H139.19c-14.08,0-14.59-21.33,0-21.33h21.33C174.58,181.76,174.62,203.09,160.52,203.09Zm0-42.66H139.19c-14.08,0-14.59-21.34,0-21.34h21.33C174.58,139.09,174.62,160.43,160.52,160.43Zm0-42.67H139.19c-14.08,0-14.59-21.33,0-21.33h21.33C174.58,96.43,174.62,117.76,160.52,117.76Z"/></svg>