<svg id="Layer_1" data-name="Layer 1" xmlns="http://www.w3.org/2000/svg" viewBox="0 0 491.52 491.52"><defs><style>.cls-1,.cls-2,.cls-3{fill-rule:evenodd;}.cls-2{fill:#1163fb;}.cls-3{fill:#fff;}</style></defs><path class="cls-1" d="M388.47,179.33v172.5a17.22,17.22,0,0,1-1,5.85c-9.2-36-33.41-69.9-59.22-97.16a26.17,26.17,0,0,0-5.23-39c5.13-7.67,11.2-15.26,14.45-24.29s2.42-18.76-5.44-25.1c-11.47-9.27-31.55-2.93-45.2,2-9.45-15.75-21.95-23.44-41-23.44s-31.59,7.69-41,23.44c-13.65-5-33.73-11.29-45.2-2-7.86,6.34-8.68,16.11-5.44,25.1s9.32,16.62,14.45,24.29a26.17,26.17,0,0,0-5.23,39c-25.82,27.26-50,61.11-59.22,97.16a17.22,17.22,0,0,1-1-5.85V179.32L245.76,75.64Z"/><path class="cls-1" d="M64.25,278.23h12a4.17,4.17,0,0,0,3.3-6.74L48.4,231.21a4.18,4.18,0,0,0-6.62,0L10.65,271.49A4.18,4.18,0,0,0,14,278.23h12v64.43a5.49,5.49,0,0,0,5.48,5.48H58.77a5.49,5.49,0,0,0,5.48-5.48Z"/><path class="cls-1" d="M465.59,278.23h12a4.18,4.18,0,0,0,3.31-6.74l-31.13-40.28a4.18,4.18,0,0,0-6.62,0L412,271.49a4.18,4.18,0,0,0,3.31,6.74h12v64.43a5.49,5.49,0,0,0,5.48,5.48h27.36a5.49,5.49,0,0,0,5.48-5.48Z"/><path class="cls-2" d="M183.06,232.42a10.92,10.92,0,0,0,0,21.83h125.4a10.92,10.92,0,0,0,0-21.83Z"/><path class="cls-2" d="M314.91,268.73a25.91,25.91,0,0,1-6.45.81H183.06a25.91,25.91,0,0,1-6.45-.81c-48.79,50.69-85.23,117.86-41.89,174.64,19.08,25,46.15,38.39,77.61,38.39h66.86c31.45,0,58.52-13.39,77.61-38.38,43.35-56.78,6.91-123.95-41.89-174.65Z"/><path class="cls-2" d="M245.76,314a54,54,0,1,0,54,54A54,54,0,0,0,245.76,314Z"/><path class="cls-3" d="M238.12,335.93V339a19,19,0,0,0-7,4.43c-11.92,11.93-3.32,32.22,13.34,32.22H247c4.72,0,4.72,7.19,0,7.19-3,0-5,.5-6.47-1.52a7.63,7.63,0,0,0-12.36,9,19.2,19.2,0,0,0,9.93,7.05v2.75a7.64,7.64,0,1,0,15.28,0V397a19,19,0,0,0,7-4.42c11.93-11.93,3.32-32.23-13.34-32.23H244.5c-4.72,0-4.72-7.19,0-7.19,2.95,0,5-.5,6.47,1.52a7.63,7.63,0,1,0,12.36-9,19.18,19.18,0,0,0-9.93-7v-2.76a7.64,7.64,0,0,0-15.28,0Z"/><path class="cls-2" d="M183.9,217.13H307.61c1.77-2.79,4-6.12,7.13-10.54,16.36-23.34,13-31.25-26.91-16.49-16.77,6.2-9.71-24.07-42.07-24.07s-25.3,30.27-42.07,24.07c-39.95-14.76-43.27-6.86-26.91,16.49,3.09,4.42,5.36,7.75,7.12,10.54Z"/><path class="cls-1" d="M233.23,13.92,54.18,144a21,21,0,1,0,24.67,34L245.76,56.75,412.67,178a21,21,0,1,0,24.67-34L258.1,13.78a21,21,0,0,0-24.87.14Z"/></svg>