<svg id="Duo_Tone" data-name="Duo Tone" xmlns="http://www.w3.org/2000/svg" viewBox="0 0 300 300"><defs><style>.cls-1{fill:#1163fb;}</style></defs><path d="M35.63,153.86H58.76V177H35.63Z"/><path d="M35.63,205.26H58.76v23.13H35.63Z"/><path d="M241.24,205.26h23.13v23.13H241.24Z"/><path d="M241.24,153.86h23.13V177H241.24Z"/><path d="M288.79,110.16H240.37a16.71,16.71,0,0,1-1,20.41l-6.68,7.81a16.79,16.79,0,0,1-12.7,5.86c-.62,0-1.28-.05-1.9-.1V236.2a16.67,16.67,0,0,1,15.42,16.61v10.28a16.76,16.76,0,0,1,10.28,15.42v15.42a11.93,11.93,0,0,1-.67,3.85h45.65a3.87,3.87,0,0,0,3.85-3.85V109.65a15.75,15.75,0,0,1-3.85.51ZM272.08,232.24a3.89,3.89,0,0,1-3.85,3.86H237.39a3.89,3.89,0,0,1-3.86-3.86V201.4a3.89,3.89,0,0,1,3.86-3.85h30.84a3.88,3.88,0,0,1,3.85,3.85Zm0-51.4a3.89,3.89,0,0,1-3.85,3.86H237.39a3.89,3.89,0,0,1-3.86-3.86V150a3.89,3.89,0,0,1,3.86-3.86h30.84a3.89,3.89,0,0,1,3.85,3.86ZM67.29,138.38l-6.68-7.81a16.79,16.79,0,0,1-1-20.41H11.21a15.75,15.75,0,0,1-3.85-.51V293.93a3.87,3.87,0,0,0,3.85,3.85H56.86a11.93,11.93,0,0,1-.67-3.85V278.51a16.76,16.76,0,0,1,10.28-15.42V252.81A16.67,16.67,0,0,1,81.89,236.2V144.14c-.62.05-1.28.1-1.9.1A16.79,16.79,0,0,1,67.29,138.38Zm-.82,93.86a3.89,3.89,0,0,1-3.86,3.86H31.77a3.89,3.89,0,0,1-3.85-3.86V201.4a3.88,3.88,0,0,1,3.85-3.85H62.61a3.89,3.89,0,0,1,3.86,3.85Zm0-51.4a3.89,3.89,0,0,1-3.86,3.86H31.77a3.89,3.89,0,0,1-3.85-3.86V150a3.89,3.89,0,0,1,3.85-3.86H62.61A3.89,3.89,0,0,1,66.47,150Z"/><path d="M227.1,269.51H72.9a9,9,0,0,0-9,9v15.42a3.85,3.85,0,0,0,3.86,3.85H232.24a3.85,3.85,0,0,0,3.86-3.85V278.51A9,9,0,0,0,227.1,269.51Z"/><path d="M225.82,252.81v9H74.18v-9a9,9,0,0,1,9-9H216.82A9,9,0,0,1,225.82,252.81Z"/><path class="cls-1" d="M2.22,81.89H91.71L67.76,102.45H11.21a9,9,0,0,1-9-9Z"/><path class="cls-1" d="M297.78,81.89V93.46a9,9,0,0,1-9,9H232.24l-24-20.56Z"/><path class="cls-1" d="M296.45,74.18H199.24l-38.39-32.9a16.58,16.58,0,0,0-10.85-4,16.81,16.81,0,0,0-10.9,4l-38.4,32.9H3.55L30.69,10.8a14.14,14.14,0,0,1,13-8.58H256.3a14.14,14.14,0,0,1,13,8.58Z"/><path d="M123,164.14v72h54v-72Zm41.13,41.12a3.86,3.86,0,0,1-7.71,0V195a3.86,3.86,0,1,1,7.71,0Z"/><path d="M209.14,140.22,150,89.52l-59.14,50.7c-.4.33-.84.6-1.26.89v95h25.7V160.28a3.85,3.85,0,0,1,3.86-3.85h61.68a3.85,3.85,0,0,1,3.86,3.85V236.1h25.7v-95c-.42-.29-.86-.56-1.26-.89Z"/><path d="M232.55,112.89l-76.7-65.76a9,9,0,0,0-11.71,0L67.45,112.89a9,9,0,0,0-1,12.67l6.68,7.82a9,9,0,0,0,12.69,1l64.16-55,64.16,55a9,9,0,0,0,12.69-1l6.68-7.82a9,9,0,0,0-1-12.67Z"/></svg>