<svg width="1920" height="1081" viewBox="0 0 1920 1081" fill="none" xmlns="http://www.w3.org/2000/svg"><path d="M621.664 548.411L621.112 869.359C621.112 890.998 633.036 909.878 650.7 919.704C658.87 924.341 668.365 926.88 678.412 926.88L1226.02 927.763C1257.71 927.763 1283.43 902.149 1283.54 870.463L1305.84 570.492C1305.84 562.212 1302.64 552.827 1297.23 543.553C1282.11 517.387 1250.09 491.884 1226.68 491.884L679.075 491C647.388 491 621.664 516.614 621.553 548.301L621.664 548.411Z" fill="#E6E8EA" stroke="#003D2E" stroke-width="3.31216" stroke-linecap="round" stroke-linejoin="round"/><path d="M632.826 558.238L632.32 880.511C632.271 911.303 657.194 936.304 687.986 936.353L1204.02 937.163C1234.81 937.212 1259.81 912.289 1259.86 881.496L1260.37 559.224C1260.42 528.432 1235.49 503.43 1204.7 503.382L688.668 502.571C657.875 502.523 632.874 527.446 632.826 558.238Z" fill="#003B2F"/><path d="M772.918 344.272C812.491 344.272 844.571 312.192 844.571 272.619C844.571 233.046 812.491 200.966 772.918 200.966C733.345 200.966 701.265 233.046 701.265 272.619C701.265 312.192 733.345 344.272 772.918 344.272Z" fill="#00FF94"/><path d="M763.865 342.062C803.438 342.062 835.518 309.982 835.518 270.409C835.518 230.836 803.438 198.756 763.865 198.756C724.292 198.756 692.212 230.836 692.212 270.409C692.212 309.982 724.292 342.062 763.865 342.062Z" stroke="#003A2F" stroke-width="3.42256" stroke-linecap="round" stroke-linejoin="round"/><path d="M790.363 243.248C786.609 234.636 777.445 234.526 766.846 237.507L762.872 225.031L754.923 227.901L758.787 240.046C756.689 240.819 754.591 241.592 752.383 242.475L748.519 230.33L740.57 233.201L744.545 245.677C742.778 246.339 741.122 247.001 739.466 247.553L728.425 251.528L731.075 259.588C731.075 259.588 736.927 257.379 736.927 257.49C740.128 256.275 741.784 257.711 742.557 259.146L747.084 273.278C747.084 273.278 747.636 273.057 747.967 273.057C747.746 273.057 747.415 273.278 747.084 273.388L753.487 293.261C753.708 294.255 753.487 296.021 751.279 296.905C751.39 296.905 745.428 299.002 745.428 299.002L746.753 308.607L757.131 304.854C759.118 304.191 760.995 303.529 762.872 302.866L766.957 315.453L774.906 312.582L770.931 300.106C773.139 299.333 775.237 298.561 777.335 297.898L781.309 310.264L789.259 307.393L785.284 294.807C798.533 289.176 806.923 282.552 804.274 270.186C802.176 260.25 795.993 257.711 787.823 258.704C791.798 254.84 793.344 249.762 790.583 243.468L790.363 243.248ZM787.823 274.161C790.804 283.546 773.471 288.624 768.061 290.611L762.761 273.94C768.171 271.953 784.732 264.335 787.823 274.161ZM776.562 251.97C779.322 260.471 764.749 264.666 760.332 266.322L755.475 251.197C760.001 249.541 773.691 243.027 776.562 251.97Z" fill="#003C2E"/><path d="M1053.13 415.258C1110.32 386.221 1133.17 316.335 1104.13 259.145C1075.1 201.955 1005.21 179.101 948.021 208.138C890.831 237.174 867.977 307.061 897.014 364.251C926.05 421.441 995.937 444.295 1053.13 415.258Z" fill="#00FF94"/><path d="M1065.82 418.568C1123.01 389.531 1145.87 319.645 1116.83 262.455C1087.79 205.265 1017.91 182.411 960.718 211.448C903.528 240.484 880.674 310.371 909.711 367.561C938.747 424.751 1008.63 447.605 1065.82 418.568Z" stroke="#003A2F" stroke-width="3.31216" stroke-linecap="round" stroke-linejoin="round"/><path opacity="0.6" fill-rule="evenodd" clip-rule="evenodd" d="M964.361 232.427L993.508 289.838L1053.13 286.967L964.361 232.427Z" fill="#003B2F"/><path fill-rule="evenodd" clip-rule="evenodd" d="M964.361 232.427L956.081 336.208L993.508 289.838L964.361 232.427Z" fill="#003B2F"/><path opacity="0.6" fill-rule="evenodd" clip-rule="evenodd" d="M1023.43 348.684L1043.19 387.767L1057.65 295.91L1023.32 348.684H1023.43Z" fill="#003B2F"/><path fill-rule="evenodd" clip-rule="evenodd" d="M1043.19 387.767L1023.43 348.683L960.608 345.15L1043.19 387.767Z" fill="#003B2F"/><path opacity="0.2" fill-rule="evenodd" clip-rule="evenodd" d="M1018.79 339.74L1053.13 286.966L993.508 289.837L1018.79 339.74Z" fill="#003B2F"/><path opacity="0.6" fill-rule="evenodd" clip-rule="evenodd" d="M956.081 336.097L1018.9 339.63L993.619 289.727L956.191 336.097H956.081Z" fill="#003B2F"/><path d="M938.637 547.082C989.755 535.047 1021.33 483.819 1009.3 432.702C997.262 381.584 946.034 350.008 894.917 362.043C843.799 374.077 812.223 425.305 824.257 476.422C836.291 527.54 887.52 559.116 938.637 547.082Z" fill="#03FC9D"/><path d="M872.835 433.362C867.094 429.609 861.353 426.076 855.391 422.653L870.517 419.12C877.141 423.316 883.765 427.401 890.279 431.596L899.001 437.006C902.203 439.104 905.957 440.208 909.821 440.097C913.685 440.097 917.329 438.662 920.42 436.343C922.186 434.908 923.842 433.142 924.947 431.154L927.486 426.959C928.369 425.524 929.252 423.978 930.246 422.432C931.24 420.887 932.785 418.127 934.11 416.029C936.87 411.502 939.52 407.307 942.28 402.339L957.295 398.806C955.97 401.014 954.645 403.222 953.321 405.43L943.163 421.328C941.618 423.757 940.293 426.297 938.637 428.725L933.227 437.447C931.571 440.097 929.584 442.526 927.044 444.513C923.18 447.605 918.653 449.592 913.906 450.475C909.048 451.359 904.08 450.917 899.553 449.371C896.904 448.378 894.475 447.053 892.267 445.397C889.727 443.851 887.298 442.195 884.759 440.649C882.22 439.214 881.116 438.22 879.128 437.116C877.141 436.012 874.823 434.577 872.835 433.362ZM957.185 473.66L951.113 469.796C949.236 468.471 947.248 467.478 945.482 466.263L939.63 462.62C933.669 458.866 926.492 457.431 919.537 458.645C918.653 458.756 917.77 458.976 916.887 459.308C915.341 459.749 913.796 460.301 912.25 460.964C907.613 463.061 903.528 466.484 900.657 470.679C899.774 472.115 898.891 473.66 897.897 475.096C893.481 482.382 888.734 490.111 884.317 497.618C882.441 500.489 880.895 503.359 878.908 506.34L876.258 510.756L891.163 507.224C894.033 502.476 896.904 497.839 899.664 493.202C901.209 490.773 902.534 488.234 904.08 486.026L908.938 477.414C911.146 473.992 914.458 471.342 918.433 470.017C922.297 468.692 926.603 468.692 930.467 470.017C932.344 470.79 934.11 471.673 935.766 472.888C937.754 474.102 939.741 475.316 941.728 476.641C943.715 477.966 946.476 479.733 948.904 481.058L962.815 489.89L977.61 486.357C975.402 485.032 973.414 483.597 971.206 482.382C966.569 479.953 961.822 476.752 957.185 473.771V473.66Z" fill="#003B2F"/><path d="M946.365 542.111C997.483 530.077 1029.06 478.849 1017.02 427.731C1004.99 376.614 953.762 345.038 902.644 357.072C851.527 369.106 819.951 420.334 831.985 471.452C844.019 522.569 895.247 554.145 946.365 542.111Z" stroke="#003A2F" stroke-width="3.86418" stroke-linecap="round" stroke-linejoin="round"/><path d="M1113.41 569.38C1158.78 550.721 1180.42 498.831 1161.77 453.455C1143.11 408.078 1091.22 386.439 1045.84 405.097C1000.46 423.756 978.824 475.646 997.483 521.022C1016.14 566.399 1068.03 588.038 1113.41 569.38Z" fill="#03FC9D"/><path d="M1123.23 563.531C1168.61 544.872 1190.25 492.982 1171.59 447.605C1152.93 402.229 1101.04 380.589 1055.67 399.248C1010.29 417.906 988.651 469.797 1007.31 515.173C1025.97 560.55 1077.86 582.189 1123.23 563.531Z" stroke="#003A2F" stroke-width="3.53297" stroke-linecap="round" stroke-linejoin="round"/><path d="M1053.79 523.013C1054.12 522.13 1054.89 521.467 1055.78 521.026L1137.7 487.352C1139.13 486.69 1140.68 488.236 1140.02 489.671L1130.52 512.525C1130.19 513.408 1129.42 514.07 1128.53 514.512L1046.61 548.186C1046.61 548.186 1045.95 548.406 1045.62 548.186C1045.29 548.186 1044.96 547.965 1044.74 547.634C1044.52 547.413 1044.3 547.082 1044.3 546.75C1044.3 546.419 1044.3 546.088 1044.3 545.757L1053.79 522.903V523.013Z" fill="#003B2F"/><path d="M1028.4 461.406C1028.73 460.523 1029.5 459.861 1030.38 459.419L1112.3 425.745C1113.74 425.083 1115.29 426.629 1114.62 428.064L1105.13 450.918C1104.8 451.801 1104.02 452.463 1103.14 452.905L1021.22 486.579C1021.22 486.579 1020.56 486.799 1020.23 486.579C1019.9 486.579 1019.56 486.358 1019.34 486.027C1019.12 485.806 1018.9 485.475 1018.9 485.143C1018.9 484.812 1018.9 484.481 1018.9 484.15L1028.4 461.296V461.406Z" fill="#003B2F"/><path d="M1110.32 463.723C1109.43 463.392 1108.44 463.392 1107.56 463.723L1025.64 497.397C1025.64 497.397 1024.97 497.728 1024.86 498.059C1024.75 498.39 1024.53 498.721 1024.53 499.053C1024.53 499.384 1024.53 499.715 1024.86 500.046C1025.2 500.378 1025.31 500.598 1025.64 500.709L1048.49 510.204C1048.49 510.204 1049.37 510.535 1049.93 510.535C1050.37 510.535 1050.92 510.535 1051.36 510.314L1133.28 476.64C1134.72 475.978 1134.83 473.88 1133.28 473.328L1110.43 463.833L1110.32 463.723Z" fill="#003B2F"/><path d="M647.719 578.991L647.167 899.939C647.167 906.895 648.382 913.519 650.59 919.702C658.649 941.672 679.737 957.46 704.468 957.46L1252.08 958.343C1283.76 958.343 1309.49 932.729 1309.6 901.043L1310.15 580.095C1310.15 566.295 1305.29 553.598 1297.23 543.662C1286.74 530.744 1270.74 522.574 1252.85 522.574L705.24 521.691C673.554 521.691 647.83 547.305 647.719 578.991Z" fill="#E6E8EA" stroke="#003D2E" stroke-width="3.31216" stroke-linecap="round" stroke-linejoin="round"/><path d="M1198.42 729.363H713.521" stroke="#003C2E" stroke-width="3.20175" stroke-linecap="round" stroke-linejoin="round"/><path d="M713.962 702.756H998.144L1037.67 649.762" stroke="#003C2E" stroke-width="3.20175" stroke-linecap="round" stroke-linejoin="round"/><path d="M947.469 662.899H889.948L875.706 682.22H710.761" stroke="#003C2E" stroke-width="3.20175" stroke-linecap="round" stroke-linejoin="round"/><path d="M1111.86 814.597L1070.79 760.83H713.41" stroke="#003C2E" stroke-width="3.20175" stroke-linecap="round" stroke-linejoin="round"/><path d="M715.067 777.612H868.751L881.668 794.393H1020.23" stroke="#003C2E" stroke-width="3.20175" stroke-linecap="round" stroke-linejoin="round"/><path d="M954.203 670.958C949.566 670.958 945.812 667.205 945.812 662.568C945.812 657.931 949.566 654.177 954.203 654.177C958.84 654.177 962.594 657.931 962.594 662.568C962.594 667.205 958.84 670.958 954.203 670.958Z" fill="#003B2F"/><path d="M1042.09 651.416C1037.45 651.416 1033.7 647.663 1033.7 643.026C1033.7 638.389 1037.45 634.635 1042.09 634.635C1046.72 634.635 1050.48 638.389 1050.48 643.026C1050.48 647.663 1046.72 651.416 1042.09 651.416Z" fill="#003B2F"/><path d="M1205.6 737.751C1200.96 737.751 1197.21 733.998 1197.21 729.361C1197.21 724.724 1200.96 720.97 1205.6 720.97C1210.23 720.97 1213.99 724.724 1213.99 729.361C1213.99 733.998 1210.23 737.751 1205.6 737.751Z" fill="#003B2F"/><path d="M1116.72 827.402C1112.08 827.402 1108.33 823.648 1108.33 819.011C1108.33 814.374 1112.08 810.62 1116.72 810.62C1121.36 810.62 1125.11 814.374 1125.11 819.011C1125.11 823.648 1121.36 827.402 1116.72 827.402Z" fill="#003B2F"/><path d="M1027.18 802.782C1022.54 802.782 1018.79 799.028 1018.79 794.391C1018.79 789.754 1022.54 786 1027.18 786C1031.82 786 1035.57 789.754 1035.57 794.391C1035.57 799.028 1031.82 802.782 1027.18 802.782Z" fill="#003B2F"/><path d="M628.84 665.328H728.315C763.203 665.548 791.467 693.923 791.356 728.811C791.356 763.699 762.982 791.962 728.094 791.852H628.619C617.358 791.742 608.194 782.578 608.194 771.206V685.642C608.304 674.381 617.468 665.217 628.84 665.217V665.328Z" fill="#003B2F"/><path d="M681.613 742.388C687.465 758.949 704.467 768.444 721.249 765.021C722.794 764.69 724.451 764.248 725.996 763.696C728.756 762.703 731.296 761.488 733.725 759.942C735.27 758.949 736.595 757.845 737.92 756.741C743.219 751.993 746.863 745.7 748.408 738.855C749.844 732.562 749.623 725.827 747.415 719.313C743.219 707.169 732.952 698.888 721.138 696.57C715.287 695.466 708.994 695.797 702.922 697.895C702.149 698.226 701.265 698.447 700.493 698.888C698.837 699.551 697.291 700.434 695.745 701.428C691.881 703.857 688.569 707.058 685.919 710.702C679.626 719.645 677.528 731.348 681.393 742.388H681.613Z" fill="#00FF94"/><path d="M762.761 459.534V396.272" stroke="#00FF94" stroke-width="3.20175" stroke-linecap="round" stroke-linejoin="round"/><path d="M920.641 200.524V122.798" stroke="#00FF94" stroke-width="3.20175" stroke-linecap="round" stroke-linejoin="round"/><path d="M1213.99 463.178V385.453" stroke="#00FF94" stroke-width="3.20175" stroke-linecap="round" stroke-linejoin="round"/><path d="M1153.82 335.55V151.284" stroke="#00FF94" stroke-width="3.20175" stroke-linecap="round" stroke-linejoin="round"/><path d="M647.167 377.503V261.247" stroke="#00FF94" stroke-width="3.20175" stroke-linecap="round" stroke-linejoin="round"/><path d="M156.693 272.7H332.192C344.351 272.7 354.216 282.565 354.216 294.724C354.216 306.884 344.351 316.748 332.192 316.748H156.693C144.534 316.748 134.669 306.884 134.669 294.724C134.669 282.555 144.534 272.7 156.693 272.7Z" fill="#03FC9D"/><path d="M217.408 304.551H430.098C449.447 304.551 465.142 320.236 465.142 339.595C465.142 358.945 449.456 374.639 430.098 374.639H217.408C198.058 374.639 182.364 358.954 182.364 339.595C182.373 320.236 198.058 304.551 217.408 304.551Z" fill="#03FC9D"/><path d="M399.809 255.377L412.487 268.064" stroke="#003B2F" stroke-width="2.77614" stroke-miterlimit="10" stroke-linecap="round" stroke-linejoin="round"/><path d="M421.759 277.336L434.446 290.014" stroke="#003B2F" stroke-width="2.77614" stroke-miterlimit="10" stroke-linecap="round" stroke-linejoin="round"/><path d="M399.809 290.014L412.487 277.336" stroke="#003B2F" stroke-width="2.77614" stroke-miterlimit="10" stroke-linecap="round" stroke-linejoin="round"/><path d="M421.759 268.064L434.446 255.377" stroke="#003B2F" stroke-width="2.77614" stroke-miterlimit="10" stroke-linecap="round" stroke-linejoin="round"/><path d="M1531.17 704.182H1574.29" stroke="#003B2F" stroke-width="2.77614" stroke-miterlimit="10" stroke-linecap="round" stroke-linejoin="round"/><path d="M1457.34 669.74H1691.24" stroke="#03FC9D" stroke-width="2.77614" stroke-miterlimit="10" stroke-linecap="round" stroke-linejoin="round"/><path d="M1612.22 704.015H1742.59" stroke="#003B2F" stroke-width="2.77614" stroke-miterlimit="10" stroke-linecap="round" stroke-linejoin="round"/><path d="M1698.23 343.061H1642.86C1660.42 343.061 1674.64 328.848 1674.64 311.284C1674.64 293.719 1660.42 279.506 1642.86 279.506H1483.7C1466.14 279.506 1451.93 293.719 1451.93 311.284H1403.12C1385.56 311.284 1371.34 325.496 1371.34 343.061C1371.34 360.626 1385.56 374.838 1403.12 374.838H1507.3C1507.3 392.403 1521.52 406.616 1539.08 406.616H1698.23C1715.8 406.616 1730.01 392.403 1730.01 374.838C1730.01 357.274 1715.8 343.061 1698.23 343.061Z" fill="#E6E8EA"/><path d="M1445.86 363.539L1468.81 376.761" stroke="#003B2F" stroke-width="3" stroke-linecap="round" stroke-linejoin="round"/><path d="M1491.75 363.539L1478.34 371.317" stroke="#003B2F" stroke-width="3" stroke-linecap="round" stroke-linejoin="round"/><path d="M1468.81 376.761V403.593" stroke="#003B2F" stroke-width="3" stroke-linecap="round" stroke-linejoin="round"/><path d="M154.592 855.713H192.345" stroke="#003B2F" stroke-width="3" stroke-linecap="round" stroke-linejoin="round"/><path d="M241.103 797.593H514.525" stroke="#03FC9D" stroke-width="3" stroke-linecap="round" stroke-linejoin="round"/><path d="M241.103 855.508H393.964" stroke="#003B2F" stroke-width="3" stroke-linecap="round" stroke-linejoin="round"/><path d="M350.603 482.977L360.285 505.052" stroke="#003B2F" stroke-width="3" stroke-linecap="round" stroke-linejoin="round"/><path d="M367.361 521.184L377.083 543.157" stroke="#003B2F" stroke-width="3" stroke-linecap="round" stroke-linejoin="round"/><path d="M333.722 526.236L355.757 516.655" stroke="#003B2F" stroke-width="3" stroke-linecap="round" stroke-linejoin="round"/><path d="M371.889 509.58L393.964 499.897" stroke="#003B2F" stroke-width="3" stroke-linecap="round" stroke-linejoin="round"/><path d="M526.862 459.534C533.676 459.534 539.2 454.01 539.2 447.197C539.2 440.383 533.676 434.859 526.862 434.859C520.048 434.859 514.525 440.383 514.525 447.197C514.525 454.01 520.048 459.534 526.862 459.534Z" stroke="#003B2F" stroke-width="3" stroke-linecap="round" stroke-linejoin="round"/><path d="M1497.33 891.078L1531.25 871.465" stroke="#003B2F" stroke-width="3" stroke-linecap="round" stroke-linejoin="round"/><path d="M1565.01 891.078L1545.08 879.503" stroke="#003B2F" stroke-width="3" stroke-linecap="round" stroke-linejoin="round"/><path d="M1531.25 871.466V831.92" stroke="#003B2F" stroke-width="3" stroke-linecap="round" stroke-linejoin="round"/><path d="M316.593 132.861H506.081" stroke="#03FC9D" stroke-width="3.15813" stroke-miterlimit="10" stroke-linecap="round" stroke-linejoin="round"/><path d="M462.92 169.707H608.194" stroke="#003B2F" stroke-width="3.15813" stroke-miterlimit="10" stroke-linecap="round" stroke-linejoin="round"/></svg>