<svg xmlns="http://www.w3.org/2000/svg" viewBox="0 0 64 64" id="community-engagement">
  <path d="M56.22131 50.79175c3.53733-2.87467 1.38094-8.84618-3.22145-8.7917-4.60224-.05117-6.75944 5.91352-3.22104 8.79173-3.38239 1.33944-6.09684 8.68376-.77875 9.2084-.00008-.00018 7.99992-.00018 7.99992-.00018 5.31758-.52616 2.6042-7.86746-.77869-9.20825zM50 47c.10369-3.95588 5.89689-3.95508 6 .00009-.10369 3.95579-5.89689 3.95499-6-.00009zM57 58h-8c-.55127 0-1-.44873-1-1 0-2.75684 2.24316-5 5-5s5 2.24316 5 5c0 .55127-.44873 1-1 1zM25 19c0 1.6543 1.3457 3 3 3h8c1.6543 0 3-1.3457 3-3 0-2.69806-1.5368-5.04016-3.77869-6.20825 1.07874-.91785 1.77869-2.26788 1.77869-3.79175-.23367-6.61459-9.76513-6.6184-10.00001.00008 0 1.52378.69996 2.87382 1.77869 3.79166-2.24188 1.16809-3.77869 3.51019-3.77869 6.20825zM29 9c.10369-3.95588 5.89689-3.95508 6 .00009-.10369 3.95579-5.89689 3.95499-6-.00009zM32 14c2.75684 0 5 2.24316 5 5 0 .55127-.44873 1-1 1h-8c-.55127 0-1-.44873-1-1 0-2.75684 2.24316-5 5-5zM4 57c0 1.6543 1.3457 3 3 3h8c1.6543 0 3-1.3457 3-3 0-2.69806-1.5368-5.04016-3.77869-6.20825 1.07874-.91785 1.77869-2.26788 1.77869-3.79175-.23367-6.61459-9.76513-6.6184-10.00001.00008 0 1.52378.69996 2.87382 1.77869 3.79166-2.24188 1.16809-3.77869 3.51019-3.77869 6.20825zM8 47c.10369-3.95588 5.89689-3.95508 6 .00009-.10369 3.95579-5.89689 3.95499-6-.00009zM11 52c2.75684 0 5 2.24316 5 5 0 .55127-.44873 1-1 1H7c-.55127 0-1-.44873-1-1 0-2.75684 2.24316-5 5-5zM8.24854 39.43994c.606.00451 1.08589-.5506.99023-1.14991-1.55745-10.32235 4.30367-20.64133 13.99859-24.55511 1.28606-.43685.60209-2.33454-.68565-1.88091-10.58835 4.2344-16.99364 15.48247-15.29042 26.73589.07513.49506.5014.85004.98724.85004zM40.71973 13.71729c9.72004 3.90133 15.60171 14.23517 14.04145 24.57281-.17967 1.28922 1.75533 1.60609 1.9776.2997 1.71056-11.29211-4.84218-22.92284-15.66894-26.81006-1.10354-.01822-1.38139 1.57322-.3501 1.93755zM42.90723 56.38916c-.23291-.50146-.82812-.71826-1.32812-.48633-5.93506 2.7935-13.22314 2.7935-19.1582-.00002-.50098-.23289-1.0957-.01511-1.32813.48635-.23242.50098-.01465 1.0957.48633 1.32812 3.26562 1.51465 6.77148 2.28271 10.4209 2.28271s7.15527-.76807 10.4209-2.28271c.50098-.23242.71875-.82715.48633-1.32812zM19 36.92334s0 12.20557 0 12.20557c0 1.03174.83936 1.87109 1.87109 1.87109h3.25781c.81458 0 1.50195-.52643 1.7583-1.25439h14.74609c1.91748 0 3.57031-1.36719 3.9292-3.25146l1.36572-7.16797c.51474-2.38167-1.49258-4.81002-3.92925-4.74898.00005-.00005-5.04438-.00005-5.04438-.00005v-4.99121c0-2.52881-2.05713-4.58594-4.58545-4.58594-1.04443 0-1.90088.78418-1.99219 1.82422l-.67773 7.66113c-.0918 1.03955-.94824 1.82373-1.99219 1.82373h-1.81909c-.25574-.72888-.94366-1.25635-1.75903-1.25635h-3.25781c-1.03174 0-1.87109.83936-1.87109 1.87061zM21 37.05273h3v.24182c-.01515.01411.01092 6.4293-.00003 6.45107.02398 1.3134 1.97642 1.31564 2.00003-.00006 0 .00004 0-5.43648 0-5.43648h1.70703c2.08789 0 3.80078-1.56836 3.98438-3.64795l.67773-7.66113c1.42578 0 2.58545 1.16016 2.58545 2.58594v4.99121c0 1.10303.89697 2 2 2h5.04443c1.21667-.03003 2.22344 1.18306 1.96433 2.37453.00003-.00002-1.36569 7.16844-1.36569 7.16844-.1792.94189-1.00537 1.62549-1.96436 1.62549-.00025.00016-15.63307-.00012-15.6333 0-.6722-.00837-1.08542.62521-.99996 1.2544-.00004-.00001-3.00004-.00001-3.00004-.00001v-11.94727z"></path>
</svg>
