<svg xmlns="http://www.w3.org/2000/svg" id="industry-trends" viewBox="0 0 64 64">
  <path d="M55.523,28.671h-5.617c-.57,0-1.032.462-1.032,1.032v24.304h-6.128v-13.772c0-.57-.462-1.032-1.032-1.032h-5.617c-.57,0-1.032.462-1.032,1.032v13.772h-6.127v-17.458c0-.57-.462-1.032-1.032-1.032h-5.617c-.57,0-1.032.462-1.032,1.032v17.458h-6.128v-5.58c0-.57-.462-1.032-1.032-1.032h-5.617c-.57,0-1.032.462-1.032,1.032v6.612c0,.57.462,1.032,1.032,1.032h47.045c.57,0,1.032-.462,1.032-1.032v-25.337c0-.57-.462-1.032-1.032-1.032ZM9.51,49.46h3.553v4.547h-3.553v-4.547ZM23.319,54.008v-16.426h3.553v16.426h-3.553ZM37.128,54.008v-12.739h3.553v12.739h-3.553ZM50.937,54.008v-23.272h3.553v23.272h-3.553Z" style="stroke-width:0"></path>
  <path d="M60.071,7.928c-2.166,0-3.928,1.762-3.928,3.928,0,.96.359,1.828.933,2.512l-2.231,3.228c-.4-.138-.822-.228-1.268-.228-2.166,0-3.928,1.762-3.928,3.928,0,.462.095.899.242,1.311l-8.693,6.036c-.679-.559-1.536-.909-2.482-.909-1.229,0-2.314.579-3.035,1.464l-6.907-2.986c.031-.199.061-.399.061-.606,0-2.166-1.762-3.929-3.928-3.929s-3.929,1.763-3.929,3.929c0,.43.087.836.215,1.224l-7.552,4.832c-.698-.635-1.616-1.032-2.631-1.032-2.166,0-3.929,1.763-3.929,3.929,0,.418.083.814.205,1.193-.031.026-.066.047-.094.077L.287,43.035c-.394.412-.381,1.065.031,1.46.2.192.457.287.714.287.272,0,.543-.106.745-.318l6.661-6.954c.691.602,1.582.98,2.568.98,2.166,0,3.928-1.763,3.928-3.929,0-.404-.079-.786-.193-1.153l7.588-4.855c.691.605,1.585.984,2.573.984,1.218,0,2.294-.569,3.015-1.441l6.924,2.992c-.028.19-.058.379-.058.576,0,2.166,1.763,3.929,3.929,3.929s3.928-1.763,3.928-3.929c0-.472-.097-.918-.25-1.337l8.681-6.027c.682.569,1.547.926,2.503.926,2.166,0,3.929-1.763,3.929-3.929,0-.972-.368-1.851-.955-2.538l2.22-3.212c.409.145.843.239,1.301.239,2.166,0,3.929-1.763,3.929-3.929s-1.763-3.928-3.929-3.928ZM11.007,36.424c-.642,0-1.209-.326-1.545-.821-.005-.009-.005-.018-.01-.027-.003-.005-.008-.007-.011-.011-.187-.291-.299-.634-.299-1.005,0-1.028.836-1.864,1.864-1.864s1.864.836,1.864,1.864-.836,1.864-1.864,1.864ZM24.904,27.471c-1.028,0-1.864-.836-1.864-1.864s.836-1.864,1.864-1.864,1.864.836,1.864,1.864-.836,1.864-1.864,1.864ZM38.714,33.528c-1.028,0-1.864-.836-1.864-1.864,0-.263.056-.513.155-.74.004-.008.01-.013.013-.021,0-.002,0-.003.001-.005.293-.646.941-1.098,1.696-1.098,1.028,0,1.864.836,1.864,1.864s-.836,1.864-1.864,1.864ZM53.576,23.161c-1.028,0-1.864-.836-1.864-1.864s.836-1.864,1.864-1.864c.38,0,.733.115,1.028.311.003.002.004.005.007.007.005.004.011.005.016.008.491.336.814.9.814,1.538,0,1.028-.836,1.864-1.864,1.864ZM60.071,13.721c-.377,0-.727-.114-1.02-.307-.014-.011-.021-.027-.036-.037-.011-.007-.023-.008-.034-.015-.467-.339-.774-.886-.774-1.506,0-1.028.836-1.864,1.864-1.864s1.864.836,1.864,1.864-.836,1.864-1.864,1.864Z" style="stroke-width:0"></path>
</svg>
