<svg xmlns="http://www.w3.org/2000/svg" enable-background="new 0 0 48 48" viewBox="0 0 48 48" id="use-case">
  <path d="M41,31.25h-4.25V29c0-1.52002-1.22998-2.75-2.75-2.75h-9.25v-1.5H32c2.07001,0,3.75-1.67999,3.75-3.75v-8
	c0-0.41003-0.34003-0.75-0.75-0.75h-1.25V9c0-0.41003-0.34003-0.75-0.75-0.75H21.40002L19.62,5.57996
	C19.48999,5.38,19.25,5.25,19,5.25h-6c-0.40997,0-0.75,0.33997-0.75,0.75v15c0,2.07001,1.67999,3.75,3.75,3.75h7.25v1.5H14
	c-1.52002,0-2.75,1.22998-2.75,2.75v0.25H7c-0.96002,0-1.75,0.78998-1.75,1.75v10c0,0.95996,0.78998,1.75,1.75,1.75h14
	c0.96002,0,1.75-0.79004,1.75-1.75v-8c0-0.96002-0.78998-1.75-1.75-1.75h-6.69l-1.56-1.56V29c0-0.69,0.56-1.25,1.25-1.25h20
	c0.69,0,1.25,0.56,1.25,1.25v2.25h-0.94l-1.77997-1.78003C32.39001,29.32996,32.20001,29.25,32,29.25h-5
	c-0.96002,0-1.75,0.78998-1.75,1.75v10c0,0.95996,0.78998,1.75,1.75,1.75h14c0.96002,0,1.75-0.79004,1.75-1.75v-8
	C42.75,32.03998,41.96002,31.25,41,31.25z M21.25,41c0,0.14001-0.10999,0.25-0.25,0.25H7c-0.14001,0-0.25-0.10999-0.25-0.25v-1.25
	h14.5V41z M13.46997,32.52997C13.60999,32.66998,13.79999,32.75,14,32.75h7c0.14001,0,0.25,0.10999,0.25,0.25v5.25H6.75V31
	c0-0.14001,0.10999-0.25,0.25-0.25h4.69L13.46997,32.52997z M18.25,13v8c0,1.23999-1.01001,2.25-2.25,2.25s-2.25-1.01001-2.25-2.25
	V6.75h4.84998L20.38,9.41998C20.51001,9.62,20.75,9.75,21,9.75h11.25v2.5H19C18.59003,12.25,18.25,12.58997,18.25,13z
	 M18.97998,23.25C19.46002,22.62,19.75,21.84998,19.75,21v-7.25h14.5V21c0,1.23999-1.01001,2.25-2.25,2.25H18.97998z M41.25,41
	c0,0.14001-0.10999,0.25-0.25,0.25H27c-0.14001,0-0.25-0.10999-0.25-0.25v-1.25h14.5V41z M41.25,38.25h-14.5V31
	c0-0.14001,0.10999-0.25,0.25-0.25h4.69l1.77997,1.77997C33.60999,32.66998,33.79999,32.75,34,32.75h7
	c0.14001,0,0.25,0.10999,0.25,0.25V38.25z"></path>
</svg>
