<svg width="17" height="16" viewBox="0 0 17 16" fill="none" xmlns="http://www.w3.org/2000/svg">
<path d="M11.3438 7.99986C11.3438 8.64431 11.3136 9.26931 11.2533 9.87486H5.62167C5.56139 9.26931 5.53125 8.64431 5.53125 7.99986C5.53125 7.35542 5.56139 6.73042 5.62167 6.12486H11.2533C11.3136 6.73042 11.3438 7.35542 11.3438 7.99986ZM12.2221 6.12486H15.9464C16.1071 6.73042 16.1875 7.35542 16.1875 7.99986C16.1875 8.64431 16.1071 9.26931 15.9464 9.87486H12.2221C12.2824 9.26931 12.3125 8.64431 12.3125 7.99986C12.3125 7.35542 12.2824 6.73042 12.2221 6.12486ZM15.6127 5.18736H12.1015C11.7786 3.27347 11.2131 1.78945 10.4051 0.735278C11.6164 1.06722 12.6763 1.61375 13.5848 2.37486C14.4717 3.15681 15.1477 4.09431 15.6127 5.18736ZM11.1026 5.18736H5.77451C5.95535 4.11375 6.22731 3.18597 6.59042 2.40403C6.91333 1.7207 7.2463 1.22278 7.58931 0.910278C7.93231 0.617223 8.21505 0.480417 8.4375 0.499862C8.65995 0.480417 8.94269 0.617223 9.28569 0.910278C9.6287 1.22278 9.96167 1.7207 10.2846 2.40403C10.6477 3.18597 10.9204 4.11375 11.1026 5.18736ZM4.77347 5.18736H1.26229C1.72729 4.09431 2.40326 3.15681 3.29021 2.37486C4.19868 1.61375 5.25856 1.06722 6.46986 0.735278C5.66185 1.78945 5.09639 3.27347 4.77347 5.18736ZM0.930764 6.12486H4.65292C4.59264 6.73042 4.5625 7.35542 4.5625 7.99986C4.5625 8.64431 4.59264 9.26931 4.65292 9.87486H0.930764C0.768588 9.26931 0.6875 8.64431 0.6875 7.99986C0.6875 7.35542 0.768588 6.73042 0.930764 6.12486ZM6.59042 13.5957C6.22731 12.8138 5.95535 11.886 5.77451 10.8124H11.1026C10.9204 11.886 10.6477 12.8138 10.2846 13.5957C9.96167 14.279 9.6287 14.7769 9.28569 15.0894C8.94269 15.3825 8.65995 15.5193 8.4375 15.4999C8.21505 15.5193 7.93231 15.3825 7.58931 15.0894C7.2463 14.7769 6.91333 14.279 6.59042 13.5957ZM4.77347 10.8124C5.09639 12.7263 5.66185 14.211 6.46986 15.2665C5.25856 14.9332 4.19868 14.386 3.29021 13.6249C2.40326 12.8443 1.72729 11.9068 1.26229 10.8124H4.77347ZM15.6127 10.8124C15.1477 11.9068 14.4717 12.8443 13.5848 13.6249C12.6763 14.386 11.6265 14.9332 10.4353 15.2665C11.2232 14.211 11.7786 12.7263 12.1015 10.8124H15.6127Z" fill="black"/>
</svg>
