<svg width="32" height="32" viewBox="0 0 32 32" fill="none" xmlns="http://www.w3.org/2000/svg">
<g clip-path="url(#clip0_849_5687)">
<path fill-rule="evenodd" clip-rule="evenodd" d="M26.0466 10.0466C26.0466 7.7858 24.2145 5.95361 21.9536 5.95361H10.0466C7.7858 5.95361 5.95361 7.7858 5.95361 10.0466V21.9536C5.95361 24.2144 7.7858 26.0466 10.0466 26.0466H21.9536C24.2145 26.0466 26.0466 24.2144 26.0466 21.9536V10.0466ZM18.9769 13.0234V18.9768C18.9769 19.593 19.477 20.0931 20.0931 20.0931C20.7093 20.0931 21.2094 19.593 21.2094 18.9768V13.0234C21.2094 12.4072 20.7093 11.9071 20.0931 11.9071C19.477 11.9071 18.9769 12.4072 18.9769 13.0234ZM17.4885 18.9768V14.5117C17.4885 13.074 16.3231 11.9071 14.8838 11.9071H13.3955C11.9562 11.9071 10.7908 13.074 10.7908 14.5117V18.9768C10.7908 19.593 11.2909 20.0931 11.9071 20.0931C12.5233 20.0931 13.0234 19.593 13.0234 18.9768V17.8606H15.2559V18.9768C15.2559 19.593 15.756 20.0931 16.3722 20.0931C16.9884 20.0931 17.4885 19.593 17.4885 18.9768ZM13.0234 15.628H15.2559V14.5117C15.2559 14.3063 15.0892 14.1396 14.8838 14.1396H13.3955C13.1901 14.1396 13.0234 14.3063 13.0234 14.5117V15.628Z" fill="black"/>
<path fill-rule="evenodd" clip-rule="evenodd" d="M24.9302 17.1164H30.8837C31.4999 17.1164 32 16.6163 32 16.0001C32 15.3839 31.4999 14.8838 30.8837 14.8838H24.9302C24.3141 14.8838 23.814 15.3839 23.814 16.0001C23.814 16.6163 24.3141 17.1164 24.9302 17.1164Z" fill="black"/>
<path fill-rule="evenodd" clip-rule="evenodd" d="M17.1163 7.06977V1.11628C17.1163 0.500093 16.6163 0 16.0001 0C15.3839 0 14.8838 0.500093 14.8838 1.11628V7.06977C14.8838 7.68595 15.3839 8.18605 16.0001 8.18605C16.6163 8.18605 17.1163 7.68595 17.1163 7.06977Z" fill="black"/>
<path fill-rule="evenodd" clip-rule="evenodd" d="M14.8838 24.9303V30.8838C14.8838 31.5 15.3839 32.0001 16.0001 32.0001C16.6163 32.0001 17.1163 31.5 17.1163 30.8838V24.9303C17.1163 24.3141 16.6163 23.814 16.0001 23.814C15.3839 23.814 14.8838 24.3141 14.8838 24.9303Z" fill="black"/>
<path fill-rule="evenodd" clip-rule="evenodd" d="M7.06977 14.8838H1.11628C0.500093 14.8838 0 15.3839 0 16.0001C0 16.6163 0.500093 17.1164 1.11628 17.1164H7.06977C7.68595 17.1164 8.18605 16.6163 8.18605 16.0001C8.18605 15.3839 7.68595 14.8838 7.06977 14.8838Z" fill="black"/>
<path fill-rule="evenodd" clip-rule="evenodd" d="M24.9302 12.6511H28.6512C29.2674 12.6511 29.7675 12.151 29.7675 11.5348C29.7675 10.9186 29.2674 10.4185 28.6512 10.4185H24.9302C24.3141 10.4185 23.814 10.9186 23.814 11.5348C23.814 12.151 24.3141 12.6511 24.9302 12.6511Z" fill="black"/>
<path fill-rule="evenodd" clip-rule="evenodd" d="M12.651 7.06963V3.3487C12.651 2.73251 12.1509 2.23242 11.5347 2.23242C10.9186 2.23242 10.4185 2.73251 10.4185 3.3487V7.06963C10.4185 7.68581 10.9186 8.18591 11.5347 8.18591C12.1509 8.18591 12.651 7.68581 12.651 7.06963Z" fill="black"/>
<path fill-rule="evenodd" clip-rule="evenodd" d="M10.4185 24.9303V28.6513C10.4185 29.2674 10.9186 29.7675 11.5347 29.7675C12.1509 29.7675 12.651 29.2674 12.651 28.6513V24.9303C12.651 24.3141 12.1509 23.814 11.5347 23.814C10.9186 23.814 10.4185 24.3141 10.4185 24.9303Z" fill="black"/>
<path fill-rule="evenodd" clip-rule="evenodd" d="M7.06963 10.4185H3.3487C2.73251 10.4185 2.23242 10.9186 2.23242 11.5348C2.23242 12.151 2.73251 12.6511 3.3487 12.6511H7.06963C7.68582 12.6511 8.18591 12.151 8.18591 11.5348C8.18591 10.9186 7.68582 10.4185 7.06963 10.4185Z" fill="black"/>
<path fill-rule="evenodd" clip-rule="evenodd" d="M24.9302 21.5812H28.6512C29.2674 21.5812 29.7675 21.0811 29.7675 20.4649C29.7675 19.8487 29.2674 19.3486 28.6512 19.3486H24.9302C24.3141 19.3486 23.814 19.8487 23.814 20.4649C23.814 21.0811 24.3141 21.5812 24.9302 21.5812Z" fill="black"/>
<path fill-rule="evenodd" clip-rule="evenodd" d="M21.5812 7.06963V3.3487C21.5812 2.73251 21.0811 2.23242 20.4649 2.23242C19.8487 2.23242 19.3486 2.73251 19.3486 3.3487V7.06963C19.3486 7.68581 19.8487 8.18591 20.4649 8.18591C21.0811 8.18591 21.5812 7.68581 21.5812 7.06963Z" fill="black"/>
<path fill-rule="evenodd" clip-rule="evenodd" d="M19.3486 24.9303V28.6513C19.3486 29.2674 19.8487 29.7675 20.4649 29.7675C21.0811 29.7675 21.5812 29.2674 21.5812 28.6513V24.9303C21.5812 24.3141 21.0811 23.814 20.4649 23.814C19.8487 23.814 19.3486 24.3141 19.3486 24.9303Z" fill="black"/>
<path fill-rule="evenodd" clip-rule="evenodd" d="M7.06963 19.3486H3.3487C2.73251 19.3486 2.23242 19.8487 2.23242 20.4649C2.23242 21.0811 2.73251 21.5812 3.3487 21.5812H7.06963C7.68582 21.5812 8.18591 21.0811 8.18591 20.4649C8.18591 19.8487 7.68582 19.3486 7.06963 19.3486Z" fill="black"/>
</g>
<defs>
<clipPath id="clip0_849_5687">
<rect width="32" height="32" fill="white"/>
</clipPath>
</defs>
</svg>
