<?xml version="1.0" encoding="UTF-8"?>
<svg id="Layer_1" data-name="Layer 1" xmlns="http://www.w3.org/2000/svg" xmlns:xlink="http://www.w3.org/1999/xlink" viewBox="0 0 80 80">
  <defs>
    <style>
      .cls-1, .cls-2 {
        fill: none;
      }

      .cls-3, .cls-4 {
        fill: #4385f4;
      }

      .cls-5 {
        fill: #f8b64c;
      }

      .cls-2 {
        stroke: #4385f4;
        stroke-dasharray: 3 3;
        stroke-miterlimit: 10;
        stroke-width: 2px;
      }

      .cls-6 {
        fill: #f1543f;
      }

      .cls-7 {
        fill: #ffa829;
      }

      .cls-8 {
        fill: #3d597a;
      }

      .cls-9, .cls-4 {
        isolation: isolate;
      }

      .cls-10 {
        clip-path: url(#clippath-1);
      }

      .cls-11 {
        fill: #ffc952;
      }

      .cls-12 {
        fill: #fff;
      }

      .cls-13 {
        fill: #ff7058;
      }

      .cls-14, .cls-4 {
        opacity: .5;
      }

      .cls-15 {
        clip-path: url(#clippath);
      }

      .cls-16 {
        fill: #ffd15c;
      }

      .cls-17 {
        fill: #2c72c6;
      }
    </style>
    <clipPath id="clippath">
      <path class="cls-1" d="M41.92,38.9c-.35.18-.7.35-1.07.49l-.22.04-.22-.09c-.36-.15-.72-.31-1.07-.49l.58-1.33h1.37l.62,1.37Z"/>
    </clipPath>
    <clipPath id="clippath-1">
      <rect class="cls-1" x="33.72" y="23.93" width="13.8" height=".66"/>
    </clipPath>
  </defs>
  <ellipse class="cls-12" cx="40.08" cy="40" rx="33.69" ry="33.63"/>
  <path class="cls-3" d="M40.08,7.11c18.18.01,32.9,14.76,32.89,32.94-.01,18.18-14.76,32.9-32.94,32.89-18.18-.01-32.9-14.76-32.89-32.94,0-8.73,3.48-17.09,9.65-23.26,6.17-6.19,14.56-9.66,23.3-9.64M40.09,5.62C21.07,5.62,5.66,21.01,5.66,39.98s15.41,34.4,34.42,34.4,34.43-15.39,34.43-34.36S59.09,5.63,40.08,5.63h0Z"/>
  <path class="cls-2" d="M40.05,71.87c17.61,0,31.89-14.26,31.89-31.84s-14.28-31.84-31.89-31.84-31.89,14.26-31.89,31.84,14.28,31.84,31.89,31.84"/>
  <polygon class="cls-13" points="42.59 40.32 38.68 40.32 39.35 38.9 39.93 37.57 41.35 37.57 41.92 38.9 42.59 40.32"/>
  <path class="cls-16" d="M45.07,40.32h-8.87c-.49,0-.88.4-.89.88v2.88h10.61v-2.88c.03-.46-.31-.85-.77-.88-.03,0-.05,0-.08,0"/>
  <g class="cls-15">
    <rect class="cls-6" x="38.12" y="36.29" width="5.05" height="4.38"/>
  </g>
  <path class="cls-5" d="M47.56,22.82h-13.84c-.29,0-.53.24-.53.53-.01.3.22.56.53.58,0,0,0,0,0,0h13.84c.29,0,.53-.24.53-.53.01-.3-.22-.56-.53-.58,0,0,0,0,0,0ZM29.99,25.26v1.82c.01,4.31,2.62,8.19,6.61,9.84,2.59,1.06,5.49,1.06,8.08,0,3.99-1.64,6.6-5.52,6.61-9.84v-1.82h-21.3ZM49.52,27.07c0,2.06-.72,4.05-2.04,5.63-1.69,2.04-4.19,3.22-6.83,3.23-2.65,0-5.16-1.18-6.83-3.23-1.31-1.58-2.03-3.57-2.04-5.63v-.04h17.71v.04h.04Z"/>
  <path class="cls-16" d="M47.56,23.93v4.78c0,4.46-2.76,8.46-6.92,10.06-4.17-1.62-6.91-5.63-6.92-10.1v-4.74h13.84Z"/>
  <g class="cls-10">
    <rect class="cls-11" x="32.48" y="22.69" width="16.27" height="3.14"/>
  </g>
  <path class="cls-12" d="M40.03,28.97s-.4-.04-.4.31v1.56h2.62v.47c0,.12-.09.23-.21.24-.01,0-.02,0-.03,0h-2.37v2.03h2.87s1.73-.26,1.75-2.03v-2.57h-4.22ZM44.09,26.45h-5.1c-1.85.44-1.89,1.98-1.89,1.98v5.16h1.98v-4.7c0-.23.15-.43.38-.48h4.63v-1.96Z"/>
  <path class="cls-1" d="M56.75,64.7l.03-.02s0,0-.03.02ZM60.31,61.46l.02-.02-.02.02ZM63.56,57.57v-.02s0,.02,0,.02ZM67.45,49.46h0ZM68.42,45.26h0s0,0,0,0h0ZM68.42,40.74s0-.02,0-.01,0,0,0,.02h0ZM68.1,36.53v-.02s0,.01,0,.03h0ZM67.12,32.63h0s0,0,0,0ZM65.83,28.43h0ZM39.56,65.87c-2.45.11-4.9-.18-7.26-.86.84-1.09-.55-2.17-1.88-3.21-1.4-1.04-2.8-2.07-2.8-2.08s1.65,1.69,1.48,3.14c-.05.33-.04.66.03.99-.38-.17-.76-.36-1.12-.55.99-.93-.13-2.27-1.2-3.54-1.13-1.28-2.26-2.54-2.26-2.54s1.25,1.96.83,3.38c-.11.32-.16.65-.15.99-.33-.25-.66-.48-.97-.74,1.1-.78.3-2.3-.49-3.74-.84-1.46-1.7-2.87-1.7-2.87s.84,2.13.18,3.49c-.17.3-.28.63-.33.96-.27-.29-.54-.58-.8-.88,1.18-.61.72-2.24.22-3.79-.56-1.57-1.15-3.05-1.15-3.07-.03,0,.44,2.21-.44,3.46-.21.27-.38.58-.49.91-.21-.33-.42-.66-.62-.99,1.26-.44,1.1-2.11.87-3.71-.27-1.62-.61-3.15-.61-3.16s.07,2.22-1.01,3.34c-.25.25-.45.54-.61.86-.1-.22-.2-.45-.29-.68-.07-.18-.14-.35-.21-.53,1.26-.25,1.38-1.82,1.41-3.33,0-1.54-.09-2.99-.1-3.01s-.25,2.07-1.44,2.97c-.28.19-.52.43-.73.7-.12-.48-.25-.95-.33-1.44,1.25-.03,1.59-1.5,1.84-2.9s.33-2.78.31-2.8-.51,1.88-1.75,2.55c-.3.15-.56.34-.8.57-.06-.54-.1-1.09-.13-1.63,1.2.14,1.72-1.16,2.13-2.44.26-.84.47-1.69.64-2.55-.02,0-.7,1.68-1.96,2.14-.3.1-.58.25-.84.44.01-.49.04-.97.07-1.45,0-.11.02-.22.03-.34,1.09.3,1.76-.86,2.28-1.98s.88-2.31.88-2.31-.84,1.48-2.06,1.75c-.29.05-.56.15-.82.29.1-.63.22-1.26.36-1.89.95.39,1.71-.6,2.3-1.57.4-.68.75-1.38,1.07-2.09,0,0-.94,1.32-2.1,1.41-.25,0-.5.06-.74.14.19-.66.4-1.31.63-1.95.81.41,1.58-.4,2.22-1.24.45-.61.86-1.25,1.24-1.91,0,0-1.02,1.16-2.09,1.09-.2-.02-.4,0-.59.03.26-.63.54-1.27.84-1.9l.05-.12c.67.41,1.45-.25,2.11-.99.49-.56.95-1.15,1.38-1.76-.01,0-1.1,1.09-2.06.89-.2-.04-.41-.06-.61-.03.66-1.41,1.4-2.78,2.22-4.11-.93,1.37-1.75,2.71-2.48,4.04-.09-.24-.21-.47-.36-.67-.31-.41-.31-1.06-.21-1.64.07-.35.18-.7.31-1.03-.49.8-.89,1.65-1.18,2.54-.38,1.25-.37,2.44.49,2.59-.35.69-.66,1.39-.96,2.08-.12-.19-.27-.37-.43-.53-.4-.37-.49-1.04-.48-1.62.02-.36.07-.72.16-1.07-.4.85-.69,1.75-.87,2.68-.21,1.27-.05,2.45.83,2.55-.22.64-.43,1.27-.62,1.91-.15-.16-.31-.3-.49-.43-.95-.63-.76-2.52-.74-2.66-.3.91-.48,1.86-.54,2.82-.05,1.31.26,2.5,1.19,2.51h0c-.13.6-.24,1.19-.33,1.78-.17-.14-.37-.26-.57-.36-1.1-.51-1.15-2.49-1.13-2.64-.2.98-.26,1.99-.19,2.99.12,1.37.62,2.57,1.6,2.45-.04.55-.08,1.1-.09,1.65-.21-.13-.43-.23-.66-.3-1.19-.36-1.53-2.32-1.55-2.57-.07,1.05,0,2.11.2,3.14.3,1.41,1.04,2.65,2.04,2.34.03.49.07,1.01.12,1.52-.25-.12-.51-.2-.78-.25-1.32-.22-1.95-2.29-1.98-2.49.07,1.12.29,2.23.66,3.29.52,1.48,1.51,2.7,2.53,2.16.1.46.21.92.33,1.38-.29-.1-.6-.15-.9-.16-1.44-.04-2.42-2.22-2.45-2.35.23,1.18.64,2.32,1.2,3.39.79,1.51,2.05,2.69,3.05,1.89.15.41.32.81.49,1.21-.33-.07-.67-.08-1.01-.05-1.53.17-2.93-2.05-2.95-2.13.43,1.22,1.05,2.37,1.82,3.41,1.1,1.48,2.64,2.55,3.54,1.51.2.34.41.67.62.99-.34-.02-.68.01-1.01.09-1.53.39-3.32-1.7-3.29-1.73.63,1.17,1.43,2.24,2.39,3.17,1.35,1.32,3.09,2.16,3.81.99.25.3.53.6.81.89-.35.03-.69.11-1.01.25-1.39.59-3.41-1.02-3.58-1.21.83,1.06,1.82,1.99,2.92,2.76,1.63,1.12,3.51,1.64,4.04.41.32.26.65.51.99.75-.35.08-.68.21-.99.39-1.31.77-3.61-.49-3.85-.66,1.04.92,2.2,1.68,3.46,2.26,1.86.84,3.87,1.02,4.19-.25.38.2.76.39,1.15.56-.33.14-.64.32-.92.54-1.18.97-3.75.13-4.04,0,1.22.73,2.55,1.27,3.93,1.61,2.04.49,4.14.31,4.23-.96,2.39.7,4.87.99,7.35.87l.06-.41Z"/>
  <path class="cls-4" d="M24,64.55l-.03-.02s0,0,.03.02ZM20.2,61.47l-.02-.02s0,0,.02.02ZM17.1,57.82v-.02s0,.02,0,.02ZM13.05,49.51h0ZM12.27,45.21h0ZM12.11,40.9h0s0,0,0,0h0ZM12.5,36.64s0-.03,0-.02,0,.01,0,.03h0ZM13.4,32.44h0ZM14.77,28.33h0s0,0,0,0Z"/>
  <g class="cls-14">
    <path class="cls-3" d="M39.45,65.68c-2.43.11-4.86-.18-7.2-.86.84-1.08-.54-2.16-1.87-3.2l-2.77-2.07s1.63,1.68,1.48,3.12c-.05.33-.04.66.03.99-.38-.18-.74-.36-1.12-.55.97-.93-.13-2.27-1.19-3.53-1.12-1.28-2.24-2.53-2.25-2.53s1.24,1.95.83,3.37c-.11.32-.16.65-.15.99-.33-.25-.65-.48-.96-.74,1.09-.77.3-2.29-.49-3.72-.83-1.45-1.69-2.86-1.69-2.86s.84,2.12.18,3.48c-.16.3-.27.63-.32.96-.27-.29-.54-.58-.79-.88,1.17-.6.71-2.22.22-3.77-.55-1.57-1.14-3.04-1.14-3.06s.44,2.2-.44,3.46c-.21.27-.38.58-.49.91-.21-.33-.41-.66-.61-.99,1.24-.44,1.09-2.11.87-3.69-.27-1.62-.6-3.14-.6-3.16s.07,2.22-1,3.33c-.25.24-.46.52-.63.83-.1-.22-.19-.45-.28-.68-.07-.18-.14-.35-.2-.53,1.25-.23,1.36-1.82,1.4-3.32,0-1.54-.09-2.99-.1-3s-.25,2.06-1.43,2.97c-.28.19-.52.43-.72.7-.12-.47-.25-.95-.33-1.43,1.24-.03,1.58-1.48,1.82-2.89s.33-2.79.32-2.79-.49,1.87-1.73,2.54c-.29.15-.56.34-.79.57-.06-.54-.1-1.08-.13-1.62,1.19.14,1.7-1.16,2.11-2.43.25-.84.47-1.69.63-2.55-.01,0-.69,1.68-1.94,2.14-.3.1-.58.24-.83.44.01-.48.04-.96.07-1.44,0-.11.02-.23.03-.34,1.08.3,1.75-.86,2.26-1.98s.88-2.3.88-2.3-.83,1.48-2.05,1.75c-.29.05-.56.14-.82.28.1-.63.22-1.26.36-1.88.94.38,1.69-.59,2.28-1.57.39-.68.75-1.37,1.07-2.09,0,0-.93,1.32-2.08,1.41-.25.01-.49.06-.72.14.19-.65.4-1.3.62-1.95.8.41,1.57-.4,2.2-1.24.44-.61.85-1.25,1.22-1.9,0,0-1.01,1.19-2.07,1.12-.2-.02-.39,0-.59.03.26-.63.54-1.26.84-1.89l.05-.12c.66.41,1.43-.25,2.09-.99.49-.56.95-1.15,1.37-1.76,0,0-1.09,1.08-2.04.89-.19-.05-.4-.06-.6-.04.66-1.41,1.4-2.77,2.22-4.09-.93,1.36-1.75,2.69-2.47,4.02-.09-.24-.21-.46-.36-.67-.3-.41-.31-1.07-.2-1.64.07-.35.17-.7.31-1.03-.49.79-.88,1.64-1.17,2.53-.38,1.25-.37,2.43.49,2.58-.34.69-.66,1.39-.95,2.08-.12-.19-.26-.37-.43-.53-.39-.37-.49-1.04-.48-1.61.02-.36.07-.72.16-1.06-.4.85-.69,1.75-.86,2.67-.21,1.27-.05,2.45.82,2.54-.22.64-.43,1.27-.61,1.91-.15-.16-.31-.3-.49-.43-.95-.61-.77-2.51-.73-2.66-.3.91-.48,1.86-.54,2.82-.05,1.31.26,2.49,1.18,2.5h0c-.12.6-.23,1.18-.33,1.77-.18-.14-.37-.25-.57-.35-1.09-.49-1.14-2.47-1.12-2.63-.2.98-.26,1.98-.19,2.98.12,1.36.61,2.57,1.58,2.44-.04.55-.08,1.1-.09,1.65-.21-.13-.43-.23-.66-.3-1.18-.36-1.52-2.31-1.54-2.56-.07,1.04,0,2.09.2,3.12.29,1.41,1.03,2.65,2.02,2.34.03.5.07,1.01.12,1.51-.24-.12-.5-.2-.77-.25-1.31-.22-1.94-2.28-1.98-2.47.07,1.12.29,2.22.66,3.28.52,1.47,1.5,2.69,2.51,2.16.1.46.2.92.32,1.38-.29-.1-.59-.15-.9-.16-1.43-.04-2.4-2.21-2.43-2.34.24,1.18.64,2.32,1.19,3.38.79,1.5,2.04,2.68,3.02,1.88.15.41.32.81.49,1.2-.33-.07-.67-.08-1-.05-1.52.17-2.9-2.04-2.92-2.12.43,1.21,1.04,2.36,1.8,3.39,1.09,1.48,2.62,2.55,3.51,1.51.2.33.4.66.62.99-.34-.02-.68.01-1.01.09-1.52.39-3.29-1.7-3.26-1.73.62,1.16,1.42,2.22,2.36,3.14,1.34,1.32,3.06,2.16,3.78.99.25.3.53.6.8.89-.34.03-.67.11-.99.23-1.4.6-3.38-1-3.57-1.2.83,1.06,1.81,1.99,2.91,2.76,1.61,1.12,3.48,1.63,4,.4.32.26.65.51.99.74-.35.08-.68.21-.99.39-1.3.77-3.58-.48-3.82-.65,1.03.91,2.18,1.67,3.43,2.25,1.84.84,3.84,1.02,4.15-.25.37.2.74.38,1.14.56-.33.14-.64.32-.92.54-1.17.97-3.71.13-4,0,1.22.73,2.54,1.28,3.92,1.62,2.02.49,4.1.31,4.2-.96,2.37.69,4.83.99,7.29.87l.03-.41Z"/>
  </g>
  <path class="cls-1" d="M41.19,65.68c2.43.11,4.86-.18,7.2-.86-.84-1.08.55-2.16,1.87-3.2l2.77-2.07s-1.63,1.68-1.48,3.12c.05.33.04.66-.03.99.38-.18.74-.36,1.12-.55-.97-.93.13-2.27,1.19-3.53,1.12-1.28,2.25-2.53,2.25-2.53s-1.24,1.95-.83,3.37c.11.32.16.65.15.99.33-.25.65-.48.96-.74-1.09-.77-.3-2.29.48-3.72.83-1.45,1.69-2.86,1.69-2.86s-.84,2.12-.18,3.48c.16.3.27.63.32.96.27-.29.54-.58.79-.88-1.17-.6-.71-2.22-.22-3.77.55-1.57,1.14-3.04,1.14-3.06s-.44,2.2.44,3.46c.21.27.37.58.48.91.21-.33.42-.66.61-.99-1.24-.44-1.09-2.11-.87-3.69.27-1.62.6-3.14.6-3.16s-.07,2.22,1,3.33c.25.24.46.52.63.83.1-.22.19-.45.28-.68.07-.18.14-.35.2-.53-1.25-.23-1.36-1.82-1.4-3.32,0-1.54.09-2.99.1-3s.25,2.06,1.43,2.97c.28.19.52.43.72.7.12-.47.23-.95.33-1.43-1.24-.03-1.58-1.48-1.82-2.89-.21-1.42-.32-2.77-.31-2.79s.51,1.87,1.73,2.54c.29.15.56.34.79.57.06-.54.1-1.08.13-1.62-1.19.14-1.7-1.16-2.11-2.43-.26-.84-.47-1.69-.63-2.55.01,0,.7,1.68,1.94,2.14.3.1.58.24.83.44-.01-.48-.04-.96-.07-1.44,0-.11-.02-.23-.03-.34-1.08.3-1.75-.86-2.26-1.98s-.88-2.3-.88-2.3.83,1.48,2.05,1.75c.28.05.56.15.81.29-.1-.63-.22-1.26-.36-1.88-.94.38-1.69-.59-2.28-1.57-.39-.68-.75-1.37-1.07-2.09,0,0,.93,1.32,2.08,1.41.25.01.49.06.72.14-.19-.65-.4-1.3-.62-1.95-.8.41-1.57-.4-2.2-1.24-.44-.61-.85-1.25-1.22-1.9,0,0,1.01,1.19,2.07,1.12.2-.02.39,0,.59.03-.26-.63-.54-1.26-.84-1.89l-.05-.12c-.66.41-1.43-.25-2.09-.99-.49-.56-.95-1.15-1.37-1.76,0,0,1.09,1.08,2.04.89.2-.04.4-.06.6-.03-.66-1.41-1.4-2.77-2.22-4.09.93,1.36,1.75,2.69,2.47,4.02.08-.24.2-.46.36-.67.3-.41.31-1.07.2-1.64-.07-.35-.17-.7-.31-1.03.49.79.88,1.64,1.17,2.53.38,1.25.37,2.43-.49,2.58.34.69.66,1.39.95,2.08.12-.19.26-.37.43-.53.4-.37.49-1.04.48-1.61-.02-.36-.07-.72-.16-1.06.4.85.69,1.75.86,2.67.21,1.27.05,2.45-.82,2.54.22.64.43,1.27.61,1.91.15-.16.31-.3.49-.43.94-.62.76-2.51.72-2.66.3.91.48,1.86.54,2.82.05,1.31-.26,2.49-1.18,2.5h0c.12.6.23,1.18.33,1.77.17-.14.36-.26.57-.36,1.09-.49,1.14-2.47,1.12-2.63.2.98.26,1.98.19,2.98-.12,1.36-.61,2.57-1.58,2.44.04.55.08,1.1.1,1.65.21-.13.43-.23.66-.3,1.18-.36,1.52-2.31,1.54-2.56.07,1.05,0,2.1-.2,3.13-.29,1.41-1.03,2.65-2.02,2.34-.03.5-.07,1.01-.12,1.51.24-.12.5-.2.77-.25,1.31-.22,1.94-2.28,1.98-2.47-.07,1.12-.29,2.22-.66,3.28-.52,1.47-1.5,2.69-2.51,2.16-.1.46-.2.92-.32,1.38.29-.1.59-.15.9-.16,1.43-.04,2.4-2.21,2.43-2.34-.24,1.18-.64,2.32-1.19,3.38-.79,1.5-2.04,2.68-3.02,1.88-.15.41-.32.81-.49,1.2.33-.07.67-.08,1-.05,1.52.17,2.9-2.04,2.92-2.12-.43,1.21-1.04,2.36-1.8,3.39-1.09,1.48-2.62,2.55-3.51,1.51-.2.33-.4.66-.62.99.34-.02.68.01,1.01.09,1.52.39,3.29-1.7,3.26-1.73-.62,1.16-1.42,2.22-2.36,3.14-1.34,1.32-3.06,2.16-3.78.99-.25.3-.53.6-.8.89.34.03.67.11.99.23,1.38.57,3.38-1.03,3.56-1.22-.83,1.05-1.8,1.98-2.9,2.75-1.61,1.12-3.48,1.63-4,.4-.32.26-.65.51-.99.74.34.08.67.21.98.39,1.3.77,3.58-.48,3.82-.65-1.03.91-2.18,1.67-3.43,2.25-1.84.84-3.84,1.02-4.15-.25-.37.2-.74.38-1.14.56.33.14.64.32.92.54,1.17.97,3.71.13,4,0-1.21.73-2.53,1.28-3.91,1.62-2.02.49-4.1.31-4.2-.96-2.37.69-4.83.99-7.29.87l-.05-.41h.05Z"/>
  <path d="M49.67,59.8c.06-.08.09-.19.09-.29v-.23c0-.1-.03-.21-.09-.29-.06-.07-.15-.11-.25-.1-.09,0-.18.03-.25.1-.06.08-.1.19-.09.29v.23c0,.1.03.21.09.29.06.07.15.1.25.1.09,0,.18-.03.25-.1ZM48.89,60.02c-.13-.13-.21-.31-.21-.49v-.26c0-.19.07-.36.21-.49.32-.24.75-.24,1.07,0,.13.13.21.31.21.49v.26c0,.19-.07.36-.21.49-.32.24-.76.24-1.08,0h0ZM47.19,60.02c-.13-.13-.21-.31-.21-.49v-.24c0-.19.07-.36.21-.49.14-.13.33-.19.52-.18.14,0,.27.02.4.08.1.05.18.12.25.2.05.07.08.15.08.23,0,.02,0,.04-.02.05-.01.01-.03.02-.05.02h-.26s-.03,0-.05,0c-.01-.01-.02-.03-.03-.05-.02-.06-.06-.12-.12-.16-.06-.04-.12-.05-.19-.05-.09-.01-.18.02-.25.09-.06.08-.1.19-.09.29v.21c.01.26.12.39.33.39.07,0,.13-.01.19-.05.05-.04.09-.1.11-.17,0-.02.02-.03.03-.05.01-.01.03-.02.05-.01h.26s.04,0,.05.02c.01.01.02.03.02.05,0,.08-.04.16-.08.22-.06.09-.15.16-.25.21-.12.06-.26.09-.4.09-.19,0-.37-.07-.5-.2h0ZM46.28,60.15s-.02-.03-.02-.05v-.3s.02-.07.06-.07c0,0,0,0,.01,0h.3s.04,0,.05.02c.01.01.02.03.02.05v.3s0,.04-.02.05c-.01.02-.03.02-.05.02h-.3s-.04,0-.06-.01h0ZM44.91,60.13c-.09-.03-.16-.09-.22-.16-.04-.04-.07-.1-.07-.16,0-.02,0-.03.02-.05.01-.01.03-.02.05-.02h.25s.03.01.04.02l.07.06c.07.06.17.1.27.09.07,0,.13-.01.19-.04.05-.03.08-.08.07-.13,0-.04-.01-.07-.03-.1-.03-.03-.08-.05-.12-.07-.09-.03-.17-.05-.26-.07-.14-.02-.26-.08-.37-.16-.08-.07-.13-.18-.12-.29,0-.08.03-.16.07-.22.05-.07.13-.13.21-.17.11-.05.22-.07.34-.07.12,0,.24.02.35.06.08.03.16.09.22.15.04.04.07.1.07.16,0,.02,0,.03-.02.04-.01.01-.03.02-.05.02h-.22s-.04,0-.05-.02c-.02-.02-.05-.04-.07-.06-.03-.03-.07-.05-.1-.06-.04-.02-.09-.03-.14-.02-.06,0-.12.01-.17.05-.04.03-.06.08-.06.13,0,.03,0,.06.03.09.03.03.07.05.11.07.08.03.16.05.25.06.36.07.53.22.53.47,0,.14-.07.27-.18.34-.15.1-.33.14-.51.13-.13,0-.26-.02-.38-.06h0ZM42.04,60.15s-.02-.03-.02-.05v-1.4s0-.04.02-.05c.01-.01.03-.02.05-.02h.23s.04,0,.05.02c.01.01.02.03.02.05v.11c.1-.13.26-.21.43-.2.19-.02.38.09.46.26.05-.08.12-.15.2-.19.09-.05.18-.07.28-.07.15,0,.3.06.4.17.11.14.16.31.15.48v.85s0,.04-.02.05c-.01.02-.03.02-.05.02h-.25s-.04,0-.05-.02c-.01-.01-.02-.03-.02-.05v-.83c0-.1-.02-.19-.08-.27-.05-.06-.13-.09-.21-.08-.07,0-.15.03-.2.08-.06.08-.09.17-.08.27v.83s0,.04-.02.05c-.01.02-.03.02-.05.02h-.25s-.07-.03-.07-.07v-.83c0-.1-.02-.19-.08-.27-.05-.06-.13-.09-.21-.08-.07,0-.15.03-.2.08-.06.08-.09.17-.08.27v.83s0,.04-.02.05c-.01.01-.03.02-.05.02h-.25s-.05,0-.06-.03h0ZM40.81,60.15s-.02-.03-.02-.05v-1.4s0-.04.02-.05c.01-.01.03-.02.05-.02h.25s.04,0,.05.02c.01.02.02.03.02.05v.12c.1-.13.26-.21.43-.2h.12s.04,0,.05.02c.01.01.02.03.02.05v.22s0,.04-.02.05c-.01.02-.03.02-.05.02h-.23c-.08,0-.16.02-.22.08-.06.06-.09.14-.08.22v.81s0,.04-.02.05c-.01.01-.03.02-.05.02h-.28s-.04,0-.05-.02h.01ZM39.15,60.15s-.02-.03-.02-.05v-1.15h-.25s-.07-.02-.07-.06c0,0,0,0,0-.01v-.18s0-.04.02-.05c.01-.01.03-.02.05-.02h.25v-.12c-.01-.15.04-.3.15-.4.12-.1.28-.14.44-.13h.62s.04,0,.05.02c.01.01.02.03.02.05v.18s0,.04-.02.05c-.01.01-.03.02-.05.02h-.6c-.06,0-.12.02-.16.06-.03.05-.05.11-.05.18v.1h.81s.04,0,.05.02c.01.01.02.03.02.05v1.4s0,.04-.02.05c-.01.02-.03.02-.05.02h-.25s-.07-.03-.07-.07v-1.15h-.49v1.15s0,.04-.02.05c-.01.02-.03.02-.05.02h-.25s-.05,0-.06-.02h.01ZM38.05,59.77c.06-.08.09-.17.09-.27v-.23c0-.09-.03-.18-.09-.25-.06-.07-.15-.11-.25-.1-.21,0-.32.13-.34.39v.18c.01.25.13.39.34.39.1,0,.19-.04.25-.11ZM37.23,60.02c-.12-.15-.18-.33-.18-.51v-.21c0-.18.06-.36.17-.51.12-.13.29-.2.46-.19.17,0,.34.06.45.2v-.66s0-.04.02-.05c.01-.01.03-.02.05-.02h.25s.04,0,.05.02c.01.01.02.03.02.05v1.98s0,.04-.02.05c-.01.02-.03.02-.05.02h-.25s-.07-.03-.07-.07v-.11c-.23.26-.64.28-.9.05-.01,0-.02-.02-.03-.03h.02ZM36.28,59.82c.06-.08.09-.19.09-.29v-.23c0-.1-.03-.21-.09-.29-.06-.07-.15-.11-.25-.1-.09,0-.18.03-.25.1-.06.08-.09.19-.09.29v.23c0,.1.03.21.09.29.06.07.15.1.25.1.1,0,.2-.04.26-.12v.02ZM35.5,60.04c-.13-.13-.21-.31-.21-.49v-.26c0-.19.07-.36.21-.49.15-.13.34-.19.54-.18.19-.01.39.05.53.18.13.13.21.31.21.49v.26c0,.19-.07.36-.21.49-.32.24-.76.24-1.08,0h0ZM34.52,59.82c.06-.08.09-.19.09-.29,0-.04,0-.08,0-.11,0-.04,0-.08,0-.12,0-.1-.03-.21-.09-.29-.06-.07-.15-.11-.25-.1-.09,0-.18.03-.25.1-.06.08-.1.18-.09.29v.23c0,.1.03.21.09.29.14.13.36.13.49,0h0ZM33.74,60.04c-.13-.13-.21-.31-.21-.49v-.26c0-.19.07-.36.21-.49.32-.24.75-.24,1.07,0,.13.13.21.31.21.49v.26c0,.19-.07.36-.21.49-.32.24-.76.24-1.08,0h0ZM32.7,59.75c.06-.08.09-.17.09-.26,0-.03,0-.06,0-.1,0-.03,0-.06,0-.09,0-.09-.04-.19-.09-.26-.06-.07-.15-.11-.25-.11-.22,0-.33.13-.34.39v.07c0,.31.11.46.34.46.1,0,.19-.04.25-.12h0ZM32.04,60.74c-.09-.04-.17-.11-.23-.2-.04-.06-.06-.12-.07-.19,0-.02,0-.04.02-.05.01-.01.03-.02.05-.02h.26s.03,0,.05.01c.01.01.03.03.03.05.02.05.06.1.1.13.06.04.13.06.2.05.16.03.31-.07.34-.23,0-.04,0-.08,0-.12v-.2c-.25.25-.67.25-.92,0-.11-.15-.17-.33-.17-.51v-.16c0-.18.06-.36.17-.51.12-.13.29-.2.46-.19.1,0,.19.02.28.06.08.04.14.09.2.16v-.11s0-.04.02-.05c.01-.01.03-.02.05-.02h.25s.04,0,.05.02c.01.02.02.03.02.05v1.43c.01.19-.05.37-.18.51-.15.13-.35.2-.55.18-.15,0-.29-.02-.42-.09h0Z"/>
  <path class="cls-17" d="M80,46.5h-9v13.75h9l-2.89-6.46,2.89-7.29ZM0,46.5h9v13.75H0l2.89-6.46L0,46.5Z"/>
  <path class="cls-8" d="M75.55,41.78l-4.55,4.7v13.75l4.55-4.52v-13.92ZM4.54,41.78l4.56,4.9v13.56l-4.56-4.55v-13.91Z"/>
  <polygon class="cls-3" points="4.44 55.62 75.54 55.62 75.54 41.69 4.44 41.69 4.44 55.62"/>
  <path class="cls-4" d="M40.86,65.87c2.45.11,4.9-.18,7.26-.86-.84-1.09.55-2.17,1.88-3.21,1.4-1.04,2.8-2.07,2.8-2.08s-1.65,1.69-1.48,3.14c.05.33.04.66-.03.99.38-.17.76-.36,1.12-.55-.99-.93.13-2.27,1.2-3.54,1.13-1.28,2.26-2.54,2.26-2.54s-1.25,1.96-.83,3.38c.11.32.16.65.15.99.33-.25.66-.48.97-.74-1.1-.78-.3-2.3.49-3.74.84-1.46,1.7-2.87,1.7-2.87s-.84,2.13-.18,3.49c.16.3.28.63.33.96.27-.29.54-.58.8-.88-1.18-.61-.72-2.24-.22-3.79.56-1.57,1.15-3.05,1.15-3.07.03,0-.44,2.21.44,3.46.21.27.38.58.49.91.21-.33.42-.66.61-.99-1.26-.44-1.09-2.11-.87-3.71.27-1.62.6-3.15.6-3.16s-.07,2.22,1.01,3.34c.25.24.47.52.63.83.1-.22.2-.45.29-.68.07-.18.14-.35.21-.53-1.26-.25-1.38-1.82-1.41-3.33,0-1.54.09-2.99.1-3.01s.25,2.07,1.44,2.97c.28.19.52.43.73.7.12-.48.23-.95.33-1.44-1.25-.03-1.59-1.5-1.84-2.9s-.33-2.78-.31-2.8.51,1.88,1.75,2.55c.3.15.56.34.8.57.06-.54.1-1.09.13-1.63-1.2.14-1.72-1.16-2.13-2.44-.26-.84-.47-1.69-.64-2.55.02,0,.7,1.68,1.96,2.14.3.1.58.25.84.44-.01-.49-.04-.97-.07-1.45,0-.11-.02-.22-.03-.34-1.09.3-1.76-.86-2.28-1.98s-.88-2.31-.88-2.31.84,1.48,2.06,1.75c.29.05.56.15.82.29-.1-.63-.22-1.26-.36-1.89-.95.39-1.71-.6-2.3-1.57-.4-.68-.75-1.38-1.08-2.09.01,0,.94,1.32,2.1,1.41.25,0,.5.06.74.14-.19-.66-.4-1.31-.63-1.95-.81.41-1.58-.4-2.22-1.24-.45-.61-.86-1.25-1.24-1.91.01,0,1.02,1.19,2.09,1.12.2-.02.4,0,.59.03-.26-.63-.54-1.27-.84-1.9l-.05-.12c-.67.41-1.45-.25-2.11-.99-.49-.56-.95-1.15-1.38-1.76.01,0,1.1,1.09,2.06.89.2-.04.41-.06.61-.03-.67-1.41-1.41-2.78-2.24-4.11.93,1.37,1.76,2.72,2.5,4.03.09-.24.21-.47.36-.67.31-.41.31-1.08.21-1.64-.07-.35-.18-.7-.31-1.03.49.8.89,1.65,1.18,2.54.38,1.25.37,2.44-.49,2.59.35.69.66,1.39.96,2.08.12-.19.27-.37.43-.53.4-.37.49-1.04.48-1.62-.02-.36-.07-.72-.16-1.07.4.85.69,1.75.87,2.68.21,1.27.05,2.45-.83,2.55.22.64.43,1.27.62,1.91.15-.16.31-.3.49-.43.95-.63.76-2.52.74-2.66.3.91.48,1.86.54,2.82.05,1.31-.26,2.5-1.19,2.51h0c.13.6.24,1.19.33,1.78.17-.14.37-.26.57-.36,1.1-.51,1.15-2.49,1.13-2.64.2.98.26,1.99.19,2.99-.12,1.37-.62,2.57-1.6,2.45.04.55.08,1.1.09,1.65.21-.13.43-.23.66-.3,1.19-.36,1.53-2.32,1.55-2.57.07,1.05,0,2.11-.2,3.14-.3,1.41-1.04,2.65-2.04,2.34-.03.49-.07,1.01-.13,1.52.25-.12.51-.2.78-.25,1.32-.22,1.95-2.29,1.98-2.49-.07,1.12-.29,2.23-.66,3.29-.52,1.48-1.51,2.7-2.53,2.16-.1.46-.21.92-.33,1.38.29-.1.6-.15.9-.16,1.44-.04,2.42-2.22,2.45-2.35-.23,1.18-.64,2.33-1.2,3.39-.79,1.51-2.05,2.69-3.04,1.89-.15.41-.32.81-.49,1.21.33-.07.67-.08,1.01-.05,1.53.17,2.93-2.05,2.94-2.13-.43,1.22-1.04,2.37-1.81,3.41-1.1,1.48-2.64,2.55-3.54,1.51-.2.34-.41.67-.62.99.34-.02.68.01,1.01.09,1.53.39,3.32-1.7,3.29-1.73-.63,1.18-1.45,2.24-2.41,3.17-1.35,1.32-3.09,2.16-3.81.99-.26.3-.53.6-.81.89.35.03.69.11,1.01.25,1.39.57,3.4-1.03,3.59-1.22-.83,1.06-1.82,1.99-2.92,2.76-1.63,1.12-3.51,1.64-4.04.41-.32.26-.65.51-.99.75.35.08.68.21.99.39,1.31.77,3.61-.49,3.85-.66-1.04.92-2.2,1.68-3.46,2.26-1.86.84-3.87,1.02-4.19-.25-.38.2-.76.39-1.15.56.33.13.63.31.91.53,1.18.97,3.75.13,4.04,0-1.23.74-2.55,1.28-3.94,1.63-2.04.49-4.13.31-4.23-.96-2.39.7-4.87.99-7.35.87l-.04-.41Z"/>
  <path class="cls-7" d="M40.44,9.82l1.46,2.95,3.26.47-2.36,2.31.56,3.24-2.92-1.53-2.91,1.53.56-3.24-2.36-2.3,3.26-.47,1.46-2.96Z"/>
  <polygon class="cls-5" points="31.4 15.57 30.53 13.8 29.66 15.57 27.7 15.85 29.11 17.23 28.78 19.17 30.53 18.26 32.28 19.17 31.95 17.23 33.36 15.85 31.4 15.57"/>
  <polygon class="cls-5" points="53.19 15.85 51.23 15.57 50.36 13.8 49.48 15.57 47.53 15.85 48.94 17.23 48.61 19.17 50.36 18.26 52.11 19.17 51.77 17.23 53.19 15.85"/>
  <polygon class="cls-16" points="26.54 20.18 26.02 19.12 25.49 20.18 24.32 20.35 25.17 21.18 24.97 22.35 26.02 21.8 27.07 22.35 26.87 21.18 27.72 20.35 26.54 20.18"/>
  <polygon class="cls-16" points="56.57 20.35 55.39 20.18 54.87 19.12 54.35 20.18 53.17 20.35 54.02 21.18 53.82 22.35 54.87 21.8 55.92 22.35 55.72 21.18 56.57 20.35"/>
  <g class="cls-9">
    <path class="cls-12" d="M22.59,47.55v-2.45h-.86v-.51h2.35v.51h-.87v2.45h-.63Z"/>
    <path class="cls-12" d="M27.02,46.07c0,.94-.55,1.53-1.43,1.53s-1.43-.59-1.43-1.53.55-1.54,1.43-1.54,1.43.59,1.43,1.54ZM24.8,46.07c0,.62.31,1.01.8,1.01s.8-.39.8-1.01-.31-1.02-.8-1.02-.8.4-.8,1.02Z"/>
    <path class="cls-12" d="M28.66,44.59c.53-.03.99.37,1.03.9,0,.04,0,.07,0,.11.02.55-.42,1-.96,1.02-.03,0-.06,0-.1,0h-.58v.93h-.62v-2.97h1.24ZM28.04,46.13h.45c.29.02.54-.2.56-.49.02-.29-.2-.54-.49-.56-.02,0-.05,0-.07,0h-.45v1.05Z"/>
    <path class="cls-12" d="M30.95,47.55v-2.97h1.31c.56,0,.9.29.9.74,0,.32-.24.6-.56.64h0c.39.03.69.34.7.73,0,.52-.39.85-1.02.85h-1.33ZM31.57,45.82h.46c.33,0,.52-.15.52-.4s-.17-.37-.45-.37h-.53v.77ZM32.12,47.09c.36,0,.55-.15.55-.44s-.2-.43-.56-.43h-.54v.86h.55Z"/>
    <path class="cls-12" d="M35.58,47.55h-1.91v-2.97h.62v2.45h1.3v.52Z"/>
    <path class="cls-12" d="M38.58,46.07c0,.94-.55,1.53-1.43,1.53s-1.43-.59-1.43-1.53.55-1.54,1.43-1.54,1.43.59,1.43,1.54ZM36.36,46.07c0,.62.31,1.01.8,1.01s.8-.39.8-1.01-.31-1.02-.8-1.02-.8.4-.8,1.02Z"/>
    <path class="cls-12" d="M38.89,46.07c0-.95.54-1.53,1.4-1.53.67-.05,1.25.45,1.3,1.11h-.6c-.04-.35-.34-.61-.7-.6-.47,0-.77.39-.77,1.02s.3,1.02.77,1.02c.34.02.64-.23.7-.57h.6c-.07.66-.58,1.08-1.3,1.08-.86,0-1.4-.58-1.4-1.53Z"/>
    <path class="cls-12" d="M41.97,47.55v-2.97h.62v1.35h.02l1.11-1.35h.69l-1.1,1.31,1.17,1.65h-.74l-.88-1.24-.28.33v.9h-.62Z"/>
    <path class="cls-12" d="M44.53,46.07c0-.95.54-1.53,1.4-1.53.67-.05,1.25.45,1.3,1.11h-.6c-.04-.35-.34-.61-.7-.6-.47,0-.77.39-.77,1.02s.3,1.02.77,1.02c.34.02.65-.23.7-.57h.6c-.07.66-.58,1.08-1.3,1.08-.86,0-1.4-.58-1.4-1.53Z"/>
    <path class="cls-12" d="M49.57,47.55v-1.25h-1.33v1.25h-.62v-2.97h.62v1.2h1.33v-1.2h.62v2.97h-.62Z"/>
    <path class="cls-12" d="M52.39,46.83h-1.04l-.22.72h-.64l1.03-2.97h.73l1.03,2.97h-.64l-.25-.72ZM51.48,46.37h.77l-.36-1.21h-.01l-.4,1.21Z"/>
    <path class="cls-12" d="M53.58,47.55v-2.97h.62v2.97h-.62Z"/>
    <path class="cls-12" d="M54.69,47.55v-2.97h.52l1.38,1.93h.02v-1.93h.59v2.97h-.51l-1.38-1.94h-.02v1.94h-.59Z"/>
    <path class="cls-12" d="M15.44,49.63c.89,0,1.41.53,1.41,1.47s-.52,1.48-1.41,1.48h-1.14v-2.97h1.14ZM14.92,52.08h.45c.55,0,.85-.34.85-.98s-.31-.95-.85-.95h-.45v1.92Z"/>
    <path class="cls-12" d="M19.21,52.59h-1.96v-2.97h1.96v.53h-1.34v.71h1.27v.47h-1.27v.74h1.34v.51Z"/>
    <path class="cls-12" d="M20.46,52.59l-.99-2.97h.69l.68,2.32h.01l.68-2.32h.67l-.99,2.97h-.76Z"/>
    <path class="cls-12" d="M24.47,52.59h-1.96v-2.97h1.96v.53h-1.34v.71h1.27v.47h-1.27v.74h1.34v.51Z"/>
    <path class="cls-12" d="M26.83,52.59h-1.91v-2.97h.62v2.45h1.3v.52Z"/>
    <path class="cls-12" d="M29.84,51.12c0,.94-.55,1.53-1.43,1.53s-1.43-.59-1.43-1.53.55-1.54,1.43-1.54,1.43.59,1.43,1.54ZM27.61,51.12c0,.62.31,1.01.8,1.01s.8-.39.8-1.01-.31-1.02-.8-1.02-.8.39-.8,1.02Z"/>
    <path class="cls-12" d="M31.47,49.63c.53-.03.99.37,1.03.9,0,.04,0,.07,0,.11.02.55-.42,1-.96,1.02-.03,0-.06,0-.1,0h-.58v.93h-.62v-2.97h1.24ZM30.85,51.17h.45c.29.02.54-.2.56-.49.02-.29-.2-.54-.49-.56-.02,0-.05,0-.07,0h-.45v1.05Z"/>
    <path class="cls-12" d="M36,52.59h-.55v-2h-.02l-.8,1.98h-.39l-.8-1.98h-.02v2h-.55v-2.97h.72l.84,2.1h.01l.84-2.1h.72v2.97Z"/>
    <path class="cls-12" d="M38.45,52.59h-1.96v-2.97h1.96v.53h-1.34v.71h1.27v.47h-1.27v.74h1.34v.51Z"/>
    <path class="cls-12" d="M38.9,52.59v-2.97h.52l1.38,1.93h.02v-1.93h.59v2.97h-.51l-1.38-1.94h-.02v1.94h-.59Z"/>
    <path class="cls-12" d="M42.62,52.59v-2.44h-.86v-.51h2.36v.51h-.87v2.45h-.62Z"/>
    <path class="cls-12" d="M45.26,51.11c0-.95.54-1.53,1.4-1.53.67-.05,1.25.45,1.3,1.11h-.6c-.04-.35-.34-.61-.7-.6-.47,0-.77.39-.77,1.02s.3,1.02.77,1.02c.34.02.64-.23.7-.57h.6c-.07.66-.58,1.08-1.3,1.08-.86,0-1.4-.58-1.4-1.53Z"/>
    <path class="cls-12" d="M51.11,51.12c0,.94-.55,1.53-1.43,1.53s-1.43-.59-1.43-1.53.55-1.54,1.43-1.54,1.43.59,1.43,1.54ZM48.89,51.12c0,.62.31,1.01.8,1.01s.79-.39.79-1.01-.31-1.02-.79-1.02-.8.39-.8,1.02Z"/>
    <path class="cls-12" d="M54.64,52.59h-.55v-2h-.02l-.8,1.98h-.39l-.8-1.98h-.02v2h-.55v-2.97h.72l.84,2.1h.02l.84-2.1h.72v2.97Z"/>
    <path class="cls-12" d="M56.37,49.63c.53-.03.99.37,1.03.9,0,.04,0,.07,0,.11.02.55-.42,1-.96,1.02-.03,0-.06,0-.1,0h-.58v.93h-.62v-2.97h1.24ZM55.76,51.17h.45c.29.02.54-.2.56-.49.02-.29-.2-.54-.49-.56-.02,0-.05,0-.07,0h-.45v1.05Z"/>
    <path class="cls-12" d="M59.2,51.89h-1.04l-.22.72h-.64l1.03-2.97h.74l1.03,2.97h-.66l-.24-.72ZM58.29,51.42h.77l-.38-1.21h-.01l-.38,1.21Z"/>
    <path class="cls-12" d="M60.38,52.59v-2.97h.52l1.38,1.93h.02v-1.93h.59v2.97h-.51l-1.38-1.94h-.02v1.94h-.59Z"/>
    <path class="cls-12" d="M64.23,52.59v-1.1l-1.03-1.86h.68l.66,1.26h.01l.66-1.26h.66l-1.03,1.86v1.1h-.62Z"/>
  </g>
</svg>