<?xml version="1.0" encoding="UTF-8"?>
<svg id="Layer_1" data-name="Layer 1" xmlns="http://www.w3.org/2000/svg" viewBox="0 0 80 80">
  <defs>
    <style>
      .cls-1, .cls-2 {
        fill: none;
      }

      .cls-2 {
        stroke: #fff;
        stroke-dasharray: 4;
        stroke-linecap: round;
        stroke-miterlimit: 10;
      }

      .cls-3 {
        fill: #1e1c55;
      }

      .cls-4 {
        fill: #fff;
      }

      .cls-5 {
        fill: #ffbd3d;
      }

      .cls-6 {
        fill: #ff1c3b;
      }
    </style>
  </defs>
  <g id="Layer_2" data-name="Layer 2">
    <g id="Badge">
      <g id="Badge6">
        <path class="cls-1" d="M63.84,43.02c-.02-.54-.02-1.06-.02-1.54,0-2.82.1-5.57.29-8.14H16.02c.19,2.59.29,5.34.29,8.14,0,.45,0,.95-.02,1.45-.05,1.95.09,3.91.42,5.83,6.6-.45,14.76-.7,23.32-.7s16.78.26,23.4.71c.33-1.9.46-3.82.41-5.75Z"/>
        <path class="cls-1" d="M14.19,42.87c.01-.48.02-.95.02-1.39,0-2.8-.1-5.56-.3-8.14H4.15l-2.05,2.05v12.72l2.45,2.03.21-.04c2.34-.45,5.74-.86,9.86-1.18-.34-1.99-.48-4.02-.42-6.04Z"/>
        <path class="cls-1" d="M65.94,42.96c.06,1.99-.08,3.99-.42,5.96,4.05.32,7.39.71,9.72,1.16l.21.04,2.46-2.02v-12.7l-2.05-2.05h-9.64c-.19,2.59-.3,5.34-.3,8.14,0,.46,0,.96.02,1.47Z"/>
        <path class="cls-1" d="M65.28,24.41c-3.77-2.3-6.66-5.79-8.22-9.92H22.95c-1.54,4.09-4.39,7.55-8.11,9.85.45,2.28.78,4.58.99,6.9h48.44c.21-2.29.54-4.57.99-6.83Z"/>
        <path class="cls-1" d="M17.15,50.83c2.71,10.9,11.59,19.18,22.66,21.12l.21.04.33-.06c11.36-2.05,20.01-10.42,22.66-21.09-6.51-.43-14.53-.68-22.97-.68s-16.4.25-22.89.68Z"/>
        <path class="cls-1" d="M17.15,50.83c2.71,10.9,11.59,19.18,22.66,21.12l.21.04.33-.06c11.36-2.05,20.01-10.42,22.66-21.09-6.51-.43-14.53-.68-22.97-.68s-16.4.25-22.89.68Z"/>
        <path class="cls-1" d="M57.05,14.49H22.95c-1.54,4.09-4.39,7.55-8.11,9.85.45,2.28.78,4.58.99,6.9h48.44c.21-2.29.54-4.57.99-6.82-3.77-2.3-6.67-5.79-8.22-9.93Z"/>
        <path class="cls-3" d="M76.72,31.24h-10.33c.21-2.3.55-4.58,1.02-6.84l.03-.11v-1.05l-.53-.3c-3.83-2.15-6.73-5.66-8.12-9.83l-.24-.72H21.45l-.23.72c-1.39,4.15-4.26,7.65-8.07,9.8l-.68.38.17.76c.51,2.37.87,4.77,1.09,7.18H3.28l-3.28,3.28v14.58l3.99,3.28,1.18-.23c2.33-.45,5.74-.85,9.88-1.17,2.84,11.83,12.4,20.87,24.37,23.03l.58.1.18-.03.53-.09c11.97-2.16,21.54-11.18,24.39-23,4.07.31,7.43.71,9.74,1.15l1.18.23,3.98-3.27v-14.58l-3.28-3.28ZM77.9,48.1l-2.46,2.02-.21-.04c-2.33-.45-5.67-.85-9.72-1.16-.67-.05-1.37-.1-2.09-.15-6.62-.45-14.81-.71-23.4-.71s-16.72.25-23.32.7c-.71.05-1.41.1-2.09.15-4.12.32-7.51.72-9.86,1.18l-.21.04-2.46-2.02v-12.72l2.05-2.05h71.71l2.05,2.05v12.71Z"/>
        <path class="cls-6" d="M75.33,34.05H4.93l-1.76,1.74v11.99l2.11,1.71c6.24-1.21,19.94-1.99,34.9-1.99s28.56.78,34.83,1.98l2.1-1.71v-11.98l-1.77-1.74Z"/>
        <path class="cls-4" d="M23.79,23.91h-1.3v-.77h3.54v.77h-1.3v3.3h-.94v-3.3Z"/>
        <path class="cls-4" d="M29.74,26.45v.76h-3.15v-4.06h3.07v.76h-2.14v.88h1.89v.73h-1.89v.94h2.21Z"/>
        <path class="cls-4" d="M30.28,25.17c0-1.23.94-2.1,2.21-2.1.64-.03,1.25.24,1.67.72l-.6.56c-.25-.3-.63-.48-1.02-.48-.72-.03-1.32.53-1.35,1.25-.03.72.53,1.32,1.25,1.35.04,0,.07,0,.11,0,.4,0,.77-.17,1.02-.48l.6.56c-.42.49-1.04.75-1.68.73-1.26,0-2.2-.88-2.2-2.1Z"/>
        <path class="cls-4" d="M38.58,23.14v4.06h-.94v-1.67h-1.85v1.67h-.94v-4.06h.94v1.59h1.85v-1.59h.94Z"/>
        <path class="cls-4" d="M39.6,23.14h.94v4.06h-.94v-4.06Z"/>
        <path class="cls-6" d="M45.26,27.2v-2.44l-1.2,2.01h-.42l-1.19-1.96v2.39h-.88v-4.06h.78l1.52,2.53,1.5-2.53h.77v4.06h-.87Z"/>
        <path class="cls-6" d="M50.69,24.61c0,.91-.68,1.47-1.76,1.47h-.82v1.12h-.94v-4.06h1.76c1.08,0,1.76.56,1.76,1.47ZM49.74,24.61c0-.45-.29-.71-.86-.71h-.77v1.41h.77c.58,0,.86-.26.86-.7Z"/>
        <path class="cls-6" d="M51.42,23.14h.94v3.3h2.05v.77h-2.99v-4.06Z"/>
        <path class="cls-6" d="M56.51,25.76v1.44h-.94v-1.45l-1.57-2.61h1l1.08,1.81,1.08-1.81h.92l-1.58,2.62Z"/>
        <path class="cls-5" d="M37.76,52.75s-.13,3.07.52,4.27c.39.66.94,1.22,1.59,1.63-.05.01-.08.06-.08.1v.16c0,.06.05.11.11.11h.1v1.48l-.28.47h-.31l-.56.57v.93h-.28v.23h3.41v-.23h-.28v-.94l-.58-.56h-.29l-.27-.47h0v-1.48h.06c.06,0,.11-.05.11-.11h0v-.16s-.02-.07-.05-.09c.65-.41,1.2-.98,1.59-1.64.51-.95.54-3.08.52-3.92h0v-.35"/>
        <path class="cls-5" d="M38.6,62.65h3.33v-.13h-.23s-.04-.02-.04-.04h0v-.91l-.56-.53h-.27s-.03,0-.04-.02l-.27-.47s0-.02,0-.03v-1.48s.02-.04.04-.05c0,0,0,0,0,0h.06s.07-.03.07-.07v-.16s-.01-.04-.03-.06c-.01,0-.02-.02-.02-.04,0-.01,0-.03.02-.04.65-.41,1.2-.97,1.59-1.63.5-.94.53-3.04.52-3.9v-.31c-1.64-.26-3.31-.26-4.95,0,0,.35-.08,3.11.51,4.21.39.66.92,1.21,1.57,1.62.02,0,.02.03.02.04,0,.02-.02.03-.03.04-.03,0-.05.03-.05.06v.16s.03.07.07.07h.1s.04.02.04.05v1.48s0,.02,0,.02l-.27.47s-.02.02-.04.02h-.32l-.54.54v.91s-.02.04-.04.04h-.23v.12Z"/>
        <path class="cls-5" d="M44.19,53.01c-.47-.21-1.03,0-1.24.47,0,.01-.01.03-.02.04-.09.22-.09.46,0,.68.09.19.25.34.45.4.06.02.13-.01.15-.07,0,0,0,0,0,0,.02-.06-.01-.13-.08-.15-.12-.04-.23-.12-.29-.23-.02-.08-.03-.17-.03-.25,0-.04,0-.08.02-.12.08-.23.3-.39.54-.38.28.02.51.24.55.52.08.31.07.64-.03.95-.22.41-.53.77-.9,1.06l-.19.15-.15.11c-.24.14-.43.35-.56.6-.08.21-.07.45.04.65.1.2.31.33.54.33.07,0,.14,0,.2-.03.27-.1.5-.35.41-.64-.01-.07-.08-.11-.14-.09-.07.01-.11.08-.09.14,0,0,0,.02,0,.03.05.16-.15.3-.26.33-.17.06-.36-.02-.44-.19-.08-.13-.09-.3-.03-.44.11-.21.28-.38.48-.5l.16-.12c.07-.05.13-.1.2-.16.66-.55,1.02-1.08,1.14-1.66.06-.27.2-1.19-.45-1.44Z"/>
        <path class="cls-5" d="M43.7,53.36h.01c.29,0,.5.21.6.55.08.32.07.66-.03.97h0c-.23.42-.54.78-.91,1.07l-.19.15c-.05.04-.1.08-.15.11-.23.14-.42.34-.54.58-.08.2-.07.42.04.61.09.19.29.31.5.31h0c.06,0,.13,0,.18-.03.26-.06.43-.32.38-.58,0-.02-.02-.04-.04-.05-.02,0-.04,0-.06,0-.02,0-.04.02-.05.04,0,.02,0,.04,0,.06.06.19-.14.34-.29.39-.19.07-.4-.02-.49-.21-.08-.15-.09-.32-.03-.48.11-.21.28-.39.49-.52l.16-.12c.07-.06.13-.11.2-.16.65-.55,1.01-1.07,1.14-1.64.05-.27.19-1.16-.42-1.4h0c-.46-.2-1,.01-1.2.47,0,0,0,0,0,.01-.09.21-.09.45,0,.66.09.18.24.32.43.38.02,0,.04,0,.06,0,.02,0,.03-.02.04-.04.01-.04,0-.08-.05-.1,0,0,0,0,0,0-.13-.04-.24-.13-.32-.25h0c-.02-.09-.03-.18-.03-.27.02-.31.28-.55.59-.54h-.02Z"/>
        <path class="cls-5" d="M38.08,56.8c-.13-.25-.32-.46-.56-.6l-.15-.11-.19-.15c-.37-.29-.67-.65-.9-1.06-.1-.31-.11-.64-.03-.95.04-.28.27-.5.56-.52.24,0,.46.15.54.38,0,.04.02.08.02.12,0,.09,0,.17-.03.25-.07.11-.17.19-.29.23-.06.02-.1.08-.09.15.02.06.08.1.15.09,0,0,.01,0,.02,0,.2-.06.37-.21.45-.4.09-.22.09-.46,0-.68-.19-.48-.74-.72-1.22-.53-.01,0-.03.01-.04.02-.65.25-.51,1.17-.45,1.45.12.58.48,1.11,1.14,1.66.06.05.13.11.2.16l.16.12c.2.12.37.29.48.5.06.14.05.3-.03.44-.08.16-.27.24-.44.19-.11-.04-.31-.17-.26-.33.03-.06,0-.13-.06-.16s-.13,0-.16.06c0,0,0,.02,0,.03-.1.29.14.54.41.64.06.02.13.03.2.03.23,0,.43-.13.54-.33.12-.2.13-.44.05-.66Z"/>
        <path class="cls-5" d="M37.01,57.07s-.02,0-.03,0c-.02,0-.03.03-.04.05-.05.26.12.52.38.58.06.02.12.03.18.03h0c.21,0,.4-.12.5-.31.1-.19.12-.41.04-.61h0c-.12-.24-.31-.44-.54-.58-.05-.04-.11-.08-.15-.11s-.13-.11-.19-.15c-.37-.29-.68-.66-.91-1.07h0c-.1-.32-.11-.65-.03-.97.1-.35.31-.55.6-.55.31-.03.58.2.6.51,0,0,0,.02,0,.03,0,.09,0,.18-.03.27h0c-.07.12-.18.2-.32.25-.04.01-.06.05-.05.09,0,0,0,0,0,0,0,.02.02.03.04.04.02,0,.04,0,.06,0,.19-.06.35-.2.43-.38.09-.21.09-.45,0-.66-.19-.46-.72-.68-1.19-.49,0,0,0,0-.01,0-.61.23-.48,1.14-.42,1.4.12.57.48,1.09,1.14,1.64l.19.16.16.12c.21.12.38.3.49.52.06.16.05.33-.03.48-.09.18-.3.27-.49.21-.14-.05-.35-.2-.29-.39,0-.02,0-.04,0-.06,0-.02-.02-.03-.04-.04h-.04Z"/>
        <rect class="cls-4" x="40.61" y="54.81" width=".59" height="2.06"/>
        <polygon class="cls-4" points="38.99 54.33 38.99 54.81 39.8 54.81 39.8 54.87 39.8 56.86 40.39 56.86 40.39 54.87 40.39 54.81 40.61 54.81 40.61 54.33 38.99 54.33"/>
        <rect class="cls-4" x="40.61" y="54.33" width=".59" height=".48"/>
        <rect class="cls-4" x="40.61" y="53.67" width=".59" height=".48"/>
        <path class="cls-5" d="M47.87,65.74l.26-.98-.79-.63,1.01-.05.36-.94.36.94,1.01.05-.79.63.27.98-.85-.55-.85.55Z"/>
        <path class="cls-5" d="M53.84,60.6l.17-.62-.5-.4.64-.03.23-.6.23.6.64.03-.5.4.17.62-.53-.35-.54.35Z"/>
        <path class="cls-5" d="M57.91,54.82l.12-.43-.34-.28.44-.02.16-.41.15.41.44.02-.34.28.12.43-.37-.24-.37.24Z"/>
        <path class="cls-5" d="M39.86,68.38l-1.41-.05,1.08-.91-.39-1.36,1.19.75,1.17-.79-.35,1.36,1.11.87-1.41.09-.48,1.33-.53-1.29Z"/>
        <path class="cls-5" d="M31.9,65.18l-.85.55.26-.98-.79-.63,1.01-.05.36-.94.36.94,1.01.05-.79.63.27.98-.85-.55Z"/>
        <path class="cls-5" d="M26.24,60.24l-.54.35.17-.62-.5-.4.64-.03.23-.6.23.6.64.03-.5.4.17.62-.53-.35Z"/>
        <path class="cls-5" d="M22.34,54.58l-.37.24.12-.43-.34-.28.44-.02.15-.41.16.41.44.02-.34.28.12.43-.37-.24Z"/>
        <path class="cls-4" d="M16.73,36.82h-1.12v-.66h3.05v.66h-1.12v2.84h-.81v-2.84Z"/>
        <path class="cls-4" d="M18.83,37.9c0-1.04.81-1.82,1.92-1.82s1.92.76,1.92,1.82-.81,1.81-1.92,1.81-1.92-.77-1.92-1.81ZM21.84,37.9c-.01-.61-.51-1.09-1.12-1.07-.61.01-1.09.51-1.07,1.12.01.6.5,1.07,1.1,1.07.59.01,1.08-.45,1.09-1.04,0-.03,0-.05,0-.08h0Z"/>
        <path class="cls-4" d="M26.3,37.42c0,.78-.59,1.27-1.52,1.27h-.71v.96h-.81v-3.5h1.52c.93,0,1.51.48,1.51,1.27ZM25.48,37.42c0-.38-.25-.61-.75-.61h-.66v1.21h.66c.5,0,.74-.22.74-.6h0Z"/>
        <path class="cls-4" d="M31.55,38.7c0,.6-.48.96-1.4.96h-1.81v-3.5h1.71c.88,0,1.33.36,1.33.91,0,.32-.17.62-.45.77.38.11.64.47.63.86ZM29.15,36.76v.83h.81c.39,0,.61-.14.61-.42s-.22-.41-.61-.41h-.81ZM30.74,38.61c0-.3-.23-.44-.65-.44h-.94v.87h.94c.42,0,.64-.13.64-.43h0Z"/>
        <path class="cls-4" d="M32.17,36.15h.81v2.84h1.75v.66h-2.56v-3.5Z"/>
        <path class="cls-4" d="M34.91,37.9c0-1.04.81-1.82,1.92-1.82s1.92.76,1.92,1.82-.82,1.81-1.92,1.81-1.92-.77-1.92-1.81ZM37.92,37.9c-.01-.61-.51-1.09-1.12-1.07-.61.01-1.09.51-1.07,1.12.01.6.5,1.07,1.1,1.07.59.01,1.08-.45,1.09-1.04,0-.03,0-.05,0-.08Z"/>
        <path class="cls-4" d="M39.12,37.9c0-1.06.81-1.82,1.9-1.82.55-.02,1.08.21,1.44.62l-.52.48c-.22-.26-.54-.41-.88-.41-.62.03-1.1.55-1.07,1.17.03.58.49,1.04,1.07,1.07.34,0,.67-.15.88-.41l.52.48c-.36.42-.89.65-1.45.62-1.08,0-1.89-.75-1.89-1.8Z"/>
        <path class="cls-4" d="M44.29,38.28l-.47.49v.88h-.81v-3.5h.81v1.64l1.55-1.64h.91l-1.45,1.56,1.54,1.94h-.94l-1.13-1.38Z"/>
        <path class="cls-4" d="M47.91,37.9c0-1.06.81-1.82,1.9-1.82.55-.02,1.08.2,1.44.62l-.52.48c-.22-.26-.54-.41-.88-.41-.62-.03-1.14.45-1.17,1.07s.45,1.14,1.07,1.17c.03,0,.07,0,.1,0,.34,0,.67-.15.88-.41l.52.48c-.36.42-.89.65-1.44.62-1.08,0-1.89-.75-1.89-1.8Z"/>
        <path class="cls-4" d="M55.01,36.15v3.5h-.81v-1.44h-1.59v1.44h-.81v-3.5h.81v1.38h1.59v-1.38h.81Z"/>
        <path class="cls-4" d="M58.14,38.9h-1.62l-.31.75h-.83l1.56-3.5h.8l1.56,3.5h-.85l-.31-.75ZM57.89,38.29l-.55-1.34-.55,1.34h1.11Z"/>
        <path class="cls-4" d="M59.67,36.15h.81v3.5h-.81v-3.5Z"/>
        <path class="cls-4" d="M64.52,36.15v3.5h-.66l-1.75-2.12v2.12h-.8v-3.5h.67l1.74,2.12v-2.12h.8Z"/>
        <path class="cls-4" d="M6.08,42.15h1.59c1.14,0,1.93.68,1.93,1.75s-.78,1.75-1.93,1.75h-1.59v-3.5ZM7.63,44.99c.7,0,1.15-.41,1.15-1.08s-.45-1.08-1.15-1.08h-.74v2.17h.74Z"/>
        <path class="cls-4" d="M12.92,45v.65h-2.71v-3.5h2.65v.65h-1.84v.76h1.63v.63h-1.63v.81h1.91Z"/>
        <path class="cls-4" d="M16.89,42.15l-1.52,3.5h-.8l-1.51-3.5h.88l1.07,2.5,1.08-2.5h.81Z"/>
        <path class="cls-4" d="M19.89,45v.65h-2.71v-3.5h2.65v.65h-1.84v.76h1.62v.63h-1.62v.81h1.91Z"/>
        <path class="cls-4" d="M20.53,42.15h.81v2.85h1.76v.66h-2.57v-3.51Z"/>
        <path class="cls-4" d="M23.27,43.9c0-1.04.81-1.82,1.92-1.82s1.92.76,1.92,1.82-.81,1.82-1.92,1.82-1.92-.78-1.92-1.82ZM26.28,43.9c-.01-.61-.51-1.09-1.12-1.07s-1.09.51-1.07,1.12c.01.6.5,1.07,1.1,1.07.59.02,1.08-.45,1.1-1.04,0-.03,0-.05,0-.08Z"/>
        <path class="cls-4" d="M30.75,43.42c0,.78-.58,1.26-1.52,1.26h-.71v.96h-.81v-3.5h1.52c.93,0,1.52.49,1.52,1.27ZM29.92,43.42c0-.39-.25-.61-.74-.61h-.66v1.21h.66c.49,0,.74-.23.74-.6h0Z"/>
        <path class="cls-4" d="M34.51,45.65v-2.1l-1.03,1.73h-.36l-1.03-1.69v2.05h-.76v-3.49h.67l1.31,2.18,1.29-2.18h.66v3.5s-.75,0-.75,0Z"/>
        <path class="cls-4" d="M38.81,45v.65h-2.71v-3.5h2.65v.65h-1.84v.76h1.63v.63h-1.63v.81h1.91Z"/>
        <path class="cls-4" d="M42.66,42.15v3.5h-.66l-1.74-2.12v2.12h-.8v-3.5h.67l1.74,2.13v-2.13h.79Z"/>
        <path class="cls-4" d="M44.22,42.81h-1.12v-.66h3.05v.66h-1.11v2.84h-.81v-2.84Z"/>
        <path class="cls-4" d="M47.78,43.9c0-1.06.81-1.82,1.9-1.82.55-.02,1.08.21,1.44.62l-.52.48c-.22-.26-.54-.41-.88-.41-.62.03-1.1.55-1.07,1.17.03.58.49,1.04,1.07,1.07.34,0,.67-.15.88-.41l.52.48c-.36.42-.89.65-1.44.63-1.08,0-1.9-.75-1.9-1.8Z"/>
        <path class="cls-4" d="M51.37,43.9c0-1.04.81-1.82,1.92-1.82s1.92.76,1.92,1.82-.81,1.82-1.92,1.82-1.92-.78-1.92-1.82ZM54.38,43.9c-.01-.61-.51-1.09-1.12-1.07s-1.09.51-1.07,1.12c.01.6.5,1.07,1.1,1.07.59.02,1.08-.45,1.1-1.04,0-.03,0-.05,0-.08h0Z"/>
        <path class="cls-4" d="M58.99,45.65v-2.1l-1.03,1.73h-.37l-1.03-1.69v2.05h-.76v-3.49h.67l1.31,2.18,1.29-2.18h.67v3.5h-.76Z"/>
        <path class="cls-4" d="M63.62,43.42c0,.78-.59,1.26-1.52,1.26h-.71v.96h-.81v-3.5h1.51c.94,0,1.53.49,1.53,1.27ZM62.8,43.42c0-.39-.25-.61-.75-.61h-.66v1.21h.66c.49,0,.75-.23.75-.6h0Z"/>
        <path class="cls-4" d="M66.32,44.9h-1.63l-.31.75h-.83l1.56-3.5h.8l1.56,3.5h-.84l-.32-.75ZM66.07,44.29l-.55-1.33-.55,1.34h1.11Z"/>
        <path class="cls-4" d="M71.06,42.15v3.5h-.66l-1.75-2.12v2.12h-.8v-3.5h.67l1.74,2.13v-2.13h.8Z"/>
        <path class="cls-4" d="M73.57,44.41v1.24h-.81v-1.25l-1.36-2.25h.86l.93,1.56.93-1.56h.8l-1.35,2.26Z"/>
        <path class="cls-1" d="M16.1,44.28c2.71,10.9,11.58,19.18,22.64,21.12l.21.04.33-.06c11.37-2.05,20.01-10.42,22.66-21.09-6.51-.43-14.53-.68-22.97-.68s-16.39.25-22.88.68Z"/>
        <path class="cls-2" d="M40.33,71.93l-.33.06-.21-.04c-11.06-1.94-19.94-10.22-22.64-21.12,6.49-.43,14.48-.68,22.89-.68s16.46.25,22.97.68c-2.66,10.67-11.31,19.04-22.67,21.09Z"/>
        <path class="cls-2" d="M57.05,14.49h-9.31c-1.03,3.24-4.04,5.44-7.44,5.44h0c-3.4,0-6.41-2.2-7.44-5.44h-9.91c-1.54,4.09-4.39,7.55-8.11,9.85.45,2.28.78,4.58.99,6.9h48.44c.21-2.29.54-4.57.99-6.82-3.77-2.3-6.67-5.79-8.22-9.93Z"/>
        <path class="cls-6" d="M40.3,5.88c-3.46,0-6.26,2.8-6.26,6.25,0,3.46,2.8,6.26,6.25,6.26,3.46,0,6.26-2.8,6.26-6.25,0,0,0,0,0,0,0-3.45-2.8-6.25-6.25-6.25,0,0,0,0,0,0Z"/>
        <polygon class="cls-4" points="40.81 9.94 37.27 9.94 37.27 10.99 39.04 10.99 39.04 11.12 39.04 15.48 40.33 15.48 40.33 11.12 40.33 10.99 40.81 10.99 40.81 15.48 42.1 15.48 42.1 10.99 42.1 9.94 40.81 9.94"/>
        <rect class="cls-4" x="40.81" y="8.5" width="1.28" height="1.04"/>
      </g>
    </g>
  </g>
</svg>