<?xml version="1.0" encoding="UTF-8"?>
<svg id="Layer_1" data-name="Layer 1" xmlns="http://www.w3.org/2000/svg" viewBox="0 0 40 40">
  <defs>
    <style>
      .cls-1 {
        fill-rule: evenodd;
      }
    </style>
  </defs>
  <path class="cls-1" d="M26.18,23.94l-5.83,2.08v-6.86l5.83-2.08v6.86ZM20.15,0h-.59c-1.53.15-2.73,1.44-2.73,3.01s1.09,2.74,2.52,2.98v2.74c-2.83.12-5.39,1.25-7.35,3.05l-1.84-1.84c.64-.97.54-2.29-.32-3.14-.98-.97-2.56-.97-3.53,0s-.97,2.56,0,3.53c.48.49,1.13.73,1.77.73.48,0,.96-.14,1.38-.41l1.84,1.84c-1.75,1.91-2.88,4.4-3.04,7.15h-2.26c-.24-1.43-1.48-2.52-2.98-2.52-1.67,0-3.02,1.36-3.02,3.02s1.36,3.02,3.02,3.02c1.5,0,2.74-1.09,2.98-2.53h2.24c.07,2.9,1.22,5.54,3.06,7.54l-1.84,1.84c-.97-.64-2.29-.54-3.14.32-.97.97-.97,2.56,0,3.53.48.49,1.13.73,1.77.73s1.28-.24,1.77-.73c.85-.85.96-2.17.32-3.14l1.84-1.84c2.02,1.85,4.69,3.01,7.63,3.06v2.05c-1.43.24-2.52,1.48-2.52,2.98,0,1.67,1.36,3.02,3.02,3.02s3.02-1.36,3.02-3.02c0-1.5-1.09-2.74-2.52-2.98v-2.07c2.71-.18,5.17-1.3,7.06-3.03l1.84,1.84c-.64.97-.54,2.29.32,3.14.49.49,1.13.73,1.77.73s1.28-.24,1.77-.73c.97-.97.97-2.56,0-3.53-.85-.85-2.18-.96-3.14-.32l-1.84-1.84c1.89-2.06,3.05-4.82,3.06-7.83h2.53c.24,1.43,1.48,2.52,2.98,2.52,1.67,0,3.03-1.36,3.03-3.02s-1.36-3.02-3.03-3.02c-1.49,0-2.74,1.09-2.98,2.53h-2.57c-.22-2.63-1.33-5.02-3.02-6.86l1.84-1.84c.42.28.9.41,1.38.41.64,0,1.28-.24,1.77-.73.97-.97.97-2.56,0-3.53s-2.56-.97-3.53,0c-.85.85-.96,2.17-.32,3.14l-1.84,1.84c-1.95-1.79-4.52-2.93-7.35-3.05v-2.74c1.43-.24,2.52-1.48,2.52-2.98,0-1.57-1.2-2.86-2.73-3.01h0ZM13.52,17.08l5.83,2.08v6.86l-5.83-2.08v-6.86ZM19.85,14.47l-5.34,1.9,5.34,1.9,5.34-1.9-5.34-1.9ZM26.97,15.97s-.08-.05-.12-.06h0s-6.83-2.43-6.83-2.43c-.11-.04-.23-.04-.33,0l-6.83,2.43h0s-.08.04-.12.06c-.13.09-.21.24-.21.41v7.92c0,.21.13.4.33.47l6.83,2.43h0c.05.02.11.03.17.03.05,0,.11,0,.17-.03l6.83-2.43c.2-.07.33-.26.33-.47v-7.92c0-.16-.08-.31-.21-.41h0ZM36.97,21.88c-1.12,0-2.03-.91-2.03-2.03s.91-2.03,2.03-2.03,2.03.91,2.03,2.03-.91,2.03-2.03,2.03ZM19.85,30.95c5.85,0,10.61-4.76,10.61-10.61s-4.76-10.61-10.61-10.61-10.61,4.76-10.61,10.61,4.76,10.61,10.61,10.61h0ZM32.68,31.04c.59.58.59,1.54,0,2.12s-1.54.58-2.12,0c-.59-.58-.59-1.54,0-2.12.29-.29.67-.44,1.06-.44s.77.15,1.06.44ZM22.17,36.97c0,1.12-.91,2.03-2.03,2.03s-2.03-.91-2.03-2.03.91-2.03,2.03-2.03,2.03.91,2.03,2.03ZM9.15,33.16c-.59.58-1.54.58-2.12,0-.59-.58-.59-1.54,0-2.12.29-.29.67-.44,1.06-.44s.77.15,1.06.44c.59.58.59,1.54,0,2.12ZM7.03,9.63c-.59-.58-.59-1.54,0-2.12.29-.29.67-.44,1.06-.44s.77.15,1.06.44c.59.58.59,1.54,0,2.12-.59.58-1.54.58-2.12,0ZM17.83,3.02c0-1.12.91-2.03,2.03-2.03s2.03.91,2.03,2.03-.91,2.03-2.03,2.03-2.03-.91-2.03-2.03ZM30.56,7.51c.29-.29.67-.44,1.06-.44s.77.15,1.06.44c.59.58.59,1.54,0,2.12s-1.54.58-2.12,0c-.59-.58-.59-1.54,0-2.12ZM3.02,22.16c-1.12,0-2.03-.91-2.03-2.03s.91-2.03,2.03-2.03,2.03.91,2.03,2.03-.91,2.03-2.03,2.03Z"/>
</svg>