<?xml version="1.0" encoding="UTF-8"?>
<svg id="Layer_1" data-name="Layer 1" xmlns="http://www.w3.org/2000/svg" viewBox="0 0 40 40">
  <path d="M35.44,6.09c-7.54-.39-12.53-4.23-13.87-5.39-.85-.75-2.27-.74-3.11,0-.93.8-3.51,2.81-7.35,4.12-.35.12-.53.5-.41.85s.5.53.85.41c3.91-1.34,6.55-3.32,7.79-4.38.37-.33.99-.33,1.37,0,1.43,1.24,6.71,5.31,14.68,5.72.36.02.64.31.64.67-.11,11.27-1.81,17.96-5.85,23.09-.23.29-.18.71.11.93.12.09.27.14.41.14.2,0,.39-.09.53-.25,4.24-5.39,6.01-12.31,6.13-23.91,0-1.07-.82-1.95-1.9-2.01h0Z"/>
  <path d="M28.44,33.13c-1.97,1.99-4.43,3.78-7.49,5.45-.57.31-1.32.31-1.89,0-11.09-6.04-14.89-13.73-15.06-30.48,0-.35.28-.65.63-.67,1.43-.07,2.85-.27,4.23-.57.36-.08.59-.44.51-.8s-.44-.59-.8-.51c-1.31.29-2.65.48-4.01.55-1.07.06-1.91.95-1.89,2.01.18,17.34,4.15,25.32,15.76,31.64.48.25,1.03.39,1.57.39s1.09-.13,1.58-.39c3.18-1.73,5.73-3.59,7.8-5.68.26-.26.26-.69,0-.95s-.69-.26-.94,0h0Z"/>
  <path d="M33.18,13.46c.37.01.69-.25.71-.63.05-.87.09-1.77.12-2.7.01-.35-.25-.64-.59-.68-6.35-.76-10.88-3.58-13.01-5.19-.24-.18-.57-.18-.81,0-2.14,1.61-6.67,4.43-13.01,5.19-.34.04-.6.33-.59.68.41,14.47,3.86,21.18,13.68,26.59.1.05.21.08.32.08s.22-.03.32-.08c8.63-4.76,12.24-10.5,13.34-21.19.04-.37-.23-.69-.59-.73-.36-.03-.69.23-.73.59-1.03,10.05-4.39,15.51-12.34,19.98-8.94-5.03-12.19-11.35-12.65-24.68,5.97-.84,10.34-3.41,12.65-5.07,2.3,1.67,6.67,4.23,12.65,5.07-.03.71-.06,1.39-.1,2.06-.02.37.25.69.63.71h.01Z"/>
  <path d="M19.7,14.2l-4,2c-.06.03-.11.07-.17.12-.01.01-.02.03-.03.03-.04.05-.07.1-.11.15,0,.02-.02.04-.03.06-.03.07-.05.15-.05.23v5.33c0,.25.14.48.37.59l4,2h.02c.09.04.18.07.28.07s.19-.03.28-.07h.02l4-2c.23-.11.37-.35.37-.59v-5.33c0-.08-.02-.16-.05-.23,0-.02-.01-.04-.03-.06-.03-.05-.06-.11-.11-.15-.01-.01-.02-.03-.03-.03-.05-.05-.1-.09-.17-.12l-4-2c-.19-.09-.41-.09-.59,0h0ZM16.67,17.88l2.67,1.33v3.85l-2.67-1.33v-3.85ZM20.67,23.06v-3.85l2.67-1.33v3.85l-2.67,1.33ZM22.51,16.8l-2.51,1.25-2.51-1.25,2.51-1.25,2.51,1.25Z"/>
  <path d="M11.33,19.46c0,4.78,3.89,8.67,8.67,8.67s8.67-3.89,8.67-8.67-3.89-8.67-8.67-8.67-8.67,3.89-8.67,8.67ZM27.34,19.46c0,4.05-3.29,7.34-7.33,7.34s-7.33-3.29-7.33-7.34,3.29-7.34,7.33-7.34,7.33,3.29,7.33,7.34Z"/>
</svg>