<?xml version="1.0" encoding="UTF-8"?>
<svg id="Layer_1" data-name="Layer 1" xmlns="http://www.w3.org/2000/svg" viewBox="0 0 40 40">
  <defs>
    <style>
      .cls-1 {
        fill: none;
        stroke: #000;
        stroke-linecap: round;
        stroke-linejoin: round;
        stroke-width: 1.2px;
      }
    </style>
  </defs>
  <path class="cls-1" d="M30.97,21.34v2.48c0,1.44-.78,2.78-2.04,3.48l-6.97,3.92c-.6.34-1.27.51-1.96.51s-1.36-.18-1.96-.51l-6.97-3.92c-1.26-.71-2.04-2.04-2.04-3.48v-7.63c0-1.44.78-2.78,2.04-3.48l6.97-3.92c.6-.34,1.27-.51,1.96-.51s1.36.18,1.96.51l6.97,3.92c1.26.71,2.04,2.04,2.04,3.48v2.48"/>
  <path class="cls-1" d="M11.58,21.34v2.48c0,.52.28,1.01.74,1.26l6.97,3.92c.44.25.98.25,1.42,0l6.97-3.92c.46-.26.74-.74.74-1.26v-7.63c0-.52-.28-1.01-.74-1.26l-6.97-3.92c-.44-.25-.98-.25-1.42,0l-6.97,3.92c-.46.26-.74.74-.74,1.26v2.48"/>
  <path class="cls-1" d="M21.34,24.62h2.37c.51,0,.93-.42.93-.93v-4.32c0-.51-.42-.93-.93-.93h-7.41c-.51,0-.93.42-.93.93v4.32c0,.51.42.93.93.93h2.37"/>
  <path class="cls-1" d="M17.68,18.45v-2.3c0-1.28,1.04-2.32,2.32-2.32h0c1.28,0,2.32,1.04,2.32,2.32v2.3"/>
  <circle class="cls-1" cx="20" cy="21.54" r="1.16"/>
  <line class="cls-1" x1="34.15" y1="29.41" x2="21.41" y2="36.57"/>
  <line class="cls-1" x1="18.59" y1="3.43" x2="5.85" y2="10.59"/>
  <line class="cls-1" x1="4.44" y1="26.99" x2="4.44" y2="13.01"/>
  <line class="cls-1" x1="18.59" y1="36.57" x2="5.85" y2="29.41"/>
  <line class="cls-1" x1="35.56" y1="26.99" x2="35.56" y2="13.01"/>
  <line class="cls-1" x1="34.15" y1="10.59" x2="21.41" y2="3.43"/>
  <circle class="cls-1" cx="20" cy="2.63" r="1.62"/>
  <circle class="cls-1" cx="35.56" cy="11.38" r="1.62"/>
  <circle class="cls-1" cx="4.44" cy="11.38" r="1.62"/>
  <circle class="cls-1" cx="20" cy="37.37" r="1.62"/>
  <circle class="cls-1" cx="35.56" cy="28.62" r="1.62"/>
  <circle class="cls-1" cx="4.44" cy="28.62" r="1.62"/>
</svg>