<?xml version="1.0" encoding="UTF-8"?>
<svg id="Layer_1" data-name="Layer 1" xmlns="http://www.w3.org/2000/svg" viewBox="0 0 40 40">
  <path d="M14.53,10.47c-.21-.19-.23-.52-.03-.73s.52-.23.73-.03l2.3,2.11c.23.21.23.56,0,.76l-2.3,2.11c-.21.19-.54.17-.73-.03s-.18-.54.03-.73l1.9-1.73-1.9-1.73ZM11.53,14.83c-.12.26-.43.36-.69.24s-.36-.43-.24-.69l2.33-4.82c.12-.26.43-.36.69-.24s.36.43.24.69l-2.33,4.82ZM9.24,9.71c.21-.19.54-.18.73.03.19.21.18.54-.03.73l-1.9,1.73,1.9,1.73c.21.19.23.52.03.73s-.52.23-.73.03l-2.31-2.11c-.23-.21-.23-.55,0-.76l2.31-2.11ZM27.8,24.45c2.23,0,4.03,1.8,4.03,4.03s-1.8,4.03-4.03,4.03-4.03-1.8-4.03-4.03,1.8-4.03,4.03-4.03ZM29.91,26.36c-1.17-1.17-3.06-1.17-4.22,0s-1.17,3.06,0,4.22,3.06,1.17,4.22,0c1.17-1.16,1.17-3.06,0-4.22ZM26.66,20.5h2.28c.29,0,.52.23.52.52v1.07c.59.16,1.16.39,1.68.7l.75-.75c.21-.21.54-.21.74,0l1.61,1.61c.2.2.2.53,0,.74l-.76.75c.3.53.55,1.09.7,1.68h1.07c.29,0,.52.23.52.52v2.28c0,.3-.24.54-.56.52h-1.02c-.16.59-.39,1.16-.7,1.69l.76.75c.2.21.2.54,0,.74l-1.61,1.61c-.21.2-.54.2-.74,0l-.75-.76c-.53.31-1.09.55-1.68.7v1.07c0,.29-.23.52-.52.52h-2.28c-.29,0-.52-.23-.52-.52v-1.07c-.59-.16-1.16-.39-1.68-.7l-.75.76c-.21.2-.54.2-.74,0l-1.61-1.61c-.21-.21-.21-.54,0-.74l.75-.75c-.3-.53-.55-1.09-.7-1.68h-1.07c-.29,0-.52-.23-.52-.52v-2.28c0-.29.23-.52.52-.52h1.07c.16-.59.39-1.16.7-1.68l-.75-.75c-.21-.21-.21-.54,0-.74l1.61-1.61c.2-.21.53-.21.74,0l.75.75c.53-.3,1.09-.55,1.69-.7v-1.07c-.02-.29.22-.53.5-.53ZM28.42,21.54h-1.24v.94c.02.26-.16.49-.42.54-.68.13-1.51.45-2.05.85-.21.16-.5.14-.68-.04l-.68-.68-.87.87.68.68c.17.17.21.45.06.66-.22.31-.4.65-.54,1-.14.34-.24.68-.32,1.05-.03.26-.25.46-.52.46h-.97v1.24h.97c.24,0,.46.17.51.42.13.68.45,1.51.85,2.06.16.21.15.5-.04.68l-.68.68.87.87.68-.68c.17-.17.45-.21.66-.06.31.21.65.39,1,.54.34.14.68.24,1.05.32.26.03.46.25.46.52v.96h1.24v-.96c0-.24.17-.47.42-.51.68-.13,1.51-.45,2.05-.85.21-.16.5-.15.68.04l.68.68.87-.87-.68-.68c-.17-.17-.21-.45-.06-.66.42-.62.72-1.33.86-2.08.04-.23.25-.42.51-.42h.96v-1.24h-.96c-.24,0-.47-.17-.51-.42-.13-.68-.45-1.51-.85-2.05-.16-.21-.15-.5.04-.68l.68-.68-.87-.87-.68.68c-.17.17-.45.21-.66.06-.31-.22-.65-.4-1-.54-.34-.14-.68-.24-1.05-.32-.26-.03-.46-.25-.46-.52v-.97h0ZM26.87,38.67c.29.03.5.27.48.55s-.27.5-.55.48c-7.13-.56-12.08-7.4-10.34-14.39-.42-.08-.57-.59-.27-.88l.86-.81c.29-.28.78-.13.87.27l.25,1.21c.09.42-.35.75-.73.57-1.51,6.34,2.99,12.49,9.44,13h0ZM4.76,21c-.22-.18-.24-.51-.06-.73s.51-.24.73-.06c2.96,2.53,7.1,3.22,10.74,1.79,1.22-.48,2.42-1.23,3.35-2.1,2.26-2.24,5.22-3.36,8.19-3.35,2.89,0,5.78,1.08,8.03,3.23.27-.31.78-.2.89.21l.32,1.18c.1.39-.27.76-.68.62l-1.17-.38c-.42-.13-.48-.68-.13-.92-2.03-1.93-4.65-2.89-7.26-2.9-2.7,0-5.4,1.01-7.46,3.06l-.03.03c-4.31,4-10.97,4.16-15.46.33h0ZM11.77.07c.36-.21.81.08.78.48,7.11.15,12.41,6.61,11.18,13.62-.05.29-.32.47-.6.42-.29-.05-.47-.32-.42-.6,1.11-6.35-3.67-12.23-10.12-12.41.08.42-.36.75-.74.55l-1.11-.56c-.36-.18-.38-.7-.03-.91l1.06-.61ZM2.03,18.63c-.38-.22-.33-.77.07-.93C.01,13.86.26,9.18,2.73,5.58c1.32-1.92,3.21-3.43,5.43-4.28.27-.1.56.03.67.3s-.03.56-.3.67C3.29,4.28.5,10.04,2.24,15.41c.2.62.46,1.22.76,1.79.32-.28.83-.07.86.36l.07,1.24c.02.41-.42.68-.78.48l-1.12-.65ZM31,39.27c.17.4-.19.82-.61.71l-1.26-.34c-.38-.1-.55-.61-.18-.91l.9-.81c.32-.29.83-.08.86.35,3.8-1.13,6.67-4.32,7.39-8.21.39-2.1.14-4.28-.74-6.25-.11-.26,0-.56.26-.68s.56,0,.68.26c2.52,5.62.21,12.26-5.3,15.08-.64.33-1.31.6-1.99.8h0ZM12.23,19.67c-4.13,0-7.47-3.34-7.47-7.47s3.34-7.47,7.47-7.47,7.47,3.34,7.47,7.47c0,4.13-3.34,7.47-7.47,7.47ZM7.68,16.74c2.51,2.51,6.59,2.51,9.1,0s2.51-6.59,0-9.1-6.59-2.51-9.1,0c-2.51,2.52-2.51,6.59,0,9.1Z"/>
</svg>