<?xml version="1.0" encoding="UTF-8"?>
<svg id="Layer_1" data-name="Layer 1" xmlns="http://www.w3.org/2000/svg" viewBox="0 0 40 40">
  <path d="M24.64,24.22s.06.02.09.03c.02,0,.04.02.05.02.06.01.11.02.17.02s.11,0,.17-.02c.02,0,.04-.01.05-.02.03-.01.06-.02.09-.03l6.88-3.66c.22-.12.35-.34.35-.59v-8.22c0-.06,0-.12-.02-.17,0-.02-.01-.03-.02-.05-.01-.04-.03-.08-.05-.12-.01-.02-.02-.04-.04-.05-.02-.03-.04-.06-.07-.09-.02-.02-.03-.03-.05-.04-.02-.01-.03-.03-.05-.04-.01,0-.03-.01-.04-.02-.01,0-.02-.01-.03-.02l-6.88-3.34c-.18-.09-.4-.09-.58,0l-6.88,3.34s-.02.01-.03.02c-.01,0-.03.01-.04.02-.02.01-.03.03-.05.04-.02.01-.04.03-.05.04-.03.03-.05.06-.07.09-.01.02-.03.03-.04.05-.02.04-.04.08-.05.12,0,.02-.01.03-.02.05-.01.06-.02.11-.02.17v8.22c0,.25.14.47.35.59l6.88,3.66ZM18.73,12.78l5.55,2.49v7.25l-5.55-2.95v-6.79ZM25.62,22.52v-7.26l5.55-2.49v6.79l-5.55,2.95ZM24.95,9.15l5.31,2.58-5.31,2.38-5.31-2.38,5.31-2.58Z"/>
  <path d="M39.93,8.24s0-.02-.01-.03c-.01-.05-.03-.09-.05-.13-.01-.02-.02-.03-.04-.05-.02-.03-.04-.06-.07-.09-.02-.02-.03-.03-.05-.04-.02-.02-.04-.03-.06-.05-.01,0-.02-.01-.04-.02,0,0-.02-.01-.02-.02L25.25.49c-.19-.1-.42-.1-.61,0l-14.33,7.33s-.02.02-.04.03c0,0-.01,0-.02.01-.01,0-.02.02-.03.03-.03.02-.06.04-.08.07-.02.02-.03.03-.04.05-.02.03-.04.05-.06.09-.01.02-.02.05-.03.07-.01.03-.03.05-.03.08-.01.05-.02.11-.02.17v9.79c0,.37.3.67.67.67s.67-.3.67-.67v-8.76l4.36,1.95s.06.03.09.04c.02,0,.04.02.06.03.06.02.12.03.19.03.37,0,.66-.3.66-.67,0-.05-.02-.09-.03-.14,0-.05-.01-.1-.03-.14,0,0,0,0,0,0,0,0,0,0,0,0-.02-.04-.05-.07-.08-.11-.02-.03-.03-.06-.06-.08,0,0,0,0,0,0-.06-.05-.12-.1-.19-.13l-4.09-1.83L24.95,1.83l12.79,6.54-4.09,1.83c-.08.03-.15.08-.2.14-.12.12-.19.29-.19.47,0,.37.3.67.67.67.12,0,.24-.03.34-.09l4.35-1.95v13.11l-13,7.73v-4.36h0c0-.37-.3-.67-.67-.67s-.67.3-.67.67h0v4.36l-1.78-1.06c-.32-.19-.73-.08-.91.23-.19.32-.08.73.23.91l2.79,1.66s0,0,0,0c0,0,0,0,0,0,.1.06.22.09.33.09.09,0,.18-.02.27-.06.02,0,.04-.01.06-.02,0,0,0,0,0,0,0,0,0,0,0,0l14.33-8.52c.2-.12.33-.34.33-.57v-14.52c0-.06,0-.11-.02-.17Z"/>
  <path d="M10.06,28.97c-1.1,0-2,.9-2,2s.9,2,2,2,2-.9,2-2-.9-2-2-2ZM10.06,31.64c-.37,0-.67-.3-.67-.67s.3-.67.67-.67.67.3.67.67-.3.67-.67.67Z"/>
  <path d="M10.66,20.21c-.2-.01-.4-.02-.6-.02C4.49,20.19-.05,24.72-.05,30.3c0,3.91,2.28,7.5,5.82,9.15,0,0,0,0,0,0,1.34.64,2.79.96,4.29.96s2.93-.32,4.28-.95c0,0,0,0,0,0,0,0,0,0,0,0,3.54-1.66,5.83-5.25,5.83-9.16,0-.8-.1-1.61-.29-2.4-1.04-4.28-4.84-7.44-9.23-7.69ZM6.73,38.42v-1.45h6.67v1.46c-2.12.87-4.56.87-6.67,0ZM12.14,33.99c-.12.23-.23.47-.32.71-.02.06-.05.12-.07.18-.09.24-.17.49-.23.75,0,0,0,0,0,0h-2.91s0,0,0,0c-.06-.25-.14-.5-.23-.75-.02-.06-.05-.12-.07-.18-.1-.24-.2-.48-.33-.72-.64-1.21-1.52-2.02-2.29-2.54l4.37-6.01,4.37,6.01c-.77.53-1.65,1.34-2.29,2.55ZM14.73,37.74v-.77c0-.74-.6-1.33-1.33-1.33h-.48s.01-.07.03-.1c.01-.04.03-.08.05-.13.09-.27.2-.54.34-.79.67-1.26,1.67-2,2.4-2.4.17-.09.29-.25.33-.44s0-.38-.11-.54l-5.33-7.33c-.25-.34-.83-.34-1.08,0l-5.33,7.33c-.11.16-.15.35-.11.54s.16.35.33.44c.59.32,1.69,1.06,2.4,2.4.08.15.15.31.22.47.02.05.04.11.06.17.04.1.08.21.11.32,0,.02.01.05.02.07h-.5c-.74,0-1.33.6-1.33,1.33v.77c-2.53-1.59-4.11-4.4-4.11-7.43,0-4.84,3.94-8.78,8.78-8.78.17,0,.33,0,.51.02,3.81.22,7.11,2.96,8.02,6.68.17.69.25,1.39.25,2.08,0,3.03-1.58,5.84-4.11,7.44Z"/>
</svg>