<?xml version="1.0" encoding="UTF-8"?>
<svg id="Layer_2" data-name="Layer 2" xmlns="http://www.w3.org/2000/svg" viewBox="0 0 119.68 119.68">
  <defs>
    <style>
      .cls-1 {
        fill: #fff;
      }
    </style>
  </defs>
  <g id="Layer_1-2" data-name="Layer 1">
    <g>
      <path d="M119.68,59.84c0,30.67-23.08,55.95-52.82,59.43-2.3.27-4.65.41-7.02.41-3.71,0-7.34-.34-10.87-.98C21.11,113.58,0,89.18,0,59.84,0,26.79,26.79,0,59.84,0s59.84,26.79,59.84,59.84Z"/>
      <path class="cls-1" d="M66.36,49.61v11.07h16.63l-2.75,17.06h-13.88v41.53c-2.37.28-4.79.42-7.24.42-3.82,0-7.57-.35-11.2-1.01v-40.93h-15.12v-17.06h15.12v-13c0-14.79,8.81-22.95,22.29-22.95,6.46,0,13.21,1.15,13.21,1.15v14.52h-7.44c-7.33,0-9.62,4.55-9.62,9.21Z"/>
    </g>
  </g>
</svg>