<?xml version="1.0" encoding="UTF-8"?>
<svg id="Layer_2" data-name="Layer 2" xmlns="http://www.w3.org/2000/svg" viewBox="0 0 103.74 103.74">
  <g id="Layer_1-2" data-name="Layer 1">
    <g>
      <path d="M85.37,24.53c0,3.28-2.67,5.95-5.95,5.95s-5.95-2.67-5.95-5.95,2.67-5.95,5.95-5.95,5.95,2.67,5.95,5.95Z"/>
      <path d="M52.3,26.4c-14.05,0-25.47,11.43-25.47,25.47s11.43,25.47,25.47,25.47,25.47-11.43,25.47-25.47-11.43-25.47-25.47-25.47ZM52.3,68.44c-9.13,0-16.57-7.43-16.57-16.57s7.43-16.57,16.57-16.57,16.57,7.43,16.57,16.57-7.43,16.57-16.57,16.57Z"/>
      <path d="M72.64,0H31.1C13.95,0,0,13.95,0,31.1v41.54c0,17.15,13.95,31.1,31.1,31.1h41.54c17.15,0,31.1-13.95,31.1-31.1V31.1c0-17.15-13.95-31.1-31.1-31.1ZM94.26,72.64c0,11.92-9.7,21.62-21.62,21.62H31.1c-11.92,0-21.62-9.7-21.62-21.62V31.1c0-11.92,9.7-21.62,21.62-21.62h41.54c11.92,0,21.62,9.7,21.62,21.62v41.54Z"/>
    </g>
  </g>
</svg>