<?xml version="1.0" encoding="UTF-8"?>
<svg id="Layer_2" data-name="Layer 2" xmlns="http://www.w3.org/2000/svg" viewBox="0 0 119.68 119.68">
  <defs>
    <style>
      .cls-1 {
        fill: #fff;
      }
    </style>
  </defs>
  <g id="Layer_1-2" data-name="Layer 1">
    <g>
      <rect width="119.68" height="119.68" rx="11.09" ry="11.09"/>
      <g>
        <path class="cls-1" d="M101.07,71.38v31.23h-17.69v-27.69c0-6.61-.13-15.1-9.2-15.1s-10.62,7.19-10.62,14.62v28.17h-17.69v-56.95h16.98v7.64c0,.08.07.15.15.15.05,0,.1-.03.13-.08,2.39-4.46,8.15-9.12,16.72-9.12,17.92,0,21.23,11.79,21.23,27.12Z"/>
        <g>
          <rect class="cls-1" x="16.9" y="45.53" width="18" height="57.22"/>
          <g>
            <path class="cls-1" d="M97.41,52c-3.34-5.3-9.05-7.87-17.45-7.87-3.93,0-7.65,1.01-10.75,2.91-2.61,1.6-4.78,3.83-6.09,6.28,0,0,0,0,0,0,0,0-.01,0-.01-.01v-7.78h-17.25v57.22h17.96v-28.3c0-7.16,1.25-14.49,10.49-14.49s9.07,8.65,9.07,14.97v27.82h17.96v-31.37c0-9.11-1.21-15.09-3.91-19.39Z"/>
            <rect class="cls-1" x="16.64" y="45.4" width="18.26" height="57.49"/>
            <path class="cls-1" d="M25.89,17.23c-5.73,0-10.4,4.66-10.4,10.4s4.66,10.4,10.4,10.4,10.4-4.66,10.4-10.4-4.66-10.4-10.4-10.4Z"/>
          </g>
          <circle class="cls-1" cx="25.77" cy="27.63" r="10.26" transform="translate(-5.63 48.65) rotate(-80.78)"/>
        </g>
      </g>
    </g>
  </g>
</svg>