<?xml version="1.0" encoding="UTF-8"?>
<svg id="Layer_1" data-name="Layer 1" xmlns="http://www.w3.org/2000/svg" viewBox="0 0 80 80">
  <defs>
    <style>
      .cls-1, .cls-2 {
        fill: #3672ff;
      }

      .cls-2 {
        fill-rule: evenodd;
      }

      .cls-3 {
        fill: #fff;
      }

      .cls-4 {
        fill: #242f46;
      }
    </style>
  </defs>
  <g id="TB-truste-on-tranparent-light-bg">
    <g id="Logo">
      <path id="Path_1464" data-name="Path 1464" class="cls-4" d="M33.63,27.46h1.82v-.43h-4.07v.43h1.81v4.69h.44v-4.69ZM37.08,28.5c-.41,0-.79.22-.99.58l-.07-.58h-.34v3.66h.42v-2.08c0-.73.33-1.18.97-1.18h.45v-.4h-.45ZM40.85,28.5v2c0,.77-.39,1.32-1.13,1.32-.61,0-1.05-.39-1.05-1.21v-2.11h-.42v2.19c0,.94.54,1.54,1.4,1.54.5.03.98-.24,1.21-.69l.07.61h.34v-3.66h-.41ZM42.17,31.11c.02.68.56,1.12,1.51,1.12.83,0,1.46-.4,1.46-1.1,0-.58-.33-.87-.98-.97l-.78-.12c-.5-.07-.71-.25-.71-.6,0-.42.39-.67.96-.67s.99.26,1.01.76h.42c-.01-.73-.61-1.12-1.44-1.12-.78,0-1.36.4-1.36,1.02,0,.58.35.88,1.04.98l.78.12c.44.06.63.25.63.62,0,.45-.41.7-1.05.7s-1.04-.28-1.06-.76h-.44ZM47.05,32.15h.46v-.39h-.4c-.23.03-.43-.13-.46-.36,0-.04,0-.08,0-.11v-2.41h.87v-.38h-.87v-.94h-.42v.63c0,.21-.08.31-.31.31h-.38v.38h.69v2.44c-.05.41.24.79.66.84.05,0,.11,0,.16,0ZM51.67,30.21c.07-.92-.62-1.72-1.54-1.79-.06,0-.13,0-.19,0-.96-.02-1.75.73-1.78,1.69,0,.07,0,.14,0,.21-.09.95.61,1.8,1.57,1.89.07,0,.14,0,.22,0,.76.04,1.45-.45,1.67-1.18h-.43c-.19.51-.69.84-1.24.82-.72.03-1.32-.53-1.35-1.25,0-.05,0-.1,0-.15h3.06v-.23ZM49.93,28.78c.69-.03,1.27.51,1.3,1.2,0,.04,0,.07,0,.11h-2.62c0-.71.56-1.3,1.28-1.31.02,0,.03,0,.05,0ZM55.58,26.81v2.33c-.31-.47-.84-.74-1.4-.72-.98,0-1.77.8-1.76,1.78,0,.05,0,.1,0,.15-.08.95.62,1.79,1.58,1.87.06,0,.12,0,.18,0,.56.01,1.1-.27,1.4-.74l.07.67h.35v-5.34h-.42ZM54.21,31.86c-.79,0-1.35-.56-1.35-1.51s.55-1.54,1.35-1.55c.75,0,1.35.6,1.35,1.55.08.75-.46,1.42-1.21,1.5-.05,0-.09,0-.14,0ZM58.44,30.33c-.07.97.66,1.82,1.64,1.89.06,0,.13,0,.19,0,.98.04,1.8-.73,1.83-1.7,0-.06,0-.13,0-.19.08-.98-.65-1.83-1.63-1.9-.07,0-.13,0-.2,0-.98-.03-1.8.73-1.83,1.71,0,.07,0,.13,0,.2ZM58.88,30.32c-.09-.76.46-1.44,1.21-1.53.06,0,.12,0,.18,0,.76-.01,1.39.6,1.4,1.36,0,.06,0,.12,0,.18.08.76-.46,1.44-1.22,1.52-.06,0-.12,0-.17,0-.76.01-1.39-.6-1.4-1.36,0-.06,0-.12,0-.17ZM64.72,28.42c-.51-.04-1,.23-1.24.69l-.07-.61h-.34v3.66h.42v-2c0-.77.4-1.32,1.17-1.32.63,0,1.08.39,1.08,1.21v2.11h.42v-2.19c.09-.76-.46-1.44-1.22-1.53-.07,0-.15-.01-.22,0Z"/>
      <g id="shield">
        <path id="computer-security-shield" class="cls-1" d="M64.82,36.19c-1.61.08-3.18-.5-4.36-1.6-1.18,1.1-2.75,1.68-4.36,1.6,0,2.87-.61,6.97,4.36,8.64,4.98-1.67,4.36-5.77,4.36-8.64Z"/>
        <path id="checked" class="cls-3" d="M58.51,39.86l1.5,1.56,2.89-2.99-.41-.42-2.47,2.56-1.09-1.13-.41.43Z"/>
      </g>
      <path id="Path_1460" data-name="Path 1460" class="cls-4" d="M36.91,37.05v1.97h-.56l-.28-1.32h-1.33v4.94l.93.21v.51h-3v-.51l.93-.21v-4.94h-1.34l-.27,1.32h-.56v-1.97h5.49ZM38.23,41.12c-.01.34.05.68.18.99.15.39.54.64.97.62.27,0,.53-.06.77-.17.26-.12.48-.3.65-.53l.47.37c-.22.31-.5.56-.83.75-.39.22-.84.32-1.29.31-.39.01-.77-.08-1.11-.26-.31-.17-.56-.44-.71-.76-.09-.19-.16-.39-.2-.6-.04-.24-.06-.48-.06-.72-.04-.68.16-1.35.56-1.9.4-.46,1-.71,1.61-.67.29,0,.58.05.86.15.25.09.47.23.65.41.18.19.32.41.41.66.1.28.15.58.15.88,0,.07,0,.13,0,.19,0,.06-.01.16-.02.29h-3.06ZM39.23,39.15c-.6,0-.93.47-.99,1.41h1.93v-.23c.02-.31-.07-.62-.24-.88-.17-.21-.43-.32-.7-.31ZM44.26,38.54c.25,0,.5.03.75.1.21.06.41.15.59.28.16.11.29.26.39.43.09.17.14.37.14.56.02.22-.06.44-.21.6-.14.14-.32.21-.52.21-.1,0-.2-.02-.29-.06-.07-.04-.14-.09-.19-.15-.05-.06-.09-.13-.11-.21-.02-.07-.03-.15-.03-.23,0-.13.03-.27.11-.38.08-.11.2-.19.33-.23-.1-.12-.23-.2-.37-.25-.18-.07-.36-.1-.55-.1-.17,0-.34.03-.5.1-.15.07-.27.18-.36.31-.11.17-.19.37-.23.57-.06.29-.08.58-.08.87,0,.25.01.5.06.75.03.16.09.32.17.47.09.16.21.3.36.4.17.1.36.15.56.15.13,0,.25-.02.37-.04.13-.03.26-.07.39-.13.13-.06.25-.13.36-.22.12-.09.22-.2.3-.32l.47.37c-.24.35-.57.63-.95.81-.36.16-.76.24-1.15.24-.38.01-.76-.07-1.11-.25-.3-.17-.55-.42-.7-.73-.11-.2-.18-.42-.23-.65-.06-.26-.09-.52-.08-.79,0-.35.05-.7.16-1.03.1-.29.25-.56.45-.79.2-.22.45-.39.72-.5.31-.12.64-.18.97-.18ZM50.3,41.01c0-.19,0-.35,0-.49,0-.14-.01-.26-.02-.36,0-.09-.02-.17-.04-.26-.02-.06-.04-.12-.07-.18-.15-.29-.45-.46-.77-.43-.17,0-.33.04-.47.12-.15.08-.28.2-.36.35-.05.1-.1.21-.12.32-.04.16-.06.33-.05.5v2.12l.59.17v.49h-2.38v-.49l.68-.17v-5.53l-.68-.17v-.49h1.79v2.93c.14-.27.35-.5.6-.67.24-.16.53-.25.82-.24.22,0,.43.03.64.09.17.06.33.16.45.29.19.21.33.47.4.75.09.4.14.81.13,1.22v1.81l.68.17v.49h-2.38v-.49l.59-.17v-1.69ZM36.68,48.32c0,.33-.12.64-.33.89-.11.12-.23.22-.37.3-.15.08-.3.13-.47.15v.04c.41.08.79.28,1.08.59.26.29.41.68.39,1.07,0,.32-.09.64-.26.91-.16.26-.38.47-.65.61-.09.04-.18.08-.27.11-.11.03-.22.06-.34.07-.15.02-.29.04-.44.04-.16,0-.35.01-.57.01h-2.89v-.51l.74-.18v-4.93l-.74-.18v-.51h3.21c.51-.03,1.02.13,1.42.45.15.14.27.31.36.49.08.18.13.38.13.58ZM33.44,50.14v2.32h.7c.22,0,.43-.01.65-.04.14-.02.28-.07.41-.14.16-.09.3-.22.39-.39.1-.19.15-.4.15-.62,0-.18-.03-.36-.11-.52-.07-.14-.17-.25-.29-.35-.12-.09-.26-.15-.4-.19-.21-.05-.42-.07-.63-.07h-.86ZM33.44,49.5h.83c.33.03.66-.08.9-.31.09-.09.17-.2.23-.31.13-.28.13-.59,0-.87-.06-.12-.13-.22-.23-.31-.24-.2-.56-.29-.87-.26h-.87v2.06ZM38.8,50.87c-.01.34.05.68.18.99.15.39.54.64.97.62.27,0,.53-.06.77-.17.26-.12.48-.3.65-.53l.47.37c-.22.31-.5.56-.83.75-.39.22-.84.32-1.29.31-.39.01-.77-.08-1.11-.26-.31-.17-.56-.44-.71-.76-.09-.19-.16-.39-.2-.6-.04-.24-.06-.48-.06-.72-.04-.68.16-1.35.56-1.9.4-.46,1-.71,1.61-.67.29,0,.58.05.86.15.5.18.89.57,1.07,1.07.1.28.15.58.15.88,0,.07,0,.13,0,.19,0,.06-.01.16-.02.29h-3.06ZM39.8,48.9c-.6,0-.93.47-.99,1.41h1.93v-.23c.02-.31-.07-.62-.24-.88-.17-.21-.43-.32-.7-.31h0ZM46.08,50.77c0-.19,0-.35,0-.49,0-.14-.01-.26-.02-.36,0-.09-.02-.17-.04-.26-.02-.06-.04-.12-.07-.18-.15-.29-.45-.46-.77-.43-.17,0-.33.04-.47.12-.15.08-.28.2-.36.35-.05.1-.1.21-.12.32-.04.16-.06.33-.05.5v2.11l.59.17v.49h-2.38v-.49l.68-.17v-5.53l-.68-.17v-.49h1.79v2.93c.14-.27.35-.5.6-.67.24-.16.53-.25.82-.24.22,0,.43.03.64.09.17.06.33.16.45.29.19.21.33.47.4.75.09.4.14.81.13,1.22v1.81l.68.17v.49h-2.38v-.49l.59-.17v-1.69ZM49.46,50.87c-.01.34.05.68.18.99.15.39.54.64.96.62.27,0,.53-.06.77-.17.26-.12.48-.3.65-.53l.47.37c-.22.31-.5.56-.83.75-.39.22-.84.32-1.29.31-.39.01-.77-.08-1.11-.26-.31-.17-.56-.44-.71-.76-.09-.19-.16-.39-.2-.6-.04-.24-.06-.48-.06-.72-.04-.68.16-1.35.56-1.9.4-.46,1-.71,1.61-.67.29,0,.58.05.86.15.5.18.89.57,1.07,1.07.1.28.15.58.15.88,0,.07,0,.13,0,.19,0,.06-.01.16-.02.29h-3.06ZM50.46,48.9c-.6,0-.93.47-.99,1.41h1.93v-.23c.02-.31-.07-.62-.24-.88-.17-.21-.43-.32-.7-.31h0ZM53.8,49.04l-.68-.17v-.49h1.53l.2.88h.04c.16-.29.4-.53.68-.71.27-.17.59-.26.91-.26.22,0,.44.04.65.14.16.07.31.19.41.34.11.18.18.38.23.58.17-.32.42-.58.73-.78.29-.18.62-.28.96-.28.22,0,.44.04.63.14.18.08.33.21.43.37.06.09.1.19.13.3.04.14.07.29.09.43.02.17.04.38.05.61,0,.23.01.51.01.82v1.49l.68.17v.49h-2.39v-.49l.59-.17v-1.69c0-.19,0-.35,0-.49,0-.14-.01-.26-.03-.36,0-.09-.02-.17-.04-.26-.02-.06-.04-.12-.06-.18-.04-.12-.12-.22-.23-.29-.09-.05-.2-.08-.3-.08-.14,0-.27.02-.4.06-.13.05-.24.12-.34.21-.13.11-.22.25-.29.41-.07.19-.11.4-.11.6v2.08l.59.17v.49h-2.29v-.49l.59-.17v-1.69c0-.19,0-.35,0-.49,0-.14-.01-.26-.03-.36,0-.09-.02-.17-.04-.26-.02-.06-.04-.12-.06-.18-.04-.12-.12-.22-.23-.29-.09-.05-.2-.08-.3-.08-.14,0-.27.02-.4.06-.13.05-.24.12-.34.21-.13.11-.22.25-.29.41-.07.19-.11.4-.11.6v2.08l.59.17v.49h-2.38v-.49l.68-.17v-3.42ZM66.47,50.75c0,.36-.05.72-.16,1.06-.09.31-.26.59-.47.83-.19.2-.43.35-.69.44-.63.18-1.29.18-1.91,0-.26-.08-.5-.24-.69-.44-.21-.24-.37-.52-.47-.83-.22-.69-.22-1.43,0-2.12.09-.31.26-.59.47-.83.19-.2.43-.35.69-.44.63-.18,1.29-.18,1.91,0,.26.08.5.24.69.44.21.24.37.52.47.83.11.34.16.7.16,1.06h0ZM63.39,52.27c.4.44,1.09.47,1.53.07.02-.02.04-.04.07-.07.23-.47.32-1,.28-1.52.04-.52-.05-1.05-.28-1.52-.4-.44-1.09-.47-1.53-.07-.02.02-.04.04-.07.07-.23.47-.32,1-.28,1.52-.04.52.05,1.05.28,1.52h0ZM66.84,48.5l.86-.12.11-1.09,1-.14v1.23h1.12v.57h-1.12v2.87c0,.2,0,.33,0,.41,0,.06.02.12.04.18.02.04.06.07.1.08.07.02.15.03.23.03h.61v.39c-.3.09-.6.17-.9.23-.2.04-.41.07-.62.07-.22.02-.44-.11-.51-.32-.03-.09-.05-.18-.06-.27,0-.11-.01-.27-.01-.5v-3.17h-.85v-.45ZM73.88,50.77c0-.19,0-.35,0-.49,0-.14-.01-.26-.02-.36,0-.09-.02-.17-.04-.26-.02-.06-.04-.12-.07-.18-.15-.29-.45-.46-.77-.43-.17,0-.33.04-.47.12-.15.08-.28.2-.36.35-.05.1-.1.21-.12.32-.04.16-.06.33-.05.5v2.12l.59.17v.49h-2.38v-.49l.68-.17v-5.53l-.68-.17v-.49h1.79v2.93c.14-.27.35-.5.6-.67.24-.16.53-.25.82-.24.22,0,.43.03.64.09.17.06.33.16.45.29.19.21.33.47.4.75.09.4.14.81.13,1.22v1.81l.68.17v.49h-2.38v-.49l.59-.17v-1.69ZM77.91,52.67c.14,0,.28-.01.41-.04.12-.03.23-.07.34-.12.09-.05.17-.11.23-.2.06-.08.08-.17.08-.27,0-.11-.04-.22-.11-.31-.08-.09-.18-.17-.29-.23-.13-.07-.26-.13-.4-.17-.15-.05-.3-.1-.44-.15-.18-.05-.36-.12-.53-.2-.17-.08-.33-.18-.47-.3-.14-.12-.25-.26-.33-.43-.09-.18-.13-.38-.12-.58-.01-.39.15-.77.46-1.01.38-.28.84-.41,1.31-.38.25,0,.49.03.73.09.2.05.38.13.55.25.15.1.27.23.36.39.08.15.13.32.13.49.01.17-.05.34-.16.47-.12.11-.28.17-.44.16-.16,0-.31-.04-.44-.14-.1-.08-.16-.2-.16-.32,0-.1.03-.2.09-.29.06-.09.13-.16.23-.21-.09-.11-.2-.2-.33-.26-.16-.07-.34-.1-.51-.09-.22-.02-.44.04-.61.17-.14.12-.21.3-.2.48-.01.2.07.4.23.52.19.13.39.23.61.29.23.07.47.14.69.22.21.07.42.16.61.28.17.1.32.24.43.41.11.17.17.38.16.59,0,.21-.05.43-.16.61-.11.18-.27.34-.45.45-.21.13-.43.22-.67.28-.27.07-.55.1-.83.1-.46.03-.91-.08-1.31-.31-.3-.17-.47-.49-.47-.83-.01-.21.06-.41.2-.56.13-.13.3-.2.48-.2.14,0,.27.04.39.12.12.07.19.2.18.34,0,.11-.04.22-.1.31-.05.09-.13.16-.22.22.07.11.17.2.29.26.18.09.38.13.58.12Z"/>
      <path id="TB-logo" class="cls-2" d="M18.72,38.35h-3.34v-4.17h8.34c0,.82-2.12,4.17-5.01,4.17ZM0,28.22v-1.43h4.86s0,0,0,0h13.06c3.65,0,5.8,2.89,5.8,4.17H3.46c0-1.34-.95-2.74-3.46-2.74ZM3.46,34.18h8.23v4.17H3.46v-4.17ZM11.68,45.75H3.46v-4.17h8.23v4.17ZM15.38,41.57h3.7c3.75,0,5.6,3,5.6,4.17h-9.3v-4.17ZM3.46,48.96h8.23v1.79h3.7v-1.79h9.3c0,1.47-2.68,4.17-5.48,4.17H0v-1.43c2.49,0,3.46-1.32,3.46-2.74Z"/>
    </g>
  </g>
</svg>