<?xml version="1.0" encoding="UTF-8"?>
<svg id="Layer_1" data-name="Layer 1" xmlns="http://www.w3.org/2000/svg" viewBox="0 0 80 80">
  <defs>
    <style>
      .cls-1, .cls-2 {
        fill-rule: evenodd;
      }

      .cls-1, .cls-3 {
        fill: #3e3e3e;
      }

      .cls-2 {
        fill: #951a42;
      }

      .cls-4 {
        isolation: isolate;
      }

      .cls-5 {
        fill: #fff;
      }

      .cls-6 {
        fill: #930043;
      }
    </style>
  </defs>
  <g>
    <path class="cls-5" d="M66.11.56v63.14l-25.01,15.66-27.21-15.67V.56s52.22,0,52.22,0Z"/>
    <path class="cls-6" d="M41.11,80l-27.78-16V0h53.33v64l-25.56,16ZM14.44,63.36l26.64,15.35,24.47-15.32V1.11H14.44v62.25Z"/>
  </g>
  <path class="cls-1" d="M42.31,70.07h-.18l-.5,1.19h.2l.12-.28h.54l.12.28h.21l-.5-1.19ZM42.37,70.74h-.37l.18-.44.19.44Z"/>
  <path class="cls-1" d="M48.59,70.27h.38v-.19h-.96v.19h.38v.99h.21v-.99h0Z"/>
  <path class="cls-1" d="M47.21,70.39s.02-.07.05-.1c.04-.03.09-.04.14-.04.05,0,.11.01.16.03.06.02.11.05.16.09l.11-.15c-.06-.05-.12-.08-.19-.11-.07-.03-.15-.04-.23-.04-.05,0-.11,0-.16.02-.05.01-.09.04-.12.07-.03.03-.06.07-.08.11-.02.04-.03.09-.03.14,0,.05,0,.09.03.14.02.04.04.07.07.1.04.03.08.05.12.07.05.02.11.04.16.05.05.01.1.03.13.04.03,0,.05.02.08.04.02.01.03.03.04.04,0,.02.01.04.01.06,0,.04-.02.08-.06.11-.04.03-.09.04-.15.04-.07,0-.13-.01-.2-.04-.06-.03-.12-.07-.17-.11l-.12.15c.07.06.14.11.23.14.08.03.17.05.25.04.06,0,.11,0,.17-.02.05-.01.09-.04.13-.07.04-.03.06-.07.08-.11.02-.05.03-.1.03-.15,0-.04,0-.09-.02-.13-.02-.04-.04-.07-.07-.09-.03-.03-.07-.05-.12-.07-.05-.02-.11-.04-.16-.05-.06-.01-.1-.03-.14-.04-.03,0-.06-.02-.08-.04-.02-.01-.03-.03-.04-.05,0-.02-.01-.04-.01-.06h0Z"/>
  <path class="cls-1" d="M46.88,70.07h-.88v1.19h.89v-.19h-.68v-.32h.6v-.19h-.6v-.3h.67v-.19h0Z"/>
  <path class="cls-1" d="M45.78,70.07h-.89v1.19h.21v-.48h.6v-.19h-.6v-.33h.68v-.19h0Z"/>
  <path class="cls-3" d="M44.37,70.07h.22v1.19h-.22v-1.19Z"/>
  <path class="cls-1" d="M43.87,70.89l-.64-.82h-.19v1.19h.21v-.84l.65.84h.17v-1.19h-.21v.82h0Z"/>
  <path class="cls-1" d="M41.21,70.41v.85h.2v-1.19h-.21l-.34.56-.34-.56h-.21v1.19h.2v-.85l.35.56h0l.36-.56h0Z"/>
  <path class="cls-2" d="M39.62,70.07h-.88v1.19h.89v-.19h-.68v-.32h.6v-.19h-.6v-.3h.67v-.19h0Z"/>
  <path class="cls-2" d="M38.24,70.76v.5h.2v-1.19h-.2v.49h-.56v-.49h-.2v1.19h.2v-.5h.56Z"/>
  <path class="cls-2" d="M36.88,70.27h.38v-.19h-.96v.19h.38v.99h.21v-.99h0Z"/>
  <path class="cls-2" d="M41.21,71.59v2.36h-6.5v-.66h5.74v-1.71h-.19v1.51h-5.54v-5.69h5.54v2.36h.19v-2.36h.77v2.36h.19v-2.56h-.96v-.85h-6.89v6.93h.96v.85h6.89v-2.56h-.19ZM34.55,73.11h-.77v-6.52h6.52v.65h-5.75v5.86Z"/>
  <g class="cls-4">
    <g class="cls-4">
      <path class="cls-6" d="M21.5,21.03l.46-.12c.03.4.13.8.53.8.27,0,.41-.15.41-.44,0-.34-.17-.51-.4-.72l-.62-.55c-.25-.22-.36-.45-.36-.82,0-.55.34-.86.87-.86.59,0,.88.31.94.96l-.44.12c-.03-.37-.11-.68-.5-.68-.26,0-.41.14-.41.41,0,.22.07.35.24.51l.63.55c.28.25.53.58.53,1.04,0,.55-.37.89-.89.89-.65,0-.95-.44-.99-1.08Z"/>
      <path class="cls-6" d="M24.28,18.35h.51l.66,3.02.66-3.02h.51l.07,3.72h-.42l-.04-2.7-.63,2.7h-.29l-.62-2.7-.04,2.7h-.42l.07-3.72Z"/>
      <path class="cls-6" d="M28.28,18.35h.5l.79,3.72h-.49l-.17-.94h-.76l-.18.94h-.49l.79-3.72ZM28.85,20.77l-.31-1.68-.31,1.68h.62Z"/>
      <path class="cls-6" d="M30.39,18.35h.75c.74,0,1.09.28,1.09.99,0,.44-.13.76-.46.87l.53,1.86h-.5l-.49-1.75h-.4v1.75h-.52v-3.72ZM31.11,19.96c.44,0,.62-.14.62-.62,0-.44-.12-.62-.59-.62h-.23v1.23h.2Z"/>
      <path class="cls-6" d="M33.63,18.74h-.63v-.39h1.76v.39h-.61v3.33h-.52v-3.33Z"/>
      <path class="cls-6" d="M36.98,20.88v-1.31c0-.75.21-1.24,1-1.24.69,0,.94.4.94,1.07v.29h-.49v-.26c0-.41,0-.7-.44-.7s-.48.3-.48.76v1.47c0,.56.12.74.48.74.42,0,.44-.3.44-.74v-.28h.49v.28c0,.68-.21,1.15-.94,1.15-.79,0-1-.54-1-1.24Z"/>
      <path class="cls-6" d="M39.78,20.91v-1.41c0-.73.27-1.18,1.02-1.18s1.01.45,1.01,1.18v1.41c0,.73-.27,1.2-1.01,1.2s-1.02-.47-1.02-1.21ZM41.3,21.02v-1.63c0-.41-.08-.67-.49-.67s-.5.25-.5.67v1.63c0,.41.08.68.5.68s.49-.27.49-.68Z"/>
      <path class="cls-6" d="M42.77,18.35h.35l1.06,2.47v-2.47h.43v3.72h-.33l-1.07-2.54v2.54h-.44v-3.72Z"/>
      <path class="cls-6" d="M46.04,18.74h-.63v-.39h1.76v.39h-.61v3.33h-.52v-3.33Z"/>
      <path class="cls-6" d="M47.97,18.35h.75c.74,0,1.09.28,1.09.99,0,.44-.13.76-.46.87l.53,1.86h-.5l-.49-1.75h-.4v1.75h-.52v-3.72ZM48.69,19.96c.44,0,.62-.14.62-.62,0-.44-.12-.62-.59-.62h-.23v1.23h.2Z"/>
      <path class="cls-6" d="M51.39,18.35h.5l.79,3.72h-.49l-.17-.94h-.76l-.18.94h-.49l.79-3.72ZM51.95,20.77l-.31-1.68-.31,1.68h.62Z"/>
      <path class="cls-6" d="M53.41,20.88v-1.31c0-.75.21-1.24,1-1.24.69,0,.94.4.94,1.07v.29h-.49v-.26c0-.41,0-.7-.44-.7s-.48.3-.48.76v1.47c0,.56.12.74.48.74.42,0,.44-.3.44-.74v-.28h.49v.28c0,.68-.21,1.15-.94,1.15-.79,0-1-.54-1-1.24Z"/>
      <path class="cls-6" d="M56.69,18.74h-.63v-.39h1.76v.39h-.61v3.33h-.52v-3.33Z"/>
    </g>
    <g class="cls-4">
      <path class="cls-6" d="M25.61,25.02h.81c.83,0,1.1.38,1.1,1.13v1.37c0,.79-.28,1.22-1.06,1.22h-.85v-3.72ZM26.42,28.37c.56,0,.57-.34.57-.94v-1.21c0-.57-.06-.81-.59-.81h-.28v2.96h.29Z"/>
      <path class="cls-6" d="M28.47,25.02h1.44v.39h-.92v1.23h.75v.37h-.75v1.36h.93v.37h-1.45v-3.72Z"/>
      <path class="cls-6" d="M30.6,25.02h.49l.59,2.74.56-2.74h.47l-.82,3.72h-.45l-.83-3.72Z"/>
      <path class="cls-6" d="M33.54,25.02h1.44v.39h-.92v1.23h.75v.37h-.75v1.36h.93v.37h-1.45v-3.72Z"/>
      <path class="cls-6" d="M35.85,25.02h.52v3.35h.95v.37h-1.47v-3.72Z"/>
      <path class="cls-6" d="M38.02,27.57v-1.41c0-.73.27-1.18,1.02-1.18s1.01.45,1.01,1.18v1.41c0,.73-.27,1.2-1.01,1.2s-1.02-.47-1.02-1.21ZM39.53,27.69v-1.63c0-.41-.08-.67-.49-.67s-.5.25-.5.67v1.63c0,.41.08.68.5.68s.49-.27.49-.68Z"/>
      <path class="cls-6" d="M41,25.02h.92c.67,0,.92.38.92,1.03,0,.59-.31.96-.91.96h-.41v1.73h-.52v-3.72ZM41.76,26.64c.45,0,.59-.12.59-.58,0-.53-.07-.66-.59-.66h-.24v1.24h.24Z"/>
      <path class="cls-6" d="M43.71,25.02h.51l.66,3.02.66-3.02h.51l.07,3.72h-.42l-.04-2.7-.63,2.7h-.29l-.62-2.7-.04,2.7h-.42l.07-3.72Z"/>
      <path class="cls-6" d="M47.12,25.02h1.44v.39h-.92v1.23h.75v.37h-.75v1.36h.93v.37h-1.45v-3.72Z"/>
      <path class="cls-6" d="M49.43,25.02h.35l1.06,2.47v-2.47h.43v3.72h-.33l-1.07-2.54v2.54h-.44v-3.72Z"/>
      <path class="cls-6" d="M52.7,25.41h-.63v-.39h1.76v.39h-.61v3.33h-.52v-3.33Z"/>
    </g>
    <g class="cls-4">
      <path class="cls-6" d="M30.12,34.21v-1.31c0-.75.21-1.24,1-1.24.69,0,.94.4.94,1.07v.29h-.49v-.26c0-.41,0-.7-.44-.7s-.48.3-.48.76v1.47c0,.56.12.74.48.74.42,0,.44-.3.44-.74v-.28h.49v.28c0,.68-.21,1.15-.94,1.15-.79,0-1-.54-1-1.24Z"/>
      <path class="cls-6" d="M32.92,34.24v-1.41c0-.73.27-1.18,1.02-1.18s1.01.45,1.01,1.18v1.41c0,.73-.27,1.2-1.01,1.2s-1.02-.47-1.02-1.21ZM34.44,34.36v-1.63c0-.41-.08-.67-.49-.67s-.5.25-.5.67v1.63c0,.41.08.68.5.68s.49-.27.49-.68Z"/>
      <path class="cls-6" d="M35.97,31.69h.51l.66,3.02.66-3.02h.51l.07,3.72h-.42l-.04-2.7-.63,2.7h-.29l-.62-2.7-.04,2.7h-.42l.07-3.72Z"/>
      <path class="cls-6" d="M39.38,31.69h.92c.67,0,.92.38.92,1.03,0,.59-.31.96-.91.96h-.41v1.73h-.52v-3.72ZM40.14,33.3c.45,0,.59-.12.59-.58,0-.53-.07-.66-.59-.66h-.24v1.24h.24Z"/>
      <path class="cls-6" d="M42.44,31.69h.5l.79,3.72h-.49l-.17-.94h-.76l-.18.94h-.49l.79-3.72ZM43.01,34.1l-.31-1.68-.31,1.68h.62Z"/>
      <path class="cls-6" d="M44.55,31.69h.35l1.06,2.47v-2.47h.43v3.72h-.33l-1.07-2.54v2.54h-.44v-3.72Z"/>
      <path class="cls-6" d="M47.99,34.09l-.8-2.41h.48l.57,1.8.56-1.8h.49l-.8,2.41v1.31h-.5v-1.31Z"/>
    </g>
  </g>
  <path class="cls-6" d="M13.33,41.63h17.11l-2.72,3.29,2.72,3H13.33v-6.3Z"/>
  <path class="cls-6" d="M66.67,41.63h-17.11l2.72,3.29-2.72,3h17.11v-6.3Z"/>
  <path class="cls-5" d="M24.15,45.93l.89.57s.11.03.16,0,.07-.1.06-.16l-.24-1.06.79-.72s.06-.1.04-.16c-.02-.06-.07-.1-.13-.1l-1.03-.09-.41-1c-.02-.06-.07-.09-.13-.09s-.11.04-.13.09l-.41,1-1.03.09c-.06,0-.11.05-.12.1-.02.06,0,.12.04.16l.78.72-.24,1.06c-.01.06,0,.12.06.15.05.03.11.04.16,0l.89-.57Z"/>
  <path class="cls-5" d="M56.08,45.93l-.89.57s-.11.03-.16,0c-.05-.04-.07-.1-.06-.16l.24-1.06-.79-.72s-.06-.1-.04-.16c.02-.06.07-.1.13-.1l1.03-.09.41-1c.02-.06.07-.09.13-.09s.11.04.13.09l.41,1,1.03.09c.06,0,.11.05.12.1.02.06,0,.12-.04.16l-.78.72.24,1.06c.01.06,0,.12-.06.15-.05.03-.11.04-.16,0l-.89-.57Z"/>
  <path class="cls-5" d="M17.55,45.93l.89.57s.11.03.16,0c.05-.04.07-.1.06-.16l-.24-1.06.79-.72s.06-.1.04-.16c-.02-.06-.07-.1-.13-.1l-1.03-.09-.41-1c-.02-.06-.07-.09-.13-.09s-.11.04-.13.09l-.41,1-1.03.09c-.06,0-.11.05-.12.1-.02.06,0,.12.04.16l.78.72-.24,1.06c-.01.06,0,.12.06.15.05.03.11.04.16,0l.89-.57Z"/>
  <path class="cls-5" d="M62.67,45.93l-.89.57s-.11.03-.16,0c-.05-.04-.07-.1-.06-.16l.24-1.06-.79-.72s-.06-.1-.04-.16c.02-.06.07-.1.13-.1l1.03-.09.41-1c.02-.06.07-.09.13-.09s.11.04.13.09l.41,1,1.03.09c.06,0,.11.05.12.1.02.06,0,.12-.04.16l-.78.72.24,1.06c.01.06,0,.12-.06.15-.05.03-.11.04-.16,0l-.89-.57Z"/>
  <g>
    <circle class="cls-6" cx="40" cy="44.37" r="6.41"/>
    <path class="cls-6" d="M40,50.81c-3.55,0-6.44-2.89-6.44-6.44s2.89-6.44,6.44-6.44,6.44,2.89,6.44,6.44-2.89,6.44-6.44,6.44ZM40,37.99c-3.52,0-6.39,2.86-6.39,6.39s2.86,6.39,6.39,6.39,6.39-2.86,6.39-6.39-2.86-6.39-6.39-6.39Z"/>
  </g>
  <g>
    <path class="cls-5" d="M40.02,46.51h-.02s-.02,0-.02,0l-2.17,1.33h0s0,0,0,0c-.11.07-.25.07-.36,0-.11-.08-.16-.21-.13-.34h0s.58-2.5.58-2.5v-.02s0-.01,0-.01l-1.92-1.68h0c-.1-.09-.13-.22-.09-.35.04-.12.15-.21.28-.22h0l2.52-.22h.02s0-.02,0-.02l.99-2.34h0c.05-.12.17-.2.29-.2s.24.08.29.2h0s.99,2.34.99,2.34v.02s.02,0,.02,0l2.52.22h0c.13.01.24.1.27.22.04.12,0,.26-.09.34l-1.91,1.68h-.01s0,.03,0,.03l.58,2.5h0c.03.13-.02.26-.13.33-.1.07-.24.08-.35.01h0s-2.17-1.33-2.17-1.33Z"/>
    <path class="cls-6" d="M37.65,47.93c-.07,0-.14-.02-.2-.06-.12-.08-.17-.23-.14-.37l.58-2.5-1.92-1.68c-.11-.09-.15-.24-.1-.38.05-.14.17-.23.31-.24l2.52-.22.99-2.34c.05-.13.18-.21.32-.21s.27.08.32.21l.99,2.34,2.52.22c.14.01.26.11.3.24.04.13,0,.28-.1.37l-1.91,1.68.58,2.5c.03.14-.02.28-.14.36-.11.08-.27.09-.38.01l-2.17-1.33-2.17,1.33c-.06.04-.13.06-.19.06ZM40,39.99c-.12,0-.22.07-.27.18l-1,2.38-2.55.22c-.12,0-.22.09-.26.2-.04.11,0,.24.08.31l1.94,1.7-.59,2.53c-.03.12.02.24.12.31.1.07.22.07.32,0l2.2-1.35.03.02,2.17,1.33c.1.06.22.06.32-.01.09-.07.14-.19.11-.3l-.59-2.53.03-.02,1.91-1.68c.09-.08.12-.2.09-.31-.04-.11-.13-.19-.25-.2l-2.55-.22-1-2.38c-.05-.11-.15-.18-.27-.18Z"/>
  </g>
  <rect class="cls-6" x="13.33" width="53.26" height="6.67"/>
  <g class="cls-4">
    <g class="cls-4">
      <path class="cls-3" d="M26.22,11.21h.43l.55,2.53.55-2.53h.42l.06,3.12h-.35l-.03-2.26-.53,2.26h-.25l-.52-2.26-.03,2.26h-.35l.06-3.12Z"/>
      <path class="cls-3" d="M29.1,13.36v-1.18c0-.62.22-.99.86-.99s.85.37.85.99v1.19c0,.61-.22,1.01-.85,1.01s-.86-.39-.86-1.01ZM30.36,13.45v-1.37c0-.35-.07-.56-.41-.56s-.42.21-.42.56v1.37c0,.35.07.57.42.57s.41-.23.41-.57Z"/>
      <path class="cls-3" d="M31.58,13.46l.39-.1c.02.34.11.67.44.67.22,0,.34-.13.34-.37,0-.28-.14-.43-.34-.6l-.52-.46c-.21-.18-.3-.38-.3-.69,0-.46.28-.72.73-.72.5,0,.74.26.79.81l-.37.1c-.02-.31-.09-.57-.42-.57-.22,0-.34.12-.34.34,0,.19.06.3.2.42l.53.46c.23.21.45.49.45.87,0,.46-.31.74-.75.74-.54,0-.8-.37-.83-.91Z"/>
      <path class="cls-3" d="M34.28,11.54h-.53v-.32h1.48v.32h-.51v2.8h-.44v-2.8Z"/>
      <path class="cls-3" d="M37.3,11.21h.63c.62,0,.92.23.92.83,0,.37-.11.64-.39.73l.44,1.56h-.42l-.41-1.46h-.34v1.46h-.44v-3.12ZM37.9,12.56c.37,0,.52-.12.52-.52,0-.37-.1-.52-.5-.52h-.19v1.03h.17Z"/>
      <path class="cls-3" d="M39.74,11.21h1.21v.32h-.77v1.03h.63v.31h-.63v1.14h.78v.31h-1.22v-3.12Z"/>
      <path class="cls-3" d="M41.6,11.21h.41l.49,2.3.47-2.3h.4l-.69,3.12h-.38l-.7-3.12Z"/>
      <path class="cls-3" d="M44.16,11.21h.43v3.12h-.43v-3.12Z"/>
      <path class="cls-3" d="M45.54,11.21h1.21v.32h-.77v1.03h.63v.31h-.63v1.14h.78v.31h-1.22v-3.12Z"/>
      <path class="cls-3" d="M47.44,11.21h.36l.34,2.24.42-2.23h.31l.42,2.24.33-2.25h.35l-.5,3.12h-.32l-.44-2.31-.44,2.31h-.33l-.51-3.12Z"/>
      <path class="cls-3" d="M50.8,11.21h1.21v.32h-.77v1.03h.63v.31h-.63v1.14h.78v.31h-1.22v-3.12Z"/>
      <path class="cls-3" d="M52.81,11.21h.68c.69,0,.92.32.92.95v1.15c0,.66-.24,1.02-.89,1.02h-.71v-3.12ZM53.49,14.02c.47,0,.48-.29.48-.79v-1.01c0-.48-.05-.68-.49-.68h-.23v2.48h.25Z"/>
    </g>
  </g>
  <g class="cls-4">
    <g class="cls-4">
      <path class="cls-3" d="M35.75,56.83h.44v3.24h-.44v-3.24Z"/>
      <path class="cls-3" d="M37.01,56.83h.31l.92,2.15v-2.15h.38v3.24h-.29l-.93-2.21v2.21h-.38v-3.24Z"/>
      <path class="cls-3" d="M39.42,56.83h.7c.72,0,.96.33.96.99v1.19c0,.69-.24,1.06-.92,1.06h-.74v-3.24ZM40.13,59.75c.49,0,.5-.3.5-.82v-1.05c0-.5-.05-.71-.51-.71h-.24v2.58h.26Z"/>
      <path class="cls-3" d="M41.85,56.83h.44v3.24h-.44v-3.24Z"/>
      <path class="cls-3" d="M43.62,56.83h.44l.69,3.24h-.43l-.15-.82h-.66l-.16.82h-.42l.69-3.24ZM44.11,58.93l-.27-1.46-.27,1.46h.54Z"/>
    </g>
  </g>
</svg>