<?xml version="1.0" encoding="UTF-8"?>
<svg id="Layer_2" data-name="Layer 2" xmlns="http://www.w3.org/2000/svg" viewBox="0 0 128.42 90.48">
  <g id="Layer_1-2" data-name="Layer 1">
    <path d="M125.74,14.13c-1.48-5.56-5.83-9.94-11.35-11.43C104.37,0,64.21,0,64.21,0c0,0-40.16,0-50.18,2.7-5.53,1.49-9.88,5.87-11.35,11.43C0,24.21,0,45.24,0,45.24c0,0,0,21.03,2.68,31.11,1.48,5.56,5.83,9.94,11.35,11.43,10.02,2.7,50.18,2.7,50.18,2.7,0,0,40.16,0,50.17-2.7,5.53-1.49,9.88-5.87,11.35-11.43,2.68-10.08,2.68-31.11,2.68-31.11,0,0,0-21.03-2.68-31.11ZM82.84,46l-30.93,17.78c-.59.34-1.32-.09-1.32-.76V27.46c0-.68.73-1.1,1.32-.76l30.93,17.78c.59.34.59,1.18,0,1.52Z"/>
  </g>
</svg>