<svg xmlns="http://www.w3.org/2000/svg" viewBox="0 0 128 128" id="waves"><path d="M87.5 128h-47C18.1 128 0 109.9 0 87.5v-47C0 18.1 18.1 0 40.5 0h47C109.9 0 128 18.1 128 40.5v47c0 22.4-18.1 40.5-40.5 40.5z"></path><path fill="#fff" d="m40.8 55.4 4.6 4.3c1.4 1.3 3.5 1.3 4.9 0l9.3-8.6c2.6-2.4 6.5-2.4 9.1 0l9.3 8.6c1.4 1.3 3.5 1.3 4.9 0l4.6-4.3 7-7c1.3-1.3 1.3-3.5 0-4.9L71.4 20.4c-4-4-10.5-4-14.5 0L33.8 43.5c-1.4 1.4-1.4 3.5 0 4.9l7 7z"></path><path fill="#fff" d="m104.9 58.8-5.7-5.4c-1.4-1.3-3.5-1.3-4.9 0L85 62c-2.6 2.4-6.5 2.4-9.1 0l-9.3-8.6c-1.4-1.3-3.5-1.3-4.9 0L52.4 62c-2.6 2.4-6.5 2.4-9.1 0L34 53.4c-1.4-1.3-3.5-1.3-4.9 0l-5.2 4.9c-4.8 4.5-9.9 6.5-3.3 13.1l36.3 36.3c4 4 10.5 4 14.5 0l36.3-36.3c6.2-6.4 1.8-8.3-2.8-12.6z"></path></svg>