<?xml version="1.0" encoding="UTF-8"?>
<svg id="Layer_2" data-name="Layer 2" xmlns="http://www.w3.org/2000/svg" viewBox="0 0 150 150">
  <defs>
    <style>
      .cls-1 {
        fill: #fff;
        fill-rule: evenodd;
      }

      .cls-2 {
        fill: #3468d1;
      }
    </style>
  </defs>
  <g id="Layer_1-2" data-name="Layer 1">
    <g id="cardano_ada" data-name="cardano ada">
      <g id="cardano_ada-2" data-name="cardano ada-2">
        <circle id="_Эллипс_6" data-name="Эллипс 6" class="cls-2" cx="75" cy="75" r="75"/>
        <path id="_Эллипс_6_копия_29" data-name="Эллипс 6 копия 29" class="cls-1" d="M66.64,51.99c4.09,0,7.41,3.32,7.41,7.41,0,4.09-3.32,7.41-7.41,7.41-4.09,0-7.41-3.32-7.41-7.41,0-4.09,3.32-7.41,7.41-7.41ZM84.53,51.99c4.09,0,7.41,3.32,7.41,7.42,0,4.09-3.32,7.41-7.42,7.41-4.09,0-7.41-3.32-7.41-7.41,0-4.09,3.32-7.41,7.42-7.41h0ZM84.53,83.18c4.09,0,7.41,3.32,7.41,7.42,0,4.09-3.32,7.41-7.42,7.41-4.09,0-7.41-3.32-7.41-7.41,0-4.09,3.32-7.41,7.41-7.41h0,0ZM66.64,83.18c4.09,0,7.41,3.32,7.41,7.41,0,4.09-3.32,7.41-7.41,7.41-4.09,0-7.41-3.32-7.41-7.41,0-4.09,3.32-7.41,7.41-7.41ZM57.43,67.84c4.09,0,7.41,3.32,7.41,7.41,0,4.09-3.32,7.41-7.41,7.41-4.09,0-7.41-3.32-7.41-7.41,0-4.09,3.32-7.41,7.41-7.41h0ZM93.74,67.84c4.09,0,7.41,3.32,7.41,7.42,0,4.09-3.32,7.41-7.42,7.41-4.09,0-7.41-3.32-7.41-7.41,0-4.09,3.32-7.41,7.41-7.41h0ZM102.18,55.06c2.54,0,4.6,2.06,4.6,4.6,0,2.54-2.06,4.6-4.6,4.6-2.54,0-4.6-2.06-4.6-4.6s2.06-4.6,4.6-4.6h0ZM102.18,85.74c2.54,0,4.6,2.06,4.6,4.6,0,2.54-2.06,4.6-4.6,4.6-2.54,0-4.6-2.06-4.6-4.6s2.06-4.6,4.6-4.6h0ZM48.99,85.74c2.54,0,4.6,2.06,4.6,4.6,0,2.54-2.06,4.6-4.6,4.6-2.54,0-4.6-2.06-4.6-4.6,0-2.54,2.06-4.6,4.6-4.6h0ZM48.99,55.06c2.54,0,4.6,2.06,4.6,4.6,0,2.54-2.06,4.6-4.6,4.6-2.54,0-4.6-2.06-4.6-4.6,0-2.54,2.06-4.6,4.6-4.6h0ZM75.59,39.72c2.54,0,4.6,2.06,4.6,4.6,0,2.54-2.06,4.6-4.6,4.6-2.54,0-4.6-2.06-4.6-4.6s2.06-4.6,4.6-4.6h0ZM75.59,101.07c2.54,0,4.6,2.06,4.6,4.6,0,2.54-2.06,4.6-4.6,4.6-2.54,0-4.6-2.06-4.6-4.6s2.06-4.6,4.6-4.6h0ZM95.27,105.68c2.12,0,3.83,1.72,3.83,3.84,0,2.12-1.72,3.83-3.84,3.83-2.12,0-3.83-1.72-3.83-3.83s1.72-3.83,3.83-3.83h0ZM55.9,105.68c2.12,0,3.83,1.72,3.83,3.84,0,2.12-1.72,3.83-3.84,3.83-2.12,0-3.83-1.72-3.83-3.83s1.72-3.83,3.83-3.83h0ZM55.9,36.66c2.12,0,3.83,1.72,3.83,3.84,0,2.12-1.72,3.83-3.84,3.83-2.12,0-3.83-1.72-3.83-3.83s1.72-3.83,3.83-3.83h0ZM95.27,36.66c2.12,0,3.83,1.72,3.83,3.84,0,2.12-1.72,3.83-3.84,3.83-2.12,0-3.83-1.72-3.83-3.83s1.72-3.83,3.83-3.83h0ZM115.22,70.91c2.12,0,3.83,1.72,3.83,3.83,0,2.12-1.72,3.83-3.83,3.83-2.12,0-3.83-1.72-3.83-3.83,0-2.12,1.72-3.83,3.83-3.83h0ZM35.95,70.91c2.12,0,3.83,1.72,3.83,3.83,0,2.12-1.72,3.83-3.83,3.83-2.12,0-3.83-1.72-3.83-3.83s1.72-3.83,3.83-3.83h0ZM33.14,47.39c1.69,0,3.07,1.37,3.07,3.07s-1.37,3.07-3.07,3.07-3.07-1.37-3.07-3.07h0c0-1.69,1.37-3.07,3.07-3.07h0ZM33.14,96.47c1.69,0,3.07,1.37,3.07,3.07s-1.37,3.07-3.07,3.07-3.07-1.37-3.07-3.07h0c0-1.69,1.37-3.07,3.07-3.07h0ZM118.03,96.47c1.69,0,3.07,1.37,3.07,3.07,0,1.69-1.37,3.07-3.07,3.07s-3.07-1.37-3.07-3.07h0c0-1.69,1.37-3.07,3.07-3.07h0ZM118.03,47.39c1.69,0,3.07,1.37,3.07,3.07,0,1.69-1.37,3.07-3.07,3.07s-3.07-1.37-3.07-3.07h0c0-1.69,1.37-3.07,3.07-3.07h0ZM75.59,22.85c1.69,0,3.07,1.37,3.07,3.07,0,1.69-1.37,3.07-3.07,3.07-1.69,0-3.07-1.37-3.07-3.07h0c0-1.69,1.37-3.07,3.07-3.07h0ZM75.59,121.01c1.69,0,3.07,1.37,3.07,3.07,0,1.69-1.37,3.07-3.07,3.07-1.69,0-3.07-1.37-3.07-3.07s1.37-3.07,3.07-3.07h0ZM102.69,118.97c1.41,0,2.56,1.14,2.56,2.56,0,1.41-1.14,2.56-2.56,2.56s-2.56-1.14-2.56-2.56h0c0-1.41,1.14-2.56,2.56-2.56ZM48.48,118.97c1.41,0,2.56,1.14,2.56,2.56s-1.14,2.56-2.56,2.56-2.56-1.14-2.56-2.56h0c0-1.41,1.14-2.56,2.56-2.56ZM48.48,25.92c1.41,0,2.56,1.14,2.56,2.56s-1.14,2.56-2.56,2.56-2.56-1.14-2.56-2.56h0c0-1.41,1.14-2.56,2.55-2.56h0ZM102.69,25.92c1.41,0,2.56,1.14,2.56,2.56,0,1.41-1.14,2.56-2.56,2.56s-2.56-1.14-2.56-2.56h0c0-1.41,1.14-2.56,2.55-2.56h0ZM129.28,72.44c1.41,0,2.56,1.14,2.56,2.56,0,1.41-1.14,2.56-2.56,2.56s-2.56-1.14-2.56-2.56h0c0-1.41,1.14-2.56,2.56-2.56h0ZM21.89,72.44c1.41,0,2.56,1.14,2.56,2.56s-1.14,2.56-2.56,2.56-2.56-1.14-2.56-2.56h0c0-1.41,1.14-2.56,2.56-2.56h0Z"/>
      </g>
    </g>
  </g>
</svg>