<?xml version="1.0" encoding="UTF-8"?>
<svg id="Layer_2" data-name="Layer 2" xmlns="http://www.w3.org/2000/svg" viewBox="0 0 150 150">
  <defs>
    <style>
      .cls-1 {
        fill: #244b81;
      }

      .cls-2 {
        fill: #b6b4b0;
      }

      .cls-3 {
        fill: #fdfdfd;
      }
    </style>
  </defs>
  <g id="Layer_1-2" data-name="Layer 1">
    <g>
      <path class="cls-2" d="M12.15,74.27l-.07-.22L.06,67.88c0-2,.16-4.11.39-6.11C6.95,4.72,80.3-18.66,122.67,16.77c15.28,12.78,24.01,31.4,27.33,50.85l-.18.36-12.29,6.13,12.44,7.69c-.51,6.88-1.97,13.74-4.35,20.21-19.38,52.93-94.38,65.47-129.15,20.48C7.46,110.83,2.29,96.6,0,82.09c0-.41.55-.62.87-.84,2.74-1.89,5.79-3.66,8.63-5.43.87-.54,1.74-1.09,2.65-1.55ZM125.49,74.16l18.42-10.27c-4.59-17.62-13.8-34.36-28.66-45.25C91.89,1.54,59.82,2.63,35.85,17.94c-15.96,10.2-27.71,26.8-29.67,45.95l18.11,10.43-18.22,11.62c2.88,15.91,10.28,31.27,22.59,41.94,24.01,20.8,60.94,20.69,87.02,3.72,15.8-10.28,26.66-26.72,28.25-45.76l-18.44-11.67Z"/>
      <path class="cls-1" d="M125.49,74.16l18.44,11.67c-1.59,19.04-12.45,35.48-28.25,45.76-26.08,16.97-63.02,17.08-87.02-3.72-12.31-10.67-19.7-26.03-22.59-41.94l18.22-11.62-18.11-10.43c1.96-19.15,13.7-35.75,29.67-45.95,23.98-15.31,56.04-16.4,79.41.71,14.87,10.89,24.07,27.63,28.66,45.25l-18.42,10.27ZM96.2,102.48l-16.28-30.31,14.79-25.27c-2.32-.07-4.66-.05-6.98-.1-.49-.01-1.52-.3-1.92-.01l-11.28,18.11-11.29-18.95-.32-.12c-2.21.17-4.41.45-6.61.65-.88.08-1.88-.03-2.71.27l15.85,25.74-17.56,29.52c0,.14.99.24,1.22.26,1.86.18,3.77.21,5.64.32.41.02,2.18.29,2.4.16l12.52-20.92,12.14,20.87c.41.37,3.87-.19,4.64,0,.99.01,2.07.01,3.09,0,.9-.01,1.83.08,2.71-.11l-.05-.11Z"/>
      <path class="cls-3" d="M96.25,102.59c-.89.19-1.81.1-2.71.11-1.02.01-2.1.01-3.09,0-.77-.19-4.23.37-4.63,0l-12.14-20.87-12.52,20.92c-.22.13-1.99-.13-2.4-.16-1.87-.11-3.78-.14-5.64-.32-.23-.02-1.22-.12-1.22-.26l17.55-29.52-15.85-25.74c.84-.3,1.83-.19,2.71-.27,2.2-.2,4.4-.48,6.61-.65l.32.12,11.29,18.95,11.28-18.11c.4-.29,1.43,0,1.92.01,2.33.05,4.66.03,6.98.1l-14.79,25.27,16.28,30.31.05.11Z"/>
    </g>
  </g>
</svg>