<?xml version="1.0" encoding="UTF-8"?>
<svg id="Layer_2" data-name="Layer 2" xmlns="http://www.w3.org/2000/svg" viewBox="0 0 150 150">
  <defs>
    <style>
      .cls-1 {
        fill: #864de6;
      }

      .cls-2 {
        fill: #fff;
      }
    </style>
  </defs>
  <g id="Layer_1-2" data-name="Layer 1">
    <g>
      <path class="cls-1" d="M147.76,93.12c-10.01,40.18-50.7,64.64-90.88,54.63C16.69,137.75-7.77,97.06,2.24,56.88,12.25,16.69,52.94-7.77,93.12,2.24c.01,0,.03,0,.04.01,40.16,10.03,64.6,50.71,54.59,90.87Z"/>
      <path class="cls-2" d="M120.42,70.98l-21.54-12.43c-1.43-.87-3.22-.87-4.64,0l-38.41,22.21c-1.45.83-3.23.83-4.67,0l-12.23-7.07c-1.44-.83-2.33-2.37-2.34-4.04v-14.19c0-1.66.89-3.19,2.34-4.01l12.23-7.09c1.43-.84,3.21-.84,4.64,0l12.26,7.09c1.45.81,2.34,2.35,2.34,4.01v6.81c0,.62.5,1.12,1.12,1.13,0,0,.02,0,.03,0,.21,0,.41-.06.58-.17l6.37-3.66c.72-.42,1.16-1.19,1.15-2.02v-7.44c0-1.64-.88-3.14-2.31-3.95l-21.54-12.43c-1.43-.84-3.21-.84-4.64,0l-21.54,12.43c-1.45.81-2.34,2.35-2.34,4.01v24.83c0,1.66.89,3.19,2.34,4.01l21.54,12.43c1.43.84,3.21.84,4.64,0l38.41-22.21c1.45-.83,3.23-.83,4.67,0l12.31,7.09c1.41.84,2.28,2.36,2.28,4.01v14.19c0,1.66-.89,3.19-2.34,4.01l-12.26,7.07c-1.43.84-3.21.84-4.64,0l-12.26-7.09c-1.45-.81-2.34-2.35-2.34-4.01v-6.78c0-.64-.52-1.15-1.15-1.15h0c-.21,0-.41.06-.58.17l-6.37,3.66c-.72.42-1.16,1.19-1.15,2.02v7.47c0,1.66.87,3.2,2.31,4.04l21.6,12.4c1.43.84,3.21.84,4.64,0l21.54-12.49c1.43-.84,2.32-2.37,2.34-4.04v-24.8c-.02-1.67-.93-3.2-2.39-4.01Z"/>
    </g>
  </g>
</svg>