<?xml version="1.0" encoding="UTF-8"?>
<svg id="Layer_2" data-name="Layer 2" xmlns="http://www.w3.org/2000/svg" viewBox="0 0 150 150">
  <defs>
    <style>
      .cls-1 {
        fill: #fff;
      }
    </style>
  </defs>
  <g id="Layer_1-2" data-name="Layer 1">
    <g>
      <circle cx="75" cy="75" r="75"/>
      <g id="eos_crypto" data-name="eos crypto">
        <g>
          <path class="cls-1" d="M75,120.95c-.28,0-.57-.08-.82-.24l-29.1-18.38c-.54-.34-.81-.99-.68-1.62l9.19-42.88c.04-.21.13-.4.26-.58l19.91-27.57c.29-.4.75-.63,1.24-.63s.95.24,1.24.63l19.91,27.57c.12.17.21.37.26.58l9.19,42.88c.13.63-.14,1.27-.68,1.62l-29.1,18.38c-.25.16-.53.24-.82.24ZM47.62,100.31l27.38,17.29,27.38-17.29-8.9-41.52-18.48-25.59-18.48,25.59-8.9,41.52Z"/>
          <path class="cls-1" d="M104.1,102.57c-.52,0-1.03-.27-1.32-.75l-27.78-46.79-27.78,46.79c-.43.73-1.37.97-2.1.53-.73-.43-.97-1.37-.54-2.1l29.1-49.01c.28-.46.78-.75,1.32-.75s1.04.28,1.32.75l29.1,49.01c.43.73.19,1.67-.53,2.1-.25.15-.51.21-.78.21Z"/>
          <path class="cls-1" d="M75,53.56c-.85,0-1.53-.69-1.53-1.53v-21.44c0-.85.69-1.53,1.53-1.53s1.53.69,1.53,1.53v21.44c0,.85-.69,1.53-1.53,1.53Z"/>
          <path class="cls-1" d="M104.1,102.57h-58.2c-.85,0-1.53-.69-1.53-1.53s.69-1.53,1.53-1.53h58.2c.85,0,1.53.69,1.53,1.53s-.69,1.53-1.53,1.53Z"/>
          <path class="cls-1" d="M75,120.95c-.66,0-1.25-.43-1.46-1.06l-19.91-61.26c-.26-.8.18-1.67.98-1.93s1.67.18,1.93.98l18.45,56.78,18.45-56.78c.26-.8,1.13-1.24,1.93-.98.8.26,1.24,1.13.98,1.93l-19.91,61.26c-.21.63-.79,1.06-1.46,1.06Z"/>
        </g>
      </g>
    </g>
  </g>
</svg>