<?xml version="1.0" encoding="UTF-8"?>
<svg id="Layer_2" data-name="Layer 2" xmlns="http://www.w3.org/2000/svg" viewBox="0 0 150 150">
  <defs>
    <style>
      .cls-1 {
        fill: #fff;
      }

      .cls-2 {
        fill: #f7931a;
      }
    </style>
  </defs>
  <g id="Layer_1-2" data-name="Layer 1">
    <g>
      <path class="cls-2" d="M147.76,93.14c-10.02,40.18-50.72,64.63-90.9,54.61C16.68,137.74-7.78,97.04,2.25,56.86,12.26,16.68,52.96-7.77,93.14,2.24c40.19,10.02,64.64,50.72,54.62,90.9Z"/>
      <path class="cls-1" d="M50.33,87.63c-.41,1.01-1.44,2.53-3.77,1.95.08.12-5.98-1.49-5.98-1.49l-4.09,9.42,10.71,2.67c1.99.5,3.95,1.02,5.87,1.51l-3.41,13.67,8.22,2.05,3.37-13.53c2.25.61,4.43,1.17,6.56,1.7l-3.36,13.46,8.23,2.05,3.41-13.65c14.03,2.66,24.59,1.58,29.03-11.11,3.58-10.22-.18-16.11-7.56-19.96,5.38-1.24,9.43-4.78,10.51-12.08h0c1.49-9.98-6.11-15.34-16.5-18.92l3.37-13.52-8.23-2.05-3.28,13.16c-2.16-.54-4.39-1.05-6.59-1.55l3.3-13.25-8.23-2.05-3.37,13.51c-1.79-.41-3.55-.81-5.26-1.24v-.04s-11.34-2.83-11.34-2.83l-2.19,8.79s6.11,1.4,5.98,1.49c3.33.83,3.94,3.04,3.83,4.79l-9.24,37.03ZM89.26,90.68c-2.54,10.22-19.75,4.69-25.33,3.31l4.52-18.11c5.58,1.39,23.47,4.15,20.81,14.81ZM91.8,64.17c-2.32,9.3-16.64,4.57-21.29,3.41l4.1-16.43c4.65,1.16,19.61,3.32,17.19,13.01Z"/>
    </g>
  </g>
</svg>