<?xml version="1.0" encoding="UTF-8"?>
<svg id="Layer_2" data-name="Layer 2" xmlns="http://www.w3.org/2000/svg" viewBox="0 0 150 150">
  <defs>
    <style>
      .cls-1 {
        fill: none;
      }

      .cls-2 {
        fill: #fff;
        fill-rule: evenodd;
      }

      .cls-3 {
        fill: #08c;
      }
    </style>
  </defs>
  <g id="Layer_1-2" data-name="Layer 1">
    <g>
      <rect class="cls-1" x="5.64" y="5.64" width="138.71" height="138.71"/>
      <path class="cls-3" d="M75,150c41.42,0,75-33.58,75-75S116.42,0,75,0,0,33.58,0,75s33.58,75,75,75Z"/>
      <path class="cls-2" d="M48.45,43.33h53.2c2.03,0,3.73.34,5.76,1.36,2.37,1.02,3.73,2.71,4.4,4.07,0,0,0,.34.34.34,1.02,1.69,1.69,3.73,1.69,6.1,0,2.03-.34,4.07-1.69,6.1l-33.54,57.6c-.68,1.36-2.03,2.03-3.73,2.03-1.36,0-2.71-.68-3.73-2.03l-32.87-57.6c-.68-1.36-2.03-3.05-2.03-5.76-.34-2.37.34-4.4,1.36-6.44,1.02-2.03,2.71-3.73,5.08-4.4,2.03-1.36,4.4-1.36,5.76-1.36ZM70.81,51.46h-22.36c-1.36,0-2.03,0-2.37.34-.68.34-1.02.68-1.36,1.36-.34.34-.34,1.02-.34,1.69,0,.34.34.68,1.02,2.03l25.41,44.05v-49.47ZM78.94,51.46v49.81l25.75-44.39c.34-.68.34-1.36.34-2.03s0-1.36-.34-1.69c-.34-.34-.34-.68-.68-.68l-.34-.34c-.68-.34-1.36-.34-2.37-.34h-22.36v-.34Z"/>
    </g>
  </g>
</svg>