<?xml version="1.0" encoding="UTF-8"?>
<svg id="Layer_2" data-name="Layer 2" xmlns="http://www.w3.org/2000/svg" viewBox="0 0 150 150">
  <defs>
    <style>
      .cls-1 {
        fill: #fff;
      }
    </style>
  </defs>
  <g id="Layer_1-2" data-name="Layer 1">
    <g>
      <circle cx="75" cy="75" r="75"/>
      <path class="cls-1" d="M96.79,75c15.08-10.38,25.96-20.98,23.12-25.96-1.71-2.97-7.53-2.86-17.15.24-.68-.94-1.77-1.49-2.93-1.51-2.08,0-3.77,1.69-3.77,3.77,0,0,0,0,0,.01v.13c-3.25,1.28-6.64,2.72-10.21,4.41-1.43-18.27-5.12-33.02-10.87-33.02s-9.44,14.74-10.92,33.02c-5.2-2.51-10.54-4.7-16-6.57-10.2-3.41-16.26-3.6-18.03-.49s1.7,8.08,7.89,13.88c-.13.36-.21.74-.23,1.12,0,2.08,1.69,3.77,3.77,3.77.56,0,1.12-.14,1.62-.39,3.05,2.49,6.38,5.03,10.07,7.58-15.08,10.38-25.96,20.98-23.12,25.96,1.27,1.66,3.35,2.5,5.42,2.19,4.32-.25,8.57-1.16,12.62-2.68,5.46-1.87,10.8-4.07,16-6.57.33,4.15.79,8.04,1.35,11.66-1.85.87-2.65,3.08-1.77,4.93.57,1.21,1.75,2.02,3.08,2.12,1.95,8.63,4.7,14.31,8.31,14.31,5.75,0,9.44-14.74,10.92-33.02,5.2,2.51,10.54,4.7,16,6.57,4.05,1.52,8.3,2.43,12.62,2.68,2.07.31,4.15-.53,5.42-2.19,2.83-4.97-8.09-15.57-23.2-25.96h0ZM47.24,98.03c-10.56,3.51-14.38,2.68-14.98,1.64-1.5-2.6,6.78-11.85,23.25-23.11,2.56,1.72,5.2,3.42,7.92,5.08.08,3.22.23,6.39.44,9.48-5.4,2.64-10.95,4.95-16.62,6.91h0ZM63.36,78.56c-1.94-1.2-3.76-2.39-5.52-3.56,1.77-1.17,3.58-2.36,5.52-3.56v3.56s-.01,2.38,0,3.56ZM63.43,68.37c-2.72,1.66-5.36,3.35-7.92,5.08-4.05-2.77-7.6-5.4-10.62-7.85.23-.48.35-1.01.35-1.55,0-2.08-1.69-3.77-3.77-3.77,0,0,0,0-.01,0-.7.02-1.39.24-1.97.63-5.51-5.19-8.1-9.05-7.27-10.58.27-.47,1.21-.89,3.11-.89,4.05.25,8.05,1.1,11.85,2.53,5.67,1.97,11.22,4.28,16.61,6.91-.13,3.09-.23,6.26-.36,9.48h0ZM83.88,66.76c-1.04-.61-2.02-1.26-3.06-1.86s-2.08-1.14-3.11-1.73c1.99-1.04,3.95-2.08,5.9-3.01.09,2.13.21,4.3.28,6.6ZM74.99,25.67c2.99,0,6.86,11.78,8.39,31.69-2.75,1.35-5.54,2.78-8.39,4.33-2.84-1.55-5.64-2.98-8.39-4.33,1.53-19.9,5.4-31.69,8.39-31.69ZM66.41,60.15c1.95.97,3.9,1.94,5.9,3.01-1.04.59-2.08,1.12-3.11,1.73s-2.08,1.25-3.06,1.86c.03-2.3.15-4.47.28-6.6ZM66.09,83.24c1.04.61,2.02,1.26,3.06,1.86s2.08,1.14,3.11,1.73c-1.99,1.04-3.95,2.08-5.9,3.01-.09-2.13-.21-4.3-.28-6.6ZM74.99,124.33c-1.83,0-4-4.45-5.76-12.46,1.67-1.13,2.12-3.4.99-5.07-.52-.77-1.31-1.31-2.21-1.52-.58-3.74-1.04-7.99-1.41-12.69,2.75-1.35,5.54-2.78,8.39-4.33,2.84,1.55,5.64,2.98,8.39,4.33-1.53,19.96-5.4,31.74-8.39,31.74ZM83.56,89.85c-1.95-.97-3.9-1.94-5.9-3.01,1.04-.59,2.08-1.12,3.11-1.73s2.08-1.25,3.06-1.86c-.03,2.3-.15,4.47-.28,6.6ZM83.96,80.17c-1.48.9-2.86,1.79-4.43,2.69s-3.02,1.67-4.54,2.5c-1.52-.83-3.01-1.62-4.54-2.5s-2.95-1.79-4.43-2.69c0-1.72-.1-3.35-.1-5.19s.07-3.45.1-5.19c1.48-.9,2.86-1.79,4.43-2.69s3.02-1.67,4.54-2.5c1.52.83,3.01,1.62,4.54,2.5s2.95,1.79,4.43,2.69c0,1.72.1,3.35.1,5.19s-.07,3.47-.1,5.21v-.02ZM97.1,54.08c.7.79,1.71,1.24,2.76,1.25,2.01,0,3.67-1.6,3.74-3.61,3.53-1.28,7.23-2.05,10.97-2.27,1.92,0,2.87.43,3.11.89,1.5,2.6-6.78,11.85-23.25,23.11-2.56-1.72-5.2-3.42-7.92-5.08-.08-3.22-.23-6.39-.44-9.48,3.86-1.85,7.59-3.45,11.02-4.81h0ZM86.61,71.44c1.94,1.2,3.76,2.39,5.52,3.56-1.77,1.17-3.58,2.36-5.52,3.56v-3.56c0-1.18.01-2.38,0-3.56ZM117.71,99.67c-.61,1.04-4.43,1.87-14.98-1.64-5.67-1.97-11.22-4.28-16.61-6.91.21-3.11.35-6.23.44-9.48,2.72-1.66,5.36-3.35,7.92-5.08,16.46,11.27,24.73,20.52,23.24,23.11h0ZM74.7,68.63c-3.44,0-6.23,2.79-6.23,6.23s2.79,6.23,6.23,6.23,6.23-2.79,6.23-6.23-2.79-6.23-6.23-6.23h0Z"/>
    </g>
  </g>
</svg>