<?xml version="1.0" encoding="UTF-8"?>
<svg id="Layer_2" data-name="Layer 2" xmlns="http://www.w3.org/2000/svg" viewBox="0 0 150 150">
  <defs>
    <style>
      .cls-1 {
        fill: #fff;
      }

      .cls-1, .cls-2 {
        fill-rule: evenodd;
      }

      .cls-2 {
        fill: #fc070c;
      }
    </style>
  </defs>
  <g id="Layer_1-2" data-name="Layer 1">
    <g>
      <path class="cls-2" d="M75,150C33.75,150,0,116.25,0,74.63.38,33.38,33.75-.37,75.37,0c41.25.37,74.63,33.75,74.63,75.75-.38,40.87-33.75,74.25-75,74.25Z"/>
      <path class="cls-1" d="M128.44,59.13c-2.05-1.89-4.42-4.19-6.89-6.6h0c-3.47-3.37-7.14-6.94-10.38-9.81l-.33-.23c-.55-.44-1.16-.78-1.82-1.02l-2.5-.47c-17.25-3.22-73.16-13.65-74.31-13.51-.34.05-.67.17-.95.36l-.31.25c-.38.39-.68.86-.85,1.38l-.08.21v1.35c3.8,10.57,13.66,34.18,22.76,55.97h0s0,0,0,0h0c7.7,18.43,14.85,35.56,17.35,42.43h0c.33,1.02.95,2.95,2.12,3.05h.26c.62,0,3.28-3.51,3.28-3.51,0,0,47.51-57.62,52.32-63.75.62-.76,1.17-1.57,1.64-2.43.24-1.37-.25-2.76-1.3-3.67ZM87.96,65.84l20.28-16.82,11.89,10.96-32.17,5.86ZM45.18,36.13l34.91,28.61,21.57-18.19-56.49-10.42ZM83.24,72.24l35.73-5.76-40.85,49.22,5.12-43.46ZM77.17,70.16l-36.73-31.17,31.42,76.75,5.32-45.58Z"/>
    </g>
  </g>
</svg>