<?xml version="1.0" encoding="UTF-8"?>
<svg id="Layer_1" data-name="Layer 1" xmlns="http://www.w3.org/2000/svg" viewBox="0 0 150 146.31">
  <defs>
    <style>
      .cls-1 {
        fill: #1b1f23;
      }
    </style>
  </defs>
  <path class="cls-1" d="M102.51,5.28C75.65-5.37,45.6.4,24.45,19.74c-.02.02-.04.03-.05.05C9.54,33.39.77,52.15.02,72.41c-.07,1.79.05,3.59,0,5.38l.13.3c.83,29.19,19.66,55.45,46.49,66.38,2.6,1.06,7.11,3.29,9.17.31.15-.21.57-1.11.57-1.3v-14.81c-3.07.51-6.32.99-9.44.88-6.01-.2-12.19-2.27-15.08-7.92-2.04-4-3.69-8.61-7.29-11.58-.97-.8-2.15-1.28-3.12-2.13-4.41-3.85,1.89-4.04,4.66-3.29,7.51,2.03,8.73,10.18,14.94,13.68,4.88,2.75,10.76,2.1,15.68-.17.46-3.68,1.9-7.37,4.65-9.91-1.45-.38-3.03-.46-4.52-.72-19-3.38-28.7-13.99-29.48-33.52-.35-8.72,1.7-16.5,7.61-23.03-2.28-6.44-1.77-13.51.77-19.79,2.08-.6,4.59-.04,6.65.54,5.04,1.4,9.67,4.24,14.03,7.04,8.56-2.36,17.48-2.99,26.31-2.07,3.83.4,7.44,1.1,11.18,2,5.49-3.31,13.07-8.31,19.76-7.75,1.08.09,1,.51,1.34,1.41,2.24,5.87,2.37,12.69.36,18.63,1.95,2.38,3.73,4.81,5,7.63,4.68,10.4,2.93,27.04-3.74,36.3-6.46,8.97-17.25,12.05-27.77,13.29.58.66,1.2,1.24,1.73,1.96,5.7,7.83,2.33,23.31,3.14,32.73.14,1.64,1.24,3.2,2.95,3.42,2.25.29,6-1.42,8.14-2.34,23.05-9.93,40-31.56,44.12-56.38,5.85-35.25-13.51-69.21-46.46-82.28Z"/>
</svg>