<?xml version="1.0" encoding="UTF-8"?>
<svg id="katman_1" data-name="katman 1" xmlns="http://www.w3.org/2000/svg" viewBox="0 0 150 150">
  <defs>
    <style>
      .cls-1 {
        fill: #292e32;
      }
    </style>
  </defs>
  <path class="cls-1" d="M42.97,140.21q-.35,0-.71-.35L.66,80.73v-.71L30.76,14.34c0-.35.35-.35.71-.35l71.88-7.08q.35,0,.71.35l41.78,59.13v.71l-30.27,65.68c0,.35-.35.35-.71.35l-71.88,7.08h0ZM2.08,80.37l41.25,58.25,71.17-6.55,29.92-64.98L103.17,8.49,32,15.04,2.08,80.37ZM114.85,132.78h0Z"/>
  <path class="cls-1" d="M42.62,140.21l-11.51-60.2V14.34l56.48,16.64,58.25,36.12-43.55,38.42-59.66,34.7ZM31.64,15.04v64.98l11.51,58.96,58.42-33.82,42.49-38.06-57.54-35.76L31.64,15.04Z"/>
  <circle class="cls-1" cx="88.3" cy="31.33" r="2.12"/>
  <path class="cls-1" d="M88.3,35.76c-2.12,0-4.43-1.77-4.43-4.43,0-2.12,1.77-4.43,4.43-4.43,2.12,0,4.43,1.77,4.43,4.43-.35,2.3-2.12,4.43-4.43,4.43ZM88.3,31.33h0c-.35,0,0,0,0,0h0Z"/>
  <circle class="cls-1" cx="102.28" cy="105.16" r="2.12"/>
  <path class="cls-1" d="M102.28,109.59c-2.12,0-4.43-1.77-4.43-4.43s1.77-4.43,4.43-4.43c2.12,0,4.43,1.77,4.43,4.43s-2.12,4.43-4.43,4.43ZM102.28,105.16h0q-.35,0,0,0h0Z"/>
  <circle class="cls-1" cx="43.33" cy="139.33" r="2.12"/>
  <path class="cls-1" d="M43.33,143.76c-2.12,0-4.43-1.77-4.43-4.43,0-2.12,1.77-4.43,4.43-4.43s4.43,1.77,4.43,4.43-1.77,4.43-4.43,4.43ZM43.33,139.33h0Z"/>
  <circle class="cls-1" cx="31.64" cy="80.37" r="2.12"/>
  <path class="cls-1" d="M31.64,84.8c-2.12,0-4.43-1.77-4.43-4.43,0-2.12,1.77-4.43,4.43-4.43s4.43,1.77,4.43,4.43c-.53,2.66-2.3,4.43-4.43,4.43ZM31.64,80.37h0c-.53,0-.53.35,0,0h0Z"/>
  <circle class="cls-1" cx="145.13" cy="67.09" r="2.12"/>
  <path class="cls-1" d="M145.13,71.52c-2.12,0-4.43-1.77-4.43-4.43,0-2.12,1.77-4.43,4.43-4.43,2.12,0,4.43,1.77,4.43,4.43,0,2.3-2.12,4.43-4.43,4.43ZM145.13,67.09h0Z"/>
  <circle class="cls-1" cx="31.64" cy="14.34" r="2.12"/>
  <path class="cls-1" d="M31.64,18.76c-2.12,0-4.43-1.77-4.43-4.43,0-2.12,1.77-4.43,4.43-4.43s4.43,1.77,4.43,4.43c-.53,2.66-2.3,4.43-4.43,4.43ZM31.64,14.34h0q-.53.35,0,0h0Z"/>
  <path class="cls-1" d="M114.85,133.49s-.35,0,0,0l-55.24-19.47L.66,80.73c-.35,0-.35-.35-.35-.35q0-.35.35-.71l44.26-40.54L102.82,7.43h.71c.35,0,.35.35.35.35l12.92,57.19-1.42,67.81q-.18.35-.53.71c.35,0,0,0,0,0ZM2.43,80.02l57.89,32.4,53.82,19.12,1.42-66.75-12.92-56.12-56.83,31.34L2.43,80.02Z"/>
  <path class="cls-1" d="M102.28,105.51h0l-71.53-24.79.35-.35,57.19-49.4,13.99,74.54ZM31.64,80.37l70.46,24.26-13.99-72.94-56.48,48.69Z"/>
  <path class="cls-1" d="M59.62,114.72l-15.05-75.95,72.94,26.2-57.89,49.75ZM46.34,40.54l13.99,71.17,54.53-46.92-68.52-24.26Z"/>
  <rect class="cls-1" x="37.78" y="12.41" width="1.42" height="28.68" transform="translate(-8.17 22.28) rotate(-29.33)"/>
  <polygon class="cls-1" points="44.04 139.86 42.97 138.97 59.62 112.77 60.68 113.66 44.04 139.86"/>
  <rect class="cls-1" x="129.88" y="51.68" width="1.42" height="28.68" transform="translate(55.23 191.45) rotate(-85.82)"/>
</svg>