<svg xmlns="http://www.w3.org/2000/svg" xmlns:xlink="http://www.w3.org/1999/xlink" width="150" zoomAndPan="magnify" viewBox="0 0 112.5 112.499997" height="150" preserveAspectRatio="xMidYMid meet" version="1.0"><defs><clipPath id="ec11321340"><path d="M 0 0 L 112.003906 0 L 112.003906 112.003906 L 0 112.003906 Z M 0 0 " clip-rule="nonzero"/></clipPath><clipPath id="d25725c8c8"><path d="M 56 0 C 25.074219 0 0 25.074219 0 56 C 0 86.929688 25.074219 112.003906 56 112.003906 C 86.929688 112.003906 112.003906 86.929688 112.003906 56 C 112.003906 25.074219 86.929688 0 56 0 Z M 56 0 " clip-rule="nonzero"/></clipPath><clipPath id="2fd1be520b"><path d="M 0 0 L 112.003906 0 L 112.003906 112.003906 L 0 112.003906 Z M 0 0 " clip-rule="nonzero"/></clipPath><clipPath id="0df2320289"><path d="M 56 0 C 25.074219 0 0 25.074219 0 56 C 0 86.929688 25.074219 112.003906 56 112.003906 C 86.929688 112.003906 112.003906 86.929688 112.003906 56 C 112.003906 25.074219 86.929688 0 56 0 Z M 56 0 " clip-rule="nonzero"/></clipPath><clipPath id="8f9ad22a88"><rect x="0" width="113" y="0" height="113"/></clipPath><clipPath id="efd0c144b3"><path d="M 15.15625 18 L 96.546875 18 L 96.546875 94 L 15.15625 94 Z M 15.15625 18 " clip-rule="nonzero"/></clipPath></defs><g clip-path="url(#ec11321340)"><g clip-path="url(#d25725c8c8)"><g transform="matrix(1, 0, 0, 1, 0, -0.000000000000000624)"><g clip-path="url(#8f9ad22a88)"><g clip-path="url(#2fd1be520b)"><g clip-path="url(#0df2320289)"><path fill="#336699" d="M 0 0 L 112.003906 0 L 112.003906 112.003906 L 0 112.003906 Z M 0 0 " fill-opacity="1" fill-rule="nonzero"/></g></g></g></g></g></g><g clip-path="url(#efd0c144b3)"><path fill="#ffffff" d="M 71.628906 18.589844 L 34.640625 22.191406 C 34.605469 21.910156 34.519531 21.644531 34.382812 21.394531 C 34.25 21.144531 34.074219 20.929688 33.855469 20.742188 C 33.640625 20.558594 33.398438 20.421875 33.128906 20.328125 C 32.859375 20.234375 32.585938 20.191406 32.300781 20.203125 C 31.980469 20.207031 31.675781 20.269531 31.378906 20.394531 C 31.085938 20.519531 30.828125 20.691406 30.601562 20.917969 C 30.375 21.144531 30.199219 21.402344 30.078125 21.699219 C 29.953125 21.992188 29.886719 22.296875 29.882812 22.617188 C 29.882812 23.488281 30.359375 24.167969 30.992188 24.589844 L 15.519531 58.164062 L 15.359375 58.3125 C 15.152344 58.515625 15.15625 58.515625 15.15625 58.71875 C 15.15625 58.71875 15.15625 58.917969 15.359375 58.917969 L 36.929688 89.460938 C 36.546875 89.898438 36.351562 90.40625 36.332031 90.988281 C 36.332031 92.398438 37.542969 93.402344 38.75 93.402344 C 39.058594 93.414062 39.359375 93.367188 39.648438 93.257812 C 39.941406 93.148438 40.199219 92.984375 40.425781 92.773438 C 40.648438 92.558594 40.824219 92.3125 40.949219 92.027344 C 41.078125 91.746094 41.144531 91.445312 41.148438 91.136719 L 77.429688 87.597656 L 77.878906 87.761719 C 77.949219 87.699219 78.007812 87.625 78.054688 87.539062 C 78.179688 87.527344 78.285156 87.492188 78.285156 87.355469 L 93.769531 53.746094 C 93.980469 53.804688 94.195312 53.878906 94.417969 53.878906 C 95.628906 53.878906 96.835938 52.667969 96.835938 51.460938 C 96.835938 51.140625 96.769531 50.832031 96.648438 50.539062 C 96.523438 50.242188 96.347656 49.980469 96.125 49.753906 C 95.898438 49.527344 95.636719 49.351562 95.34375 49.226562 C 95.046875 49.101562 94.742188 49.039062 94.421875 49.035156 C 94.109375 49.035156 93.8125 49.097656 93.527344 49.21875 L 72.027344 18.789062 C 71.824219 18.585938 71.824219 18.585938 71.625 18.585938 Z M 69.851562 19.542969 L 53 28.765625 L 34.503906 23.328125 C 34.570312 23.164062 34.621094 22.992188 34.660156 22.820312 Z M 71.226562 19.59375 L 75.855469 39.699219 L 65.253906 33.121094 C 65.515625 32.75 65.691406 32.339844 65.777344 31.894531 C 65.773438 31.574219 65.710938 31.269531 65.585938 30.976562 C 65.460938 30.683594 65.285156 30.421875 65.0625 30.195312 C 64.835938 29.96875 64.574219 29.796875 64.28125 29.671875 C 63.988281 29.546875 63.679688 29.484375 63.363281 29.480469 C 62.84375 29.484375 62.375 29.640625 61.960938 29.949219 C 61.542969 30.253906 61.253906 30.652344 61.09375 31.144531 L 54.046875 29.078125 Z M 72.152344 20.425781 L 92.785156 49.71875 C 92.683594 49.8125 92.605469 49.921875 92.527344 50.035156 L 76.613281 40.164062 Z M 34.398438 23.640625 L 52.566406 29.003906 L 40.164062 35.796875 L 33.78125 24.433594 C 34.035156 24.207031 34.238281 23.941406 34.394531 23.640625 Z M 33.101562 24.875 L 39.382812 36.054688 L 39.421875 36.253906 L 32.300781 42.777344 L 32.300781 25.039062 C 32.578125 25.035156 32.847656 24.980469 33.101562 24.875 Z M 31.640625 24.90625 C 31.789062 24.957031 31.945312 24.988281 32.097656 25 L 32.097656 42.96875 L 17.066406 56.746094 Z M 53.613281 29.316406 L 61.015625 31.503906 C 60.992188 31.636719 60.9375 31.761719 60.9375 31.894531 C 60.9375 32.460938 61.164062 32.929688 61.472656 33.324219 L 52.863281 40.769531 L 40.734375 36.421875 Z M 61.570312 33.46875 C 62.042969 34.015625 62.636719 34.296875 63.359375 34.320312 C 63.433594 34.320312 63.503906 34.300781 63.582031 34.292969 L 65.707031 45.375 L 53.035156 40.835938 Z M 64.972656 33.527344 L 76.015625 40.394531 L 78.195312 49.851562 L 65.949219 45.460938 L 63.839844 34.246094 C 64.285156 34.117188 64.664062 33.878906 64.972656 33.527344 Z M 40.367188 36.9375 L 52.371094 41.195312 L 42.832031 49.445312 Z M 39.617188 37.238281 L 42.164062 50.019531 L 34.0625 57.019531 C 33.578125 56.523438 32.992188 56.285156 32.300781 56.300781 L 32.300781 43.941406 Z M 76.769531 40.863281 L 92.234375 50.480469 C 92.183594 50.59375 92.160156 50.707031 92.128906 50.820312 L 78.796875 49.851562 Z M 52.542969 41.261719 L 65.824219 45.972656 L 68.230469 58.53125 L 57.757812 67.515625 L 45.558594 63.300781 L 42.859375 49.609375 Z M 32.097656 44.121094 L 32.097656 56.320312 C 31.800781 56.347656 31.515625 56.429688 31.242188 56.5625 C 30.972656 56.699219 30.734375 56.875 30.53125 57.097656 C 30.328125 57.316406 30.167969 57.570312 30.054688 57.847656 C 29.945312 58.128906 29.886719 58.417969 29.878906 58.71875 C 29.882812 59.039062 29.949219 59.347656 30.074219 59.640625 C 30.195312 59.9375 30.371094 60.195312 30.597656 60.421875 C 30.824219 60.648438 31.085938 60.824219 31.378906 60.949219 C 31.671875 61.070312 31.980469 61.136719 32.300781 61.140625 C 32.402344 61.140625 32.492188 61.097656 32.589844 61.082031 L 33.976562 68.390625 L 16.367188 58.519531 Z M 66.066406 46.054688 L 77.878906 50.25 L 68.382812 58.398438 Z M 42.195312 50.183594 L 44.753906 63.023438 L 34.492188 59.480469 C 34.597656 59.234375 34.675781 58.984375 34.71875 58.71875 C 34.726562 58.121094 34.53125 57.589844 34.140625 57.132812 Z M 78.882812 50.660156 L 92.011719 51.625 C 92.046875 52.023438 92.179688 52.386719 92.410156 52.714844 L 78.566406 65.117188 Z M 78.265625 51.128906 L 77.941406 65.671875 L 72.613281 70.449219 C 72.160156 70.039062 71.628906 69.828125 71.019531 69.816406 C 70.851562 69.816406 70.703125 69.871094 70.542969 69.898438 L 68.582031 59.457031 Z M 92.808594 53.234375 C 92.898438 53.316406 93.007812 53.359375 93.109375 53.429688 L 78.109375 86.019531 L 78.550781 65.800781 Z M 68.433594 59.585938 L 70.414062 69.925781 C 70.039062 70 69.703125 70.164062 69.410156 70.414062 C 69.117188 70.660156 68.90625 70.964844 68.769531 71.328125 L 58.792969 67.875 Z M 34.371094 59.773438 L 44.820312 63.386719 L 47.304688 75.855469 L 34.242188 68.539062 L 32.789062 61.039062 C 33.511719 60.859375 34.039062 60.4375 34.371094 59.773438 Z M 16.9375 59.8125 L 34.191406 69.511719 L 37.851562 88.75 C 37.75 88.796875 37.667969 88.867188 37.574219 88.921875 Z M 45.628906 63.664062 L 57.476562 67.757812 L 48.035156 75.863281 Z M 77.929688 66.347656 L 77.476562 86.757812 L 58.183594 79.882812 L 69.066406 73.570312 C 69.285156 73.898438 69.566406 74.15625 69.910156 74.347656 C 70.257812 74.542969 70.625 74.644531 71.019531 74.65625 C 71.339844 74.652344 71.648438 74.589844 71.941406 74.464844 C 72.238281 74.339844 72.5 74.164062 72.726562 73.9375 C 72.949219 73.710938 73.125 73.449219 73.25 73.15625 C 73.375 72.859375 73.4375 72.550781 73.441406 72.230469 C 73.433594 71.683594 73.25 71.199219 72.890625 70.78125 Z M 58.515625 68.113281 L 68.710938 71.636719 C 68.667969 71.832031 68.605469 72.015625 68.605469 72.230469 C 68.605469 72.605469 68.699219 72.945312 68.84375 73.257812 L 57.699219 79.707031 L 48.738281 76.519531 Z M 34.457031 69.664062 L 47.34375 76.914062 L 39.8125 88.800781 C 39.273438 88.539062 38.714844 88.488281 38.136719 88.65625 Z M 48.015625 77.210938 L 56.707031 80.285156 L 40.6875 89.550781 C 40.605469 89.433594 40.53125 89.300781 40.417969 89.199219 Z M 57.195312 80.457031 L 76.027344 87.109375 L 41.058594 90.367188 C 41.023438 90.207031 40.984375 90.046875 40.917969 89.902344 Z M 57.195312 80.457031 " fill-opacity="1" fill-rule="nonzero"/></g></svg>