<?xml version="1.0" encoding="UTF-8"?>
<svg id="Layer_2" data-name="Layer 2" xmlns="http://www.w3.org/2000/svg" viewBox="0 0 150 150">
  <defs>
    <style>
      .cls-1 {
        fill: none;
      }

      .cls-2 {
        fill: #12aaff;
      }

      .cls-3 {
        fill: #fff;
      }

      .cls-4 {
        fill: #9dcced;
      }

      .cls-5 {
        fill: #213147;
      }
    </style>
  </defs>
  <g id="Layer_1-2" data-name="Layer 1">
    <g id="Layer_1-3" data-name="Layer_1">
      <g id="_2405588477232" data-name=" 2405588477232">
        <rect class="cls-1" width="150" height="150"/>
        <g>
          <path class="cls-5" d="M13.56,45.6v58.8c0,3.78,1.98,7.2,5.28,9.12l50.94,29.4c3.24,1.86,7.26,1.86,10.5,0l50.94-29.4c3.24-1.86,5.28-5.34,5.28-9.12v-58.8c0-3.78-1.98-7.2-5.28-9.12L80.28,7.08c-3.24-1.86-7.26-1.86-10.5,0l-50.94,29.4c-3.24,1.86-5.22,5.34-5.22,9.12h-.06Z"/>
          <g>
            <path class="cls-2" d="M86.1,86.4l-7.26,19.92c-.18.54-.18,1.14,0,1.74l12.48,34.26,14.46-8.34-17.34-47.58c-.42-1.08-1.92-1.08-2.34,0Z"/>
            <path class="cls-2" d="M100.68,52.92c-.42-1.08-1.92-1.08-2.34,0l-7.26,19.92c-.18.54-.18,1.14,0,1.74l20.46,56.1,14.46-8.34-25.32-69.36v-.06Z"/>
          </g>
          <path class="cls-4" d="M75,9.3c.36,0,.72.12,1.02.3l55.08,31.8c.66.36,1.02,1.08,1.02,1.8v63.6c0,.72-.42,1.44-1.02,1.8l-55.08,31.8c-.3.18-.66.3-1.02.3s-.72-.12-1.02-.3l-55.08-31.8c-.66-.36-1.02-1.08-1.02-1.8v-63.66c0-.72.42-1.44,1.02-1.8l55.08-31.8c.3-.18.66-.3,1.02-.3h0v.06ZM75,0c-1.98,0-3.9.48-5.7,1.5L14.22,33.3c-3.54,2.04-5.7,5.76-5.7,9.84v63.6c0,4.08,2.16,7.8,5.7,9.84l55.08,31.8c1.74,1.02,3.72,1.5,5.7,1.5s3.9-.48,5.7-1.5l55.08-31.8c3.54-2.04,5.7-5.76,5.7-9.84v-63.6c0-4.08-2.16-7.8-5.7-9.84L80.64,1.5c-1.74-1.02-3.72-1.5-5.7-1.5h.06Z"/>
          <polygon class="cls-5" points="38.52 130.74 43.62 116.82 53.82 125.28 44.28 134.04 38.52 130.74"/>
          <g>
            <path class="cls-3" d="M70.32,38.64h-13.98c-1.02,0-1.98.66-2.34,1.62l-29.94,82.08,14.46,8.34,33-90.42c.3-.84-.3-1.68-1.14-1.68l-.06.06Z"/>
            <path class="cls-3" d="M94.8,38.64h-13.98c-1.02,0-1.98.66-2.34,1.62l-34.2,93.72,14.46,8.34,37.2-102.06c.3-.84-.3-1.68-1.14-1.68v.06Z"/>
          </g>
        </g>
      </g>
    </g>
  </g>
</svg>